<svg width="30" height="23" viewBox="0 0 30 23" fill="none" xmlns="http://www.w3.org/2000/svg">
<path d="M13.8787 21.7717C17.733 21.0978 20.9165 20.5401 20.953 20.5324L21.0195 20.5185L17.3807 16.2343C15.3793 13.878 13.7418 11.9409 13.7418 11.9298C13.7418 11.9086 17.4993 1.66694 17.5204 1.63051C17.5274 1.61832 20.0845 5.988 23.7188 12.2229C27.1213 18.0601 29.9265 22.8729 29.9526 22.918L30 23L18.4355 22.9985L6.87092 22.9971L13.8787 21.7717ZM0 20.4652C0 20.4592 1.71461 17.5131 3.81023 13.9184L7.62047 7.38243L12.0609 3.69401C14.5031 1.66538 16.5078 0.00311491 16.5159 8.33291e-05C16.5239 -0.00294765 16.4918 0.0770877 16.4445 0.177941C16.3972 0.278793 14.2274 4.88524 11.6228 10.4145L6.8872 20.4676L3.4436 20.4719C1.54962 20.4743 0 20.4713 0 20.4652Z" fill="white"/>
</svg>
