<svg width="41" height="25" viewBox="0 0 41 25" fill="none" xmlns="http://www.w3.org/2000/svg">
<path d="M11.6524 9.12087C11.6524 9.62912 11.7063 10.0412 11.8007 10.3434C11.9086 10.6456 12.0435 10.9753 12.2323 11.3324C12.2997 11.4423 12.3267 11.5522 12.3267 11.6483C12.3267 11.7857 12.2458 11.9231 12.0704 12.0604L11.2208 12.6374C11.0994 12.7198 10.978 12.761 10.8701 12.761C10.7352 12.761 10.6004 12.6923 10.4655 12.5687C10.2767 12.3626 10.1149 12.1429 9.97999 11.9231C9.84512 11.6896 9.71025 11.4286 9.56189 11.1126C8.50992 12.3764 7.18821 13.0082 5.59676 13.0082C4.46387 13.0082 3.56025 12.6786 2.89939 12.0192C2.23854 11.3599 1.90137 10.4808 1.90137 9.38186C1.90137 8.21428 2.30597 7.26648 3.12867 6.55219C3.95137 5.83791 5.0438 5.48076 6.43295 5.48076C6.8915 5.48076 7.36354 5.52197 7.86255 5.59065C8.36156 5.65933 8.87406 5.76923 9.41354 5.89285V4.8901C9.41354 3.84615 9.19775 3.11813 8.77966 2.6923C8.34808 2.26648 7.61979 2.06043 6.5813 2.06043C6.10926 2.06043 5.62374 2.11538 5.12472 2.239C4.62571 2.36263 4.14018 2.51373 3.66814 2.70604C3.45235 2.80219 3.29051 2.85714 3.1961 2.88461C3.1017 2.91208 3.03426 2.92582 2.98031 2.92582C2.7915 2.92582 2.69709 2.78846 2.69709 2.49999V1.82692C2.69709 1.60714 2.72406 1.4423 2.7915 1.34615C2.85893 1.24999 2.98031 1.15384 3.16913 1.05769C3.64117 0.810433 4.20762 0.604389 4.86847 0.439554C5.52933 0.260983 6.23064 0.178565 6.97242 0.178565C8.57735 0.178565 9.75071 0.549444 10.506 1.2912C11.2477 2.03296 11.6254 3.15933 11.6254 4.67032V9.12087H11.6524ZM6.1767 11.2088C6.62176 11.2088 7.08031 11.1264 7.56584 10.9615C8.05137 10.7967 8.48295 10.4945 8.84709 10.0824C9.06288 9.82142 9.22472 9.53296 9.30564 9.20329C9.38656 8.87362 9.44051 8.47527 9.44051 8.00824V7.43131C9.04939 7.33516 8.6313 7.25274 8.19972 7.1978C7.76814 7.14285 7.35005 7.11538 6.93196 7.11538C6.02834 7.11538 5.36749 7.29395 4.92242 7.66483C4.47735 8.03571 4.26156 8.55769 4.26156 9.2445C4.26156 9.8901 4.42341 10.3709 4.76058 10.7005C5.08426 11.044 5.5563 11.2088 6.1767 11.2088ZM17.0066 12.6923C16.7639 12.6923 16.602 12.6511 16.4941 12.5549C16.3862 12.4725 16.2918 12.2802 16.2109 12.0192L13.0415 1.40109C12.9606 1.12637 12.9201 0.947796 12.9201 0.851642C12.9201 0.631862 13.028 0.508235 13.2438 0.508235H14.5655C14.8218 0.508235 14.9971 0.549444 15.0915 0.645598C15.1994 0.728016 15.2803 0.920323 15.3612 1.18131L17.627 10.2747L19.731 1.18131C19.7984 0.906587 19.8793 0.728016 19.9872 0.645598C20.0951 0.56318 20.2839 0.508235 20.5267 0.508235H21.6056C21.8619 0.508235 22.0372 0.549444 22.1451 0.645598C22.253 0.728016 22.3474 0.920323 22.4014 1.18131L24.5323 10.3846L26.8655 1.18131C26.9464 0.906587 27.0408 0.728016 27.1352 0.645598C27.2431 0.56318 27.4185 0.508235 27.6612 0.508235H28.9155C29.1313 0.508235 29.2527 0.618125 29.2527 0.851642C29.2527 0.920323 29.2392 0.989005 29.2257 1.07142C29.2122 1.15384 29.1852 1.26373 29.1313 1.41483L25.881 12.033C25.8 12.3077 25.7056 12.4863 25.5977 12.5687C25.4899 12.6511 25.3145 12.706 25.0852 12.706H23.9254C23.6691 12.706 23.4938 12.6648 23.3859 12.5687C23.278 12.4725 23.1836 12.294 23.1297 12.0192L21.0392 3.15933L18.9622 12.0055C18.8948 12.2802 18.8139 12.4588 18.706 12.5549C18.5981 12.6511 18.4093 12.6923 18.1665 12.6923H17.0066ZM34.3372 13.0632C33.6359 13.0632 32.9346 12.9808 32.2602 12.8159C31.5859 12.6511 31.0599 12.4725 30.7093 12.2665C30.4935 12.1429 30.3451 12.0055 30.2912 11.8819C30.2372 11.7582 30.2102 11.6209 30.2102 11.4972V10.7967C30.2102 10.5082 30.3181 10.3709 30.5204 10.3709C30.6014 10.3709 30.6823 10.3846 30.7632 10.4121C30.8441 10.4396 30.9655 10.4945 31.1004 10.5494C31.5589 10.7555 32.0579 10.9203 32.5839 11.0302C33.1234 11.1401 33.6494 11.195 34.1889 11.195C35.0385 11.195 35.6994 11.044 36.1579 10.7418C36.6165 10.4396 36.8593 9.99999 36.8593 9.43681C36.8593 9.05219 36.7379 8.73626 36.4951 8.47527C36.2524 8.21428 35.7938 7.98076 35.1329 7.76098L33.1774 7.14285C32.1928 6.82692 31.4645 6.35988 31.0195 5.74175C30.5744 5.13736 30.3451 4.46428 30.3451 3.74999C30.3451 3.17307 30.4665 2.66483 30.7093 2.22527C30.952 1.78571 31.2757 1.40109 31.6803 1.09889C32.0849 0.782961 32.5435 0.549444 33.0829 0.384609C33.6224 0.219774 34.1889 0.151093 34.7823 0.151093C35.079 0.151093 35.3892 0.164829 35.6859 0.206038C35.9961 0.247246 36.2793 0.302191 36.5625 0.357136C36.8323 0.425818 37.0885 0.494499 37.3313 0.576917C37.5741 0.659334 37.7629 0.741752 37.8977 0.824169C38.0866 0.93406 38.2214 1.04395 38.3024 1.16758C38.3833 1.27747 38.4237 1.42857 38.4237 1.62087V2.26648C38.4237 2.55494 38.3158 2.70604 38.1135 2.70604C38.0056 2.70604 37.8303 2.65109 37.601 2.5412C36.8323 2.18406 35.9691 2.00549 35.0116 2.00549C34.2428 2.00549 33.6359 2.12911 33.2178 2.3901C32.7997 2.65109 32.5839 3.04944 32.5839 3.61263C32.5839 3.99725 32.7188 4.32692 32.9885 4.58791C33.2583 4.8489 33.7573 5.10988 34.4721 5.3434L36.3872 5.96153C37.3583 6.27747 38.0596 6.71703 38.4777 7.28021C38.8958 7.8434 39.0981 8.48901 39.0981 9.20329C39.0981 9.79395 38.9767 10.3297 38.7474 10.7967C38.5047 11.2637 38.181 11.6758 37.7629 12.0055C37.3448 12.3489 36.8458 12.5961 36.2658 12.7747C35.6589 12.967 35.025 13.0632 34.3372 13.0632Z" fill="white"/>
<path fill-rule="evenodd" clip-rule="evenodd" d="M36.8864 19.739C32.4492 23.0769 26.0025 24.8489 20.4594 24.8489C12.691 24.8489 5.69134 21.9231 0.404501 17.0604C-0.0135915 16.6758 0.36404 16.1538 0.863053 16.456C6.58147 19.8352 13.6351 21.8819 20.9315 21.8819C25.8542 21.8819 31.2624 20.8379 36.239 18.6951C36.9808 18.3516 37.6147 19.1896 36.8864 19.739Z" fill="white"/>
<path fill-rule="evenodd" clip-rule="evenodd" d="M38.7342 17.5962C38.1677 16.8544 34.9848 17.239 33.5417 17.4176C33.1102 17.4725 33.0427 17.0879 33.4338 16.7995C35.9694 14.9863 40.1368 15.5082 40.6223 16.1126C41.1079 16.7308 40.4875 20.9753 38.1138 23.0082C37.7496 23.3242 37.399 23.1593 37.5608 22.7473C38.1003 21.3874 39.3006 18.3242 38.7342 17.5962Z" fill="white"/>
</svg>
