<svg width="438" height="154" viewBox="0 0 438 154" fill="none" xmlns="http://www.w3.org/2000/svg">
<path d="M52.211 0.924988H76.0831V111.421C63.8371 113.746 54.8461 114.676 45.0811 114.676C15.9391 114.676 0.748047 101.502 0.748047 76.233C0.748047 51.897 16.87 36.086 41.826 36.086C45.701 36.086 48.646 36.397 52.212 37.325V0.924988H52.211ZM52.211 56.545C49.421 55.616 47.0961 55.306 44.1511 55.306C32.0601 55.306 25.084 62.747 25.084 75.766C25.084 88.479 31.7501 95.454 43.9961 95.454C46.6301 95.454 48.801 95.299 52.211 94.836V56.545Z" fill="white"/>
<path d="M114.059 37.789V93.13C114.059 112.195 112.664 121.34 108.479 129.247C104.603 136.843 99.487 141.646 88.947 146.917L66.78 136.376C77.321 131.416 82.436 127.079 85.691 120.41C89.102 113.591 90.188 105.683 90.188 84.912V37.789H114.059ZM90.188 1.052H114.059V25.545H90.188V1.052V1.052Z" fill="white"/>
<path d="M128.478 43.215C139.02 38.254 149.095 36.085 160.101 36.085C172.347 36.085 180.407 39.34 183.973 45.696C185.987 49.26 186.607 53.91 186.607 63.833V112.35C175.91 113.902 162.425 114.986 152.505 114.986C132.509 114.986 123.517 108.009 123.517 92.51C123.517 75.766 135.453 68.017 164.751 65.535V60.264C164.751 55.925 162.581 54.376 156.535 54.376C147.7 54.376 137.779 56.855 128.477 61.661V43.215H128.478ZM165.836 81.193C150.024 82.745 144.909 85.224 144.909 91.424C144.909 96.074 147.855 98.245 154.365 98.245C157.931 98.245 161.185 97.934 165.836 97.161V81.193Z" fill="white"/>
<path d="M198.234 41.511C212.339 37.789 223.965 36.085 235.746 36.085C247.992 36.085 256.828 38.873 262.1 44.301C267.06 49.414 268.609 54.994 268.609 66.933V113.746H244.738V67.862C244.738 58.717 241.638 55.305 233.113 55.305C229.858 55.305 226.913 55.616 222.106 57.011V113.745H198.235V41.511H198.234Z" fill="white"/>
<path d="M277.889 126.767C286.261 131.106 294.631 133.121 303.466 133.121C319.121 133.121 325.787 126.767 325.787 111.575C325.787 111.421 325.787 111.265 325.787 111.108C321.137 113.434 316.486 114.365 310.287 114.365C289.36 114.365 276.027 100.568 276.027 78.713C276.027 51.585 295.715 36.24 330.591 36.24C340.823 36.24 350.279 37.324 361.75 39.647L353.576 56.869C347.22 55.628 353.067 56.702 348.264 56.237V58.717L348.573 68.791L348.727 81.813C348.882 85.066 348.882 88.323 349.038 91.577C349.038 94.522 349.038 95.919 349.038 98.089C349.038 118.551 347.333 128.162 342.218 136.066C334.777 147.693 321.911 153.428 303.62 153.428C294.319 153.428 286.26 152.032 277.888 148.777V126.767H277.889ZM325.323 55.461C325.013 55.461 324.704 55.461 324.549 55.461H322.843C318.194 55.306 312.769 56.545 309.047 58.87C303.313 62.127 300.366 68.016 300.366 76.388C300.366 88.325 306.258 95.144 316.798 95.144C320.053 95.144 322.689 94.524 325.788 93.594V91.889V85.379C325.788 82.589 325.634 79.487 325.634 76.233L325.48 65.227L325.324 57.322V55.461H325.323Z" fill="white"/>
<path d="M398.809 35.776C422.68 35.776 437.252 50.813 437.252 75.147C437.252 100.104 422.062 115.76 397.879 115.76C374.006 115.76 359.28 100.724 359.28 76.544C359.281 51.43 374.473 35.776 398.809 35.776ZM398.342 96.539C407.489 96.539 412.915 88.943 412.915 75.766C412.915 62.747 407.644 54.995 398.5 54.995C389.043 54.995 383.616 62.593 383.616 75.766C383.617 88.944 389.043 96.539 398.342 96.539Z" fill="white"/>
</svg>
