<svg width="115" height="147" viewBox="0 0 115 147" fill="none" xmlns="http://www.w3.org/2000/svg">
<path d="M52.211 0.924988H76.0831V111.421C63.8371 113.746 54.8461 114.676 45.0811 114.676C15.9391 114.676 0.748047 101.502 0.748047 76.233C0.748047 51.897 16.87 36.086 41.826 36.086C45.701 36.086 48.646 36.397 52.212 37.325V0.924988H52.211ZM52.211 56.545C49.421 55.616 47.0961 55.306 44.1511 55.306C32.0601 55.306 25.084 62.747 25.084 75.766C25.084 88.479 31.7501 95.454 43.9961 95.454C46.6301 95.454 48.801 95.299 52.211 94.836V56.545Z" fill="white"/>
<path d="M114.059 37.789V93.13C114.059 112.195 112.664 121.34 108.479 129.247C104.603 136.843 99.487 141.646 88.947 146.917L66.78 136.376C77.321 131.416 82.436 127.079 85.691 120.41C89.102 113.591 90.188 105.683 90.188 84.912V37.789H114.059ZM90.188 1.052H114.059V25.545H90.188V1.052V1.052Z" fill="white"/>
</svg>
