<svg width="109" height="150" viewBox="0 0 109 150" fill="none" xmlns="http://www.w3.org/2000/svg">
<path d="M0 120.939L0.903724 119.669L43.6542 38.2529L43.7445 37.3911L24.8992 1.86244C23.3203 -1.11372 18.8754 -0.361242 18.3573 2.97034L0 120.939Z" fill="white"/>
<path d="M0.533386 119.971L1.21703 118.633L43.5196 38.0698L24.7214 2.39668C23.1591 -0.5483 19.1917 0.202435 18.679 3.49911L0.533386 119.971Z" fill="white"/>
<path d="M57.4826 64.2652L71.5143 49.8416L57.4785 22.9484C56.1461 20.4027 52.4259 20.3954 51.1076 22.9484L43.6089 37.3025V38.525L57.4826 64.2652Z" fill="white"/>
<path d="M59.2351 148.526L108.743 120.814L94.605 33.4229C94.1628 30.6886 90.8207 29.6077 88.8709 31.5682L0.000106812 120.939L49.2239 148.524C52.3347 150.267 56.1234 150.268 59.2351 148.526Z" fill="white"/>
<path d="M108.299 120.581L94.2688 33.8538C93.8299 31.1403 91.0507 30.0175 89.1157 31.9631L0.549026 120.77L49.2322 148.081C52.3194 149.811 56.0793 149.812 59.1674 148.083L108.299 120.581Z" fill="white"/>
<path d="M59.2351 147.71C56.1234 149.452 52.3347 149.451 49.2239 147.707L0.396545 120.519L7.62939e-05 120.939L49.2239 148.524C52.3347 150.267 56.1234 150.268 59.2351 148.526L108.743 120.814L108.622 120.065L59.2351 147.71Z" fill="white"/>
</svg>
