<svg width="45" height="27" viewBox="0 0 45 27" fill="none" xmlns="http://www.w3.org/2000/svg">
<path d="M11.8947 13.9507C11.8629 13.9971 11.8072 14.1416 11.725 14.3868C11.6428 14.6321 11.5434 14.9383 11.4267 15.3068C11.3101 15.6753 11.1828 16.0889 11.0476 16.5449C10.9111 17.0009 10.7706 17.4676 10.6274 17.9421C10.4829 18.418 10.3451 18.8833 10.2125 19.3406C10.0799 19.7966 9.96062 20.2102 9.8559 20.5788C9.75118 20.9473 9.66369 21.2561 9.59343 21.5067C9.52317 21.7559 9.48075 21.903 9.46485 21.9494C9.4264 22.0966 9.3641 22.261 9.27794 22.4412C9.19177 22.6215 9.09102 22.7912 8.97437 22.9529C8.85772 23.1146 8.72913 23.2485 8.58862 23.3546C8.4481 23.4606 8.30361 23.5137 8.15647 23.5137C7.90726 23.5137 7.72565 23.4301 7.61297 23.2644C7.50029 23.0987 7.44329 22.7938 7.44329 22.3511V22.1576C7.44329 22.0926 7.44727 22.0237 7.45522 21.9508C7.46318 21.8036 7.5215 21.5266 7.6302 21.1196C7.7389 20.714 7.87014 20.2553 8.02126 19.7423C8.17238 19.2293 8.33675 18.7004 8.51173 18.1502C8.68671 17.6014 8.84446 17.1096 8.98498 16.6762C8.57139 17.1375 8.12466 17.5961 7.64081 18.0535C7.15829 18.5108 6.66251 18.9204 6.15745 19.285C5.65107 19.6495 5.14071 19.9478 4.62637 20.1771C4.11204 20.4077 3.61759 20.5231 3.14302 20.5231C2.59819 20.5231 2.12893 20.4024 1.73522 20.1638C1.34152 19.9239 1.01674 19.6097 0.759574 19.2227C0.502406 18.8356 0.311518 18.3968 0.186911 17.9077C0.0623033 17.4185 0 16.9294 0 16.4402V16.2599C0 16.2042 0.00397634 16.1499 0.01193 16.0942C0.0583263 15.2087 0.185585 14.2993 0.391055 13.3674C0.59785 12.4355 0.868274 11.5076 1.20365 10.5863C1.53903 9.66369 1.92611 8.76228 2.36621 7.88075C2.80631 6.99922 3.28486 6.16673 3.80317 5.3833C4.32148 4.59986 4.87161 3.87741 5.45621 3.21725C6.0408 2.5571 6.63997 1.98974 7.25506 1.51517C7.87014 1.0406 8.49185 0.669432 9.11886 0.401659C9.74588 0.133886 10.3676 0 10.9827 0C11.6919 0 12.3772 0.193538 13.0387 0.580616C13.7002 0.967694 14.3192 1.59603 14.8959 2.46298C15.0284 2.65652 15.1119 2.85271 15.1464 3.05155C15.1809 3.25039 15.1994 3.4373 15.1994 3.61228C15.1994 4.0272 15.1 4.35463 14.9012 4.59456C14.7023 4.8345 14.4664 4.9538 14.1946 4.9538C13.9454 4.9538 13.7134 4.82256 13.5 4.55877C13.2853 4.2963 13.0466 3.91983 12.7815 3.43068C12.5323 2.98792 12.2579 2.66712 11.9583 2.46828C11.6587 2.26944 11.3326 2.17135 10.9827 2.17135C10.4378 2.17135 9.85458 2.39803 9.23552 2.85006C8.61646 3.30209 8.0027 3.89994 7.39557 4.64228C6.78844 5.38462 6.20518 6.23301 5.64842 7.18878C5.09166 8.14322 4.59854 9.12151 4.17037 10.1223C3.74219 11.1232 3.40151 12.1108 3.14832 13.0838C2.89513 14.0568 2.7692 14.9317 2.7692 15.7071C2.7692 15.9656 2.78643 16.2308 2.82222 16.5025C2.85801 16.7743 2.92297 17.0221 3.02106 17.2435C3.11783 17.4649 3.25039 17.6478 3.41874 17.7897C3.58577 17.9328 3.79787 18.0044 4.05504 18.0044C4.34269 18.0044 4.67012 17.9077 5.03599 17.7141C5.40186 17.5206 5.78231 17.2674 6.17469 16.9532C6.56839 16.639 6.96342 16.2838 7.36111 15.8874C7.75879 15.4911 8.12863 15.0894 8.47064 14.6838C8.81265 14.2781 9.11754 13.8884 9.38133 13.5146C9.64646 13.1408 9.8453 12.816 9.97653 12.5389L11.0635 9.28722C11.1961 8.93725 11.3697 8.68804 11.5832 8.53957C11.7979 8.39243 12.018 8.3182 12.2433 8.3182C12.352 8.3182 12.4607 8.33675 12.5707 8.37387C12.6794 8.41099 12.7775 8.46799 12.8624 8.54753C12.9485 8.62574 13.0162 8.72781 13.0665 8.85242C13.1169 8.97703 13.1421 9.12284 13.1421 9.28854C13.1421 9.7313 13.1036 10.1462 13.0254 10.5346C12.9472 10.923 12.8478 11.3008 12.7272 11.6693C12.6065 12.0379 12.4727 12.4104 12.3242 12.7828C12.1784 13.154 12.0339 13.5437 11.8947 13.9507V13.9507ZM26.6275 16.6629C26.2842 17.1242 25.8852 17.5736 25.4305 18.0124C24.9745 18.4512 24.5052 18.8409 24.0227 19.1816C23.5402 19.5222 23.0643 19.7966 22.5977 20.0048C22.1297 20.2129 21.7095 20.3163 21.3357 20.3163C20.9619 20.3163 20.6583 20.1917 20.4237 19.9425C20.1903 19.6932 20.0737 19.2691 20.0737 18.6686C20.0737 18.2444 20.136 17.7499 20.2606 17.1878C20.0578 17.5484 19.8046 17.913 19.501 18.2815C19.1975 18.65 18.8502 18.9867 18.4604 19.2916C18.0707 19.5965 17.6346 19.843 17.1521 20.0313C16.6695 20.2208 16.1433 20.315 15.5746 20.315C15.3174 20.315 15.0695 20.2831 14.8322 20.2182C14.595 20.1532 14.3868 20.0432 14.2079 19.8868C14.0289 19.7304 13.8844 19.5209 13.7757 19.2571C13.667 18.9947 13.6127 18.6646 13.6127 18.2682C13.6127 18.2589 13.6286 18.1184 13.6591 17.8467C13.6896 17.5749 13.789 17.1454 13.9573 16.5595C14.1244 15.9736 14.3842 15.2153 14.7341 14.2834C15.0854 13.3515 15.5799 12.2221 16.2175 10.8925C16.3805 10.5426 16.5701 10.2907 16.7835 10.1383C16.9983 9.98581 17.2289 9.91025 17.4782 9.91025C17.5869 9.91025 17.6995 9.92616 17.8175 9.95797C17.9342 9.99111 18.0429 10.0415 18.1449 10.1104C18.2457 10.1794 18.3279 10.2668 18.3902 10.3729C18.4525 10.4789 18.4843 10.6009 18.4843 10.7401C18.4843 10.8329 18.4724 10.9204 18.4485 11.0026C18.4101 11.1603 18.3265 11.3644 18.1966 11.619C18.068 11.8735 17.9183 12.1638 17.7473 12.4912C17.5762 12.8186 17.3946 13.1713 17.2038 13.5504C17.0129 13.9282 16.8352 14.3206 16.6722 14.7262C16.5091 15.1318 16.3686 15.5454 16.252 15.9643C16.1353 16.3845 16.069 16.7928 16.0531 17.1892C16.0531 17.3549 16.0916 17.5073 16.1698 17.6465C16.248 17.7844 16.3766 17.8546 16.5555 17.8546C17.0619 17.8546 17.5444 17.6889 18.0044 17.3562C18.4644 17.0248 18.8886 16.6112 19.2783 16.1181C19.6681 15.625 20.0207 15.0947 20.3362 14.526C20.6517 13.9587 20.9155 13.4403 21.1249 12.9698C21.2734 12.6556 21.4033 12.3189 21.516 11.9596C21.6286 11.6004 21.7519 11.2677 21.8845 10.9628C22.017 10.6579 22.1682 10.4047 22.3405 10.2019C22.5115 9.99907 22.7262 9.897 22.9834 9.897C23.2631 9.897 23.4858 10.003 23.6489 10.2151C23.8119 10.4272 23.8941 10.6818 23.8941 10.976C23.8941 11.1417 23.8424 11.3711 23.7364 11.6614C23.6303 11.9517 23.4991 12.2844 23.3387 12.6582C23.1796 13.0321 23.0059 13.4311 22.819 13.8553C22.6321 14.2795 22.4585 14.7116 22.2994 15.1491C22.139 15.5878 22.0078 16.016 21.9017 16.4362C21.797 16.8564 21.744 17.2462 21.744 17.6054C21.744 17.9381 21.915 18.1038 22.2583 18.1038C22.4996 18.1038 22.7991 18.0203 23.1584 17.8546C23.5176 17.6889 23.8928 17.4556 24.2865 17.156C24.6802 16.8564 25.0726 16.5038 25.4663 16.0969C25.86 15.6912 26.2086 15.2525 26.5122 14.7819L26.6275 16.6629V16.6629Z" fill="white"/>
<path d="M26.9909 15.9709C26.9048 16.183 26.8213 16.4296 26.7391 16.712C26.6569 16.993 26.6171 17.2449 26.6171 17.4662C26.6171 17.6041 26.641 17.7154 26.6874 17.799C26.7338 17.8825 26.8239 17.9236 26.9565 17.9236C27.1195 17.9236 27.3237 17.8666 27.5702 17.7499C27.8155 17.6346 28.0806 17.4821 28.3643 17.2926C28.6493 17.1043 28.9449 16.8869 29.2524 16.6417C29.56 16.3978 29.8662 16.1433 30.1697 15.8808C30.4733 15.617 30.7636 15.3545 31.0407 15.0921C31.3177 14.8283 31.5643 14.587 31.783 14.3656C31.8453 14.3007 31.9195 14.2543 32.0044 14.2278C32.0892 14.1999 32.1634 14.1867 32.2257 14.1867C32.3808 14.1867 32.5108 14.2516 32.6115 14.3802C32.7122 14.5088 32.7626 14.6798 32.7626 14.8919C32.7626 15.0854 32.7083 15.3028 32.5996 15.5428C32.4909 15.7827 32.3 16.0187 32.0269 16.248C31.5285 16.7928 31.0261 17.3085 30.5197 17.7976C30.0133 18.2868 29.5096 18.7176 29.0072 19.0914C28.5048 19.4653 28.0063 19.7622 27.5119 19.9849C27.0174 20.2063 26.5363 20.3163 26.0683 20.3163C25.7488 20.3163 25.4824 20.2659 25.2677 20.1638C25.0529 20.0618 24.8819 19.9239 24.7533 19.7489C24.6247 19.574 24.5333 19.3658 24.4789 19.1259C24.4246 18.886 24.3967 18.6328 24.3967 18.365C24.3967 17.913 24.4537 17.449 24.5664 16.9744C24.6791 16.4999 24.813 16.0637 24.9694 15.6674C25.2425 14.9476 25.5182 14.2331 25.7992 13.5225C26.0789 12.812 26.3361 12.1611 26.5707 11.5713L30.1101 2.6446C30.2506 2.28536 30.4388 2.03084 30.6774 1.8837C30.9147 1.73656 31.1547 1.66232 31.3959 1.66232C31.6372 1.66232 31.8572 1.74053 32.0561 1.89696C32.2549 2.05338 32.3543 2.3079 32.3543 2.65786C32.3543 2.82356 32.3212 2.99986 32.2549 3.18412C32.1886 3.36838 32.1051 3.56722 32.0044 3.77932C31.8095 4.2128 31.5775 4.74304 31.3098 5.37005C31.0407 5.99707 30.753 6.67975 30.4455 7.41812C30.1379 8.15648 29.8224 8.92401 29.499 9.72203C29.1755 10.52 28.86 11.2969 28.5525 12.0538C28.245 12.8107 27.9573 13.5278 27.6882 14.2052C27.4165 14.8839 27.1845 15.4725 26.9909 15.9709V15.9709Z" fill="white"/>
<path d="M43.5464 13.4655C43.6551 13.3913 43.7572 13.3316 43.85 13.2852C43.9427 13.2388 44.0329 13.2163 44.1191 13.2163C44.2901 13.2163 44.4186 13.2932 44.5048 13.4443C44.591 13.5968 44.6334 13.7837 44.6334 14.0051C44.6334 14.245 44.5817 14.4889 44.4756 14.7381C44.3709 14.9873 44.2132 15.1941 44.0024 15.3612C43.1686 16.0995 42.4249 16.7729 41.7714 17.3814C41.1166 17.9898 40.5001 18.5134 39.9195 18.9522C39.3389 19.391 38.7729 19.729 38.2201 19.969C37.6673 20.2089 37.0748 20.3282 36.4438 20.3282C35.8512 20.3282 35.3939 20.1983 35.0704 19.9411C34.747 19.6826 34.5853 19.3274 34.5853 18.8753V18.7719C34.5853 18.7401 34.5893 18.7004 34.5972 18.654C34.6277 18.3769 34.7497 18.0588 34.9591 17.6995C35.1699 17.3403 35.4231 16.9665 35.7187 16.5781C36.0143 16.1897 36.3298 15.7986 36.6652 15.4022C37.0005 15.0059 37.3094 14.6294 37.5944 14.2742C37.8781 13.9189 38.114 13.5941 38.301 13.2985C38.4879 13.0029 38.582 12.7643 38.582 12.5787C38.582 12.4673 38.5422 12.3799 38.4653 12.3162C38.3871 12.2513 38.2585 12.2195 38.0796 12.2195C37.7681 12.2195 37.4473 12.3003 37.1159 12.462C36.7845 12.6238 36.457 12.8398 36.1349 13.1116C35.8115 13.3833 35.496 13.6949 35.1884 14.0461C34.8809 14.3974 34.5932 14.7606 34.3241 15.1398C34.055 15.5189 33.8098 15.898 33.5884 16.2811C33.367 16.6642 33.1775 17.0168 33.0224 17.3403C32.976 17.4424 32.9097 17.5855 32.8235 17.7698C32.7374 17.954 32.6446 18.1622 32.5438 18.3928C32.4418 18.6235 32.3357 18.8608 32.2217 19.1047C32.109 19.3499 32.0056 19.5806 31.9129 19.7966C31.8187 20.014 31.7352 20.2063 31.661 20.3786C31.5868 20.5496 31.5337 20.6662 31.5032 20.7312C31.4635 20.8147 31.3998 20.9711 31.3097 21.2018C31.2196 21.4324 31.1175 21.7015 30.9995 22.0117C30.8829 22.3206 30.7596 22.6454 30.6323 22.9874C30.5037 23.3294 30.3831 23.6515 30.2704 23.9564C30.1577 24.2613 30.0583 24.5277 29.9722 24.7584C29.886 24.989 29.8316 25.1455 29.8078 25.229C29.7296 25.4689 29.6381 25.6943 29.5334 25.9077C29.4287 26.1198 29.308 26.3067 29.1715 26.4684C29.035 26.6302 28.8799 26.7587 28.7036 26.8555C28.5286 26.9523 28.3311 27 28.1137 27C27.8326 27 27.602 26.9324 27.4177 26.7998C27.2348 26.6659 27.1433 26.4101 27.1433 26.0323C27.1433 25.848 27.1672 25.6585 27.2136 25.4649C27.26 25.2714 27.3196 25.0792 27.3885 24.891C27.4588 24.7014 27.5304 24.5171 27.6046 24.3382C27.6789 24.1579 27.7465 23.9856 27.8088 23.8185C28.229 22.8959 28.6585 21.9706 29.0946 21.044C29.5307 20.1161 29.9496 19.1988 30.35 18.2894C30.7516 17.3814 31.1228 16.4879 31.4661 15.6117C31.8081 14.7355 32.0931 13.895 32.3185 13.093C32.3808 12.9273 32.467 12.6914 32.5757 12.3865C32.6844 12.0816 32.809 11.782 32.9495 11.4864C33.09 11.1908 33.2477 10.9349 33.4227 10.7189C33.5977 10.5015 33.7873 10.3941 33.9888 10.3941C34.3003 10.3941 34.5256 10.4657 34.6661 10.6088C34.8067 10.752 34.8769 10.9615 34.8769 11.2385C34.8769 11.2942 34.869 11.3817 34.853 11.501C34.8371 11.6203 34.8173 11.7475 34.7947 11.8814C34.7709 12.0153 34.7457 12.1426 34.7192 12.2619C34.6913 12.3812 34.6661 12.4687 34.6436 12.5243C34.9313 12.2102 35.2428 11.9 35.5782 11.5898C35.9135 11.2809 36.2595 11.0012 36.6188 10.752C36.9767 10.5028 37.3425 10.3 37.7164 10.1422C38.0902 9.9858 38.464 9.90759 38.8378 9.90759C39.095 9.90759 39.3495 9.94471 39.6027 10.0189C39.8559 10.0932 40.0813 10.2006 40.2801 10.3437C40.4789 10.4869 40.6407 10.6672 40.7653 10.8832C40.8899 11.1006 40.9522 11.3512 40.9522 11.6375C40.9522 12.0166 40.8567 12.4196 40.6658 12.8491C40.475 13.2786 40.235 13.7094 39.9474 14.1429C39.6584 14.5764 39.3469 14.9993 39.0128 15.4089C38.6774 15.8198 38.3646 16.1936 38.0716 16.5303C37.78 16.867 37.5348 17.1534 37.3359 17.388C37.1371 17.624 37.0337 17.783 37.0257 17.8652C37.0257 17.9766 37.0615 18.0654 37.1304 18.1356C37.1994 18.2059 37.3174 18.239 37.4817 18.239C37.6143 18.239 37.8092 18.1648 38.0663 18.0177C38.3235 17.8705 38.6841 17.6147 39.1467 17.2501C39.6093 16.8856 40.1979 16.3964 40.9111 15.7827C41.6243 15.1703 42.5031 14.3974 43.5464 13.4655V13.4655Z" fill="white"/>
</svg>
