<svg width="26" height="26" viewBox="0 0 26 26" fill="none" xmlns="http://www.w3.org/2000/svg">
<g clip-path="url(#clip0)">
<path d="M17.875 3.10227V22.6022C17.875 24.7842 19.3818 26 20.9773 26C22.4546 26 24.0796 24.9659 24.0796 22.6022V3.25C24.0796 1.24977 22.6023 0 20.9773 0C19.3523 0 17.875 1.37829 17.875 3.10227Z" fill="white"/>
<path d="M9.75 13V22.6023C9.75 24.7842 11.2568 26 12.8523 26C14.3296 26 15.9546 24.9659 15.9546 22.6023V13.1477C15.9546 11.1475 14.4773 9.89772 12.8523 9.89772C11.2273 9.89772 9.75 11.276 9.75 13Z" fill="white"/>
<path d="M4.72729 26C6.44063 26 7.82957 24.611 7.82957 22.8977C7.82957 21.1844 6.44063 19.7954 4.72729 19.7954C3.01394 19.7954 1.625 21.1844 1.625 22.8977C1.625 24.611 3.01394 26 4.72729 26Z" fill="white"/>
</g>
<defs>
<clipPath id="clip0">
<rect width="26" height="26" fill="white"/>
</clipPath>
</defs>
</svg>
