<svg width="26" height="29" viewBox="0 0 26 29" fill="none" xmlns="http://www.w3.org/2000/svg">
<path d="M1.25806 21.0366L2.30029 21.6384L13.9112 1.52831L12.8689 0.926555L1.25806 21.0366Z" fill="white"/>
<path d="M24.241 19.43H1.01929V20.6335H24.241V19.43Z" fill="white"/>
<path d="M1.47877 20.1061L13.094 26.8124L13.6957 25.7701L2.08052 19.0639L1.47877 20.1061Z" fill="white"/>
<path d="M11.5691 2.62789L23.1843 9.33414L23.7861 8.29191L12.1708 1.58566L11.5691 2.62789Z" fill="white"/>
<path d="M1.48223 8.28731L2.08398 9.32954L13.6992 2.62329L13.0975 1.58106L1.48223 8.28731Z" fill="white"/>
<path d="M11.3591 1.52852L22.97 21.6385L24.0122 21.0368L12.4013 0.926769L11.3591 1.52852Z" fill="white"/>
<path d="M3.14368 7.48924H1.94019V20.9017H3.14368V7.48924Z" fill="white"/>
<path d="M23.3275 7.48924H22.124V20.9017H23.3275V7.48924Z" fill="white"/>
<path d="M12.3635 25.3926L12.8892 26.3029L22.9913 20.4703L22.4656 19.5599L12.3635 25.3926Z" fill="white"/>
<path d="M24.9226 21.2933C24.2266 22.504 22.6751 22.9173 21.4643 22.2213C20.2536 21.5253 19.8403 19.9738 20.5363 18.763C21.2323 17.5523 22.7838 17.139 23.9946 17.835C25.2126 18.5383 25.6258 20.0825 24.9226 21.2933Z" fill="white"/>
<path d="M4.72411 9.628C4.02811 10.8388 2.47661 11.252 1.26586 10.556C0.0551049 9.86 -0.358145 8.3085 0.337855 7.09775C1.03386 5.887 2.58536 5.47375 3.79611 6.16975C5.00686 6.873 5.42011 8.41725 4.72411 9.628Z" fill="white"/>
<path d="M0.344935 21.2933C-0.351065 20.0825 0.0621848 18.5383 1.27293 17.835C2.48369 17.139 4.02794 17.5523 4.73119 18.763C5.42719 19.9738 5.01394 21.518 3.80319 22.2213C2.58519 22.9173 1.04094 22.504 0.344935 21.2933Z" fill="white"/>
<path d="M20.5437 9.628C19.8477 8.41725 20.2609 6.873 21.4717 6.16975C22.6824 5.47375 24.2267 5.887 24.9299 7.09775C25.6259 8.3085 25.2127 9.85275 24.0019 10.556C22.7912 11.252 21.2397 10.8388 20.5437 9.628Z" fill="white"/>
<path d="M12.6338 28.391C11.2345 28.391 10.1035 27.26 10.1035 25.8608C10.1035 24.4615 11.2345 23.3305 12.6338 23.3305C14.033 23.3305 15.164 24.4615 15.164 25.8608C15.164 27.2528 14.033 28.391 12.6338 28.391Z" fill="white"/>
<path d="M12.6338 5.0605C11.2345 5.0605 10.1035 3.9295 10.1035 2.53025C10.1035 1.131 11.2345 0 12.6338 0C14.033 0 15.164 1.131 15.164 2.53025C15.164 3.9295 14.033 5.0605 12.6338 5.0605Z" fill="white"/>
</svg>
