<svg width="24" height="26" viewBox="0 0 24 26" fill="none" xmlns="http://www.w3.org/2000/svg">
<path d="M21.06 0H2.34C1.04 0 0 1.04 0 2.34V23.66C0 24.96 1.04 26 2.34 26H21.06C22.36 26 23.4 24.96 23.4 23.66V2.34C23.4 1.04 22.36 0 21.06 0ZM22.1 23.66C22.1 24.245 21.645 24.7 21.06 24.7H2.34C1.755 24.7 1.3 24.245 1.3 23.66V2.34C1.3 1.755 1.755 1.3 2.34 1.3H21.06C21.645 1.3 22.1 1.755 22.1 2.34V23.66Z" fill="white"/>
<path d="M5.8501 22.1L8.7751 19.5L5.8501 16.9V22.1Z" fill="white"/>
<path d="M16.4126 11.57C15.8926 11.05 14.9176 10.4 13.3251 10.4C11.5701 10.4 9.7501 10.855 8.4501 11.2775V3.89999H5.8501V15.1775L7.7026 14.3325C7.7351 14.3325 10.6926 13 13.3251 13C14.6576 13 14.9501 13.715 14.9501 14.3325V22.1H17.5501V14.3C17.5501 14.1375 17.5501 12.7075 16.4126 11.57Z" fill="white"/>
<path d="M13 8.12499H15.6C16.77 6.79249 17.3875 5.36249 17.55 3.89999H14.95C14.6575 5.36249 14.0075 6.79249 13 8.12499Z" fill="white"/>
</svg>
