<svg width="512" height="116" viewBox="0 0 512 116" fill="none" xmlns="http://www.w3.org/2000/svg">
<g clip-path="url(#clip0)">
<path fill-rule="evenodd" clip-rule="evenodd" d="M489.718 8.64624L511.139 8.76394C511.139 8.76394 471.314 62.728 468.062 67.1261C467.006 68.5502 465.401 70.0862 464.588 71.9901C462.531 76.7766 460.419 87.2755 460.419 87.2755L440.82 87.3726C440.82 87.3726 443.87 76.4293 443.744 70.6002C443.633 65.5077 441.034 60.422 439.576 55.3147C438.102 50.1457 436.101 40.0293 436.101 40.0293H456.251L459.03 51.1462L489.718 8.64624Z" fill="white"/>
<path fill-rule="evenodd" clip-rule="evenodd" d="M449.157 20.0269C453.11 22.4103 455.536 35.5556 455.536 35.5556C455.536 35.5556 434.852 35.8606 423.596 35.8606H413.869L402.057 87.2754H383.993C383.993 87.2754 395.235 31.4007 397.889 21.2706C398.75 17.9916 403.781 18.5537 412.278 18.5537H425.847C434.609 18.5537 444.85 17.4355 449.157 20.0269Z" fill="white"/>
<path fill-rule="evenodd" clip-rule="evenodd" d="M365.06 45.0669C365.06 45.0669 365.623 41.7663 363.149 37.945C361.037 34.6866 359.086 33.9294 353.527 33.7558C337.832 33.2624 338.137 44.8933 338.137 44.8933L365.06 45.0669ZM382.082 31.748C384.383 40.044 379.998 59.5392 379.998 59.5392C379.998 59.5392 357.104 59.1567 344.564 59.5392C340.665 59.6579 335.998 59.1155 334.837 60.9291C333.204 63.4714 335.434 67.384 337.324 69.0367C339.499 70.9405 343.736 71.1563 345.259 71.3505C355.437 72.6433 376.74 71.684 376.74 71.684L373.05 88.0248C373.05 88.0248 342.946 89.5334 327.889 85.9406C324.916 85.2324 322.129 83.8013 320.246 81.772C319.732 81.2168 319.287 80.4596 318.8 79.8064C318.412 79.2846 317.28 77.5691 316.772 76.2135C313.333 67.0495 317.175 49.4924 320.941 40.0852C321.378 38.9945 321.927 37.6125 322.505 36.4374C323.227 34.972 323.838 33.3183 324.415 32.4424C324.803 31.8382 325.284 31.4489 325.687 30.879C326.152 30.2051 326.693 29.5519 327.194 28.9693C328.583 27.3568 330.161 26.217 332.057 24.8007C338.331 20.1034 349.684 16.4557 363.323 17.8524C368.458 18.3801 376.212 20.2143 379.998 25.4951C381.012 26.9056 381.513 29.7049 382.082 31.748Z" fill="white"/>
<path fill-rule="evenodd" clip-rule="evenodd" d="M299.229 18.4909L316.745 18.387C316.745 18.387 306.983 64.6945 302.008 87.2755H281.859C267.776 87.2755 255.235 89.0194 249.899 78.9373C244.723 69.1485 249.663 53.05 251.983 42.1136C253.623 34.3737 257.077 18.5537 257.077 18.5537L275.225 18.387C275.225 18.387 270.097 43.0169 267.963 55.3147C267.199 59.7197 265.623 63.8677 267.269 67.126C268.832 70.2255 271.021 70.4472 277.69 70.6002C279.803 70.6492 286.723 70.6002 286.723 70.6002L299.229 18.4909Z" fill="white"/>
<path fill-rule="evenodd" clip-rule="evenodd" d="M217.244 51.8405C219.078 45.3238 221.753 38.2578 221.413 32.3865C221.045 26.1062 215.779 20.3879 212.381 19.1863C202.147 15.5729 192.566 20.6242 188.758 24.7438C183.832 30.0805 182.164 36.3128 180.42 44.8932C179.122 51.2638 178.058 57.9894 180.42 62.9574C184.602 71.7399 197.644 69.8223 211.685 69.9057C213.77 64.3198 215.493 58.0454 217.244 51.8405ZM241.562 26.1336C243.563 40.6825 235.886 56.7399 230.598 70.7041C235.99 71.1906 240.715 70.6286 241.055 71.0307C241.409 71.5525 237.441 87.6992 236.058 87.7404C231.779 87.8522 217.599 87.9699 211.685 87.9699C192.391 87.9699 174.341 89.2273 165.136 79.6327C161.398 75.7349 158.813 69.0504 158.187 64.3473C157.145 56.4956 158.451 47.8524 160.272 40.7247C161.919 34.2903 164.03 28.2179 167.22 22.6595C175.328 8.5069 189.432 -1.99792 213.075 0.42672C217.661 0.899486 224.247 2.90727 228.361 5.28974C228.645 5.45746 229.64 6.249 229.868 6.38828C235.427 9.9252 240.492 18.3663 241.562 26.1336Z" fill="white"/>
<path fill-rule="evenodd" clip-rule="evenodd" d="M156.193 18.5743C155.026 23.8895 153.859 29.9139 152.629 35.1663H133.175C134.682 29.344 135.836 23.556 137.344 18.491C143.569 18.491 149.357 18.5743 156.193 18.5743Z" fill="white"/>
<path fill-rule="evenodd" clip-rule="evenodd" d="M132.48 40.0293H151.239C148.787 53.6061 143.931 75.5054 140.123 90.7487C137.74 100.288 136.149 107.25 129.701 112.287C129.124 112.739 128.792 112.524 128.312 112.982C127.123 114.115 121.627 115.429 118.585 115.761C113.637 116.297 108.045 115.831 101.965 115.706C103.556 109.891 105.356 102.908 106.774 97.697C121.593 99.49 121.969 85.4825 124.838 71.9901C126.498 64.1943 131.529 43.1562 132.48 40.0293Z" fill="white"/>
<path fill-rule="evenodd" clip-rule="evenodd" d="M88.7084 75.4643L88.3063 76.5059C81.4551 89.8454 69.3171 98.0305 52.0033 98.3915C43.9094 98.5582 36.197 96.4818 31.1594 94.2229C20.2868 89.3383 11.1424 80.2792 6.14791 70.6003C-1.01617 56.7253 -2.30794 37.4242 12.5881 23.0078C12.8176 23.0078 10.7814 26.1338 11.0109 26.1338L10.6009 27.4677C-0.133408 61.0743 32.9377 89.8738 65.0858 86.5802C72.8119 85.7886 82.6644 81.5573 88.7084 75.4643Z" fill="white"/>
<path fill-rule="evenodd" clip-rule="evenodd" d="M69.2544 61.5677C77.3424 61.6236 85.7904 57.8435 90.7927 52.5361C86.4162 63.6461 73.7437 70.7877 56.7486 68.516C42.5195 66.6122 28.9643 52.2929 27.5676 37.9451C26.5465 27.5031 30.1864 21.2708 36.1833 13.7114C34.099 17.6652 33.3202 20.7146 33.126 22.6597C30.8475 45.2475 51.1696 61.45 69.2544 61.5677Z" fill="white"/>
<path fill-rule="evenodd" clip-rule="evenodd" d="M89.9806 33.5126C88.7231 36.3963 81.4835 41.8429 78.287 42.5236C65.6282 45.22 57.5206 39.2172 53.2745 32.3866C52.6428 31.3656 51.4756 28.58 51.2667 27.8708C49.6199 22.2712 50.3771 13.8016 55.2901 9.41724C53.81 13.5858 53.5942 18.4282 54.373 21.5758C54.8448 23.4796 56.2827 26.8017 57.7216 28.8919C60.3405 32.6995 62.001 33.6244 65.3643 35.646C66.8788 36.5562 68.504 37.2859 69.2063 37.487C72.395 38.4247 79.1275 40.8984 89.9806 33.5126Z" fill="white"/>
</g>
<defs>
<clipPath id="clip0">
<rect width="512" height="116" fill="white"/>
</clipPath>
</defs>
</svg>
