<svg width="91" height="90" viewBox="0 0 91 90" fill="none" xmlns="http://www.w3.org/2000/svg">
<path fill-rule="evenodd" clip-rule="evenodd" d="M88.7084 66.4643L88.3063 67.5059C81.4551 80.8454 69.3171 89.0305 52.0033 89.3915C43.9094 89.5582 36.197 87.4818 31.1594 85.2229C20.2868 80.3383 11.1424 71.2792 6.14791 61.6003C-1.01617 47.7253 -2.30794 28.4242 12.5881 14.0078C12.8176 14.0078 10.7814 17.1338 11.0109 17.1338L10.6009 18.4677C-0.133408 52.0743 32.9377 80.8738 65.0858 77.5802C72.8119 76.7886 82.6644 72.5573 88.7084 66.4643Z" fill="white"/>
<path fill-rule="evenodd" clip-rule="evenodd" d="M69.2544 52.5677C77.3424 52.6236 85.7904 48.8435 90.7927 43.5361C86.4162 54.6461 73.7437 61.7877 56.7486 59.516C42.5195 57.6122 28.9643 43.2929 27.5676 28.9451C26.5465 18.5031 30.1864 12.2708 36.1833 4.71143C34.099 8.6652 33.3202 11.7146 33.126 13.6597C30.8475 36.2475 51.1696 52.45 69.2544 52.5677Z" fill="white"/>
<path fill-rule="evenodd" clip-rule="evenodd" d="M89.9806 24.5126C88.7231 27.3963 81.4835 32.8429 78.287 33.5236C65.6282 36.22 57.5206 30.2172 53.2745 23.3866C52.6428 22.3656 51.4756 19.58 51.2667 18.8708C49.6199 13.2712 50.3771 4.8016 55.2901 0.417236C53.81 4.58582 53.5942 9.42824 54.373 12.5758C54.8448 14.4796 56.2827 17.8017 57.7216 19.8919C60.3405 23.6995 62.001 24.6244 65.3643 26.646C66.8788 27.5562 68.504 28.2859 69.2063 28.487C72.395 29.4247 79.1275 31.8984 89.9806 24.5126Z" fill="white"/>
</svg>
