<svg width="474" height="135" viewBox="0 0 474 135" fill="none" xmlns="http://www.w3.org/2000/svg">
<path fill-rule="evenodd" clip-rule="evenodd" d="M441.689 55.8336C441.263 55.9188 440.835 56.8589 440.835 57.371C440.75 60.7904 440.664 69.8502 440.664 76.0036C440.664 76.1749 440.92 76.5167 441.177 76.5167C442.458 76.6019 445.535 76.6871 448.185 76.6871C451.86 76.6871 453.997 76.1749 455.194 75.6628C458.27 74.1235 459.723 70.7902 459.723 67.1143C459.723 58.8251 453.911 55.6623 445.279 55.6623C444.68 55.577 442.972 55.577 441.689 55.8336V55.8336ZM463.741 94.0378C463.741 85.5764 457.501 80.8752 446.22 80.8752C445.706 80.8752 442.117 80.79 441.262 80.9604C441.005 81.0466 440.664 81.2179 440.664 81.4744C440.664 87.5417 440.578 97.2007 440.835 100.961C441.005 102.584 442.203 104.892 443.656 105.576C445.193 106.431 448.698 106.601 451.091 106.601C457.843 106.601 463.741 102.841 463.741 94.0378V94.0378ZM424.255 51.1333C425.109 51.1333 427.672 51.3889 434.253 51.3889C440.493 51.3889 445.45 51.2185 451.518 51.2185C458.953 51.2185 469.21 53.8673 469.21 64.9785C469.21 70.4485 465.363 74.8079 460.321 76.9446C460.066 77.0298 460.066 77.2002 460.321 77.2854C467.5 79.0812 473.826 83.525 473.826 91.9003C473.826 100.106 468.698 105.319 461.261 108.568C456.732 110.533 451.091 111.216 445.365 111.216C441.005 111.216 429.297 110.704 422.801 110.876C422.118 110.618 423.4 107.541 423.997 107.029C425.536 106.943 426.732 106.858 428.357 106.345C430.665 105.747 430.92 105.063 431.262 101.559C431.433 98.5677 431.433 87.9687 431.433 80.4482C431.433 70.1067 431.519 63.0984 431.433 59.6799C431.348 57.0311 430.408 56.1753 428.528 55.6623C427.074 55.4066 424.682 55.0639 422.715 54.8083C422.287 54.3804 423.741 51.4741 424.255 51.1333ZM374.938 104.294C376.991 105.917 381.007 106.6 384.597 106.6C389.212 106.6 393.827 105.747 398.272 101.729C402.802 97.6277 405.964 91.3029 405.964 81.2179C405.964 71.5589 402.289 63.6958 394.767 59.0816C390.494 56.431 385.024 55.3214 378.699 55.3214C376.819 55.3214 375.024 55.4066 373.914 55.9188C373.656 56.0901 373.059 56.8589 373.059 57.2858C372.888 58.9955 372.888 72.1572 372.888 79.8499C372.888 87.7983 372.888 98.9095 373.059 100.191C373.059 101.474 373.656 103.439 374.939 104.294H374.938ZM355.537 51.1324C357.161 51.1324 363.4 51.3889 366.392 51.3889C371.777 51.3889 375.623 51.1333 385.793 51.1333C394.34 51.1333 401.519 53.4404 406.647 57.7989C412.886 63.1836 416.135 70.6198 416.135 79.6786C416.135 92.5847 410.237 100.021 404.339 104.294C398.443 108.653 390.751 111.216 379.811 111.216C373.999 111.216 363.999 111.046 355.708 110.96H355.623C355.196 110.191 356.307 107.2 356.99 107.114C359.213 106.858 359.811 106.772 360.923 106.346C362.717 105.661 363.059 104.721 363.316 101.559C363.571 95.6614 363.486 88.5679 363.486 80.5335C363.486 74.8079 363.571 63.6106 363.4 60.0208C363.145 57.0302 361.863 56.2606 359.298 55.7475C358.016 55.4918 356.307 55.1492 353.914 54.8935C353.572 54.2943 355.11 51.6455 355.537 51.1333V51.1324Z" fill="white"/>
<path fill-rule="evenodd" clip-rule="evenodd" d="M252.121 107.627C249.985 107.37 248.446 107.029 246.566 106.174C246.31 106.003 245.882 105.149 245.882 104.806C245.711 101.815 245.711 93.2682 245.711 87.5427C245.711 82.9267 244.943 78.9099 242.976 76.0897C240.668 72.8407 237.336 70.9615 233.062 70.9615C229.302 70.9615 224.259 73.5252 220.071 77.115C219.985 77.2002 219.302 77.7994 219.387 76.8584C219.387 75.9184 219.558 74.0383 219.644 72.7555C219.73 71.5589 219.045 70.9615 219.045 70.9615C216.31 72.3286 208.619 74.1235 205.797 74.3791C203.747 74.8079 203.234 76.7732 205.371 77.4567H205.457C207.763 78.1402 209.302 78.9099 210.498 79.6795C211.353 80.363 211.267 81.3031 211.267 82.0727C211.353 88.4818 211.353 98.3112 211.097 103.696C211.012 105.833 210.413 106.601 208.874 106.943L209.046 106.858C207.849 107.114 206.909 107.37 205.456 107.541C204.943 108.054 204.943 110.789 205.456 111.388C206.396 111.388 211.353 111.131 215.456 111.131C221.097 111.131 224.003 111.388 225.455 111.388C226.054 110.704 226.225 108.14 225.883 107.541C224.259 107.456 223.062 107.286 221.952 106.943C220.413 106.6 219.985 105.833 219.899 104.038C219.73 99.5068 219.73 89.9349 219.73 83.4398C219.73 81.6448 220.242 80.79 220.754 80.2769C222.72 78.5681 225.883 77.3715 228.703 77.3715C231.438 77.3715 233.232 78.2264 234.6 79.3378C236.48 80.8752 237.079 83.098 237.335 84.7216C237.762 88.3966 237.592 95.6614 237.592 101.986C237.592 105.405 237.335 106.26 236.054 106.686C235.455 106.943 233.917 107.286 232.122 107.455C231.524 108.054 231.695 110.704 232.122 111.302C234.6 111.302 237.507 111.046 241.78 111.046C247.078 111.046 250.498 111.302 251.866 111.302C252.292 110.789 252.463 108.311 252.121 107.627V107.627ZM275.796 74.9793C271.267 74.9793 268.446 78.4829 268.446 83.9519C268.446 89.508 270.924 95.918 277.933 95.918C279.129 95.918 281.352 95.4049 282.376 94.2083C284.001 92.6708 285.112 89.5932 285.112 86.3451C285.112 79.2516 281.608 74.9783 275.796 74.9783V74.9793ZM275.198 112.755C273.489 112.755 272.291 113.268 271.523 113.696C267.933 116.002 266.309 118.225 266.309 120.875C266.309 123.353 267.249 125.318 269.301 127.028C271.779 129.164 275.198 130.191 279.556 130.191C288.274 130.191 292.121 125.489 292.121 120.875C292.121 117.626 290.496 115.49 287.164 114.294C284.771 113.268 280.412 112.755 275.198 112.755V112.755ZM275.796 134.977C270.583 134.977 266.821 133.866 263.574 131.387C260.411 128.994 259.044 125.404 259.044 122.926C259.044 122.242 259.216 120.361 260.754 118.652C261.693 117.626 263.746 115.661 268.617 112.328C268.788 112.243 268.873 112.157 268.873 111.985C268.873 111.815 268.702 111.643 268.531 111.559C264.514 110.021 263.318 107.541 262.975 106.174V106.003C262.891 105.49 262.719 104.978 263.489 104.465C264.087 104.038 264.942 103.525 265.881 102.927C267.335 102.071 268.873 101.131 269.813 100.362C269.984 100.191 269.984 100.021 269.984 99.8495C269.984 99.6782 269.813 99.5068 269.642 99.4226C263.66 97.4563 260.669 93.0117 260.669 86.3451C260.669 81.9866 262.634 78.055 266.138 75.5766C268.531 73.6965 274.514 71.3885 278.446 71.3885H278.702C282.719 71.4737 284.941 72.3286 288.103 73.44C289.813 74.0383 291.437 74.2939 293.66 74.2939C296.992 74.2939 298.445 73.2686 299.641 72.0729C299.727 72.2434 299.898 72.6713 299.984 73.7817C300.069 74.8931 299.727 76.5167 298.872 77.7133C298.189 78.6533 296.65 79.3378 295.112 79.3378H294.684C293.146 79.1664 292.461 78.9951 292.461 78.9951L292.121 79.1664C292.035 79.3378 292.121 79.5082 292.206 79.7647L292.292 79.9361C292.462 80.7048 292.804 83.0119 292.804 83.6111C292.804 90.6194 289.984 93.6952 286.992 96.0032C284.086 98.1398 280.754 99.5068 276.993 99.8495C276.907 99.8495 276.567 99.8495 275.796 99.9347C275.369 99.9347 274.771 100.021 274.685 100.021H274.599C273.916 100.191 272.207 101.046 272.207 102.498C272.207 103.78 272.976 105.319 276.651 105.576C277.42 105.661 278.188 105.661 279.044 105.747C283.916 106.088 289.984 106.516 292.804 107.456C296.736 108.908 299.214 112.413 299.214 116.601C299.214 122.927 294.685 128.824 287.164 132.498C283.489 134.122 279.813 134.977 275.796 134.977V134.977ZM324.512 75.4062C322.718 75.4062 321.094 75.8322 319.897 76.6871C316.565 78.7385 314.855 82.8415 314.855 88.8235C314.855 100.021 320.495 107.884 328.53 107.884C330.923 107.884 332.803 107.2 334.427 105.833C336.905 103.78 338.188 99.6782 338.188 93.9517C338.188 82.8415 332.632 75.4053 324.513 75.4053L324.512 75.4062ZM326.051 111.986C311.522 111.986 306.308 101.303 306.308 91.3029C306.308 84.2946 309.129 78.9099 314.769 75.0635C318.787 72.5851 323.573 71.2181 327.846 71.2181C338.957 71.2181 346.735 79.1664 346.735 90.6194C346.735 98.3964 343.658 104.55 337.76 108.311C334.94 110.191 330.068 111.986 326.051 111.986H326.051V111.986ZM173.748 75.4053C171.953 75.4053 170.329 75.8322 169.132 76.6871C165.799 78.7385 164.09 82.8415 164.09 88.8235C164.09 100.021 169.73 107.884 177.764 107.884C180.158 107.884 182.038 107.2 183.662 105.833C186.14 103.78 187.422 99.6782 187.422 93.9517C187.422 82.8415 181.952 75.4053 173.748 75.4053ZM175.286 111.986C160.756 111.986 155.543 101.303 155.543 91.3029C155.543 84.2946 158.363 78.9099 164.003 75.0635C168.021 72.5851 172.807 71.2181 177.081 71.2181C188.192 71.2181 195.969 79.1664 195.969 90.6194C195.969 98.3964 192.892 104.55 186.994 108.311C184.26 110.191 179.388 111.986 175.286 111.986ZM77.596 111.131C77.4247 110.876 77.2533 110.106 77.3395 109.166C77.3395 108.481 77.5108 108.054 77.596 107.884C79.3909 107.627 80.331 107.37 81.3562 107.114C83.0659 106.686 83.7494 105.747 83.8347 103.611C84.0921 98.4825 84.0921 88.7383 84.006 81.9866V81.8153C84.006 81.0465 84.006 80.1056 83.0659 79.4221C81.698 78.5681 80.0744 77.7994 77.9378 77.1993C77.169 76.9446 76.656 76.5167 76.7412 76.0045C76.7412 75.4914 77.2543 74.8931 78.3657 74.7218C81.1858 74.4652 88.5349 72.6713 91.4412 71.3885C91.6126 71.5589 91.8691 72.0729 91.8691 72.7565L91.7839 73.6956C91.6978 74.6366 91.6126 75.748 91.6126 76.8584C91.6126 77.2002 91.9553 77.4567 92.2961 77.4567C92.4674 77.4567 92.6388 77.3715 92.8092 77.2854C98.2791 73.0121 103.236 71.4737 105.8 71.4737C109.989 71.4737 113.237 73.44 115.715 77.5419C115.885 77.7994 116.057 77.8846 116.313 77.8846C116.484 77.8846 116.739 77.7994 116.826 77.6281C121.868 73.7817 126.911 71.4737 130.244 71.4737C138.192 71.4737 142.893 77.3715 142.893 87.3713C142.893 90.1915 142.893 93.8665 142.808 97.2007C142.808 100.191 142.723 102.926 142.723 104.892C142.723 105.319 143.32 106.686 144.26 106.943C145.457 107.541 147.081 107.798 149.218 108.14H149.303C149.475 108.738 149.133 110.96 148.791 111.388C148.278 111.388 147.508 111.388 146.654 111.302C144.491 111.19 142.325 111.132 140.158 111.131C134.86 111.131 132.125 111.216 129.474 111.388C129.305 110.704 129.219 108.653 129.474 108.14C131.013 107.884 131.782 107.627 132.723 107.371C134.433 106.858 134.86 106.088 134.946 103.866C134.946 102.243 135.287 88.3966 134.774 85.0633C134.261 81.6449 131.697 77.6281 126.056 77.6281C123.919 77.6281 120.587 78.4829 117.339 80.9604C117.168 81.1318 116.996 81.5587 116.996 81.8153V81.9014C117.339 83.6954 117.339 85.7478 117.339 88.9097V94.4648C117.339 98.3112 117.252 101.901 117.339 104.635C117.339 106.516 118.45 106.943 119.39 107.286C119.903 107.37 120.244 107.456 120.672 107.541C121.441 107.713 122.21 107.884 123.407 108.14C123.578 108.482 123.578 109.593 123.322 110.533C123.236 111.046 123.064 111.302 122.979 111.388C120.074 111.302 117.082 111.216 112.724 111.216C111.442 111.216 109.219 111.302 107.339 111.302C105.8 111.302 104.347 111.388 103.493 111.388C103.407 111.216 103.236 110.619 103.236 109.678C103.236 108.909 103.407 108.311 103.579 108.14C104.006 108.054 104.347 107.969 104.775 107.969C105.8 107.798 106.655 107.627 107.509 107.456C108.963 107.029 109.475 106.26 109.561 104.379C109.817 100.106 110.074 87.8844 109.475 84.8068C108.45 79.8499 105.63 77.3715 101.099 77.3715C98.4504 77.3715 95.1163 78.6533 92.3822 80.7057C91.9543 81.0465 91.6126 81.9005 91.6126 82.6701V87.7131C91.6126 93.8665 91.6126 101.559 91.6978 104.892C91.7839 105.917 92.1247 107.114 94.091 107.541C94.5189 107.627 95.2024 107.798 96.0572 107.884L97.5947 108.14C97.7669 108.653 97.6808 110.704 97.339 111.388C96.4842 111.388 95.4589 111.302 94.2614 111.302C92.4674 111.216 90.1594 111.131 87.5958 111.131C84.6043 111.131 82.4676 111.216 80.7579 111.302C79.5613 111.131 78.6213 111.131 77.596 111.131V111.131Z" fill="white"/>
<path fill-rule="evenodd" clip-rule="evenodd" d="M32.6392 131.644L29.1355 130.446C29.1355 130.446 29.5634 112.584 23.1525 111.302C18.8801 106.345 23.8379 -98.9488 39.2215 110.618C39.2215 110.618 33.922 113.267 32.9819 117.798C31.9557 122.242 32.6392 131.644 32.6392 131.644V131.644Z" fill="white"/>
<path fill-rule="evenodd" clip-rule="evenodd" d="M32.6392 131.644L29.1355 130.446C29.1355 130.446 29.5634 112.584 23.1525 111.302C18.8801 106.345 23.8379 -98.9488 39.2215 110.618C39.2215 110.618 33.922 113.267 32.9819 117.798C31.9557 122.242 32.6392 131.644 32.6392 131.644V131.644Z" fill="white"/>
<path fill-rule="evenodd" clip-rule="evenodd" d="M34.5202 114.379C34.5202 114.379 65.204 94.2082 58.0235 52.2428C51.1013 21.7322 34.7768 11.7324 32.9819 7.88608C31.0165 5.15112 29.1355 0.365631 29.1355 0.365631L30.4182 85.2337C30.4182 85.3199 27.7685 111.216 34.5211 114.38" fill="white"/>
<path fill-rule="evenodd" clip-rule="evenodd" d="M34.5202 114.379C34.5202 114.379 65.204 94.2082 58.0235 52.2428C51.1013 21.7322 34.7768 11.7324 32.9819 7.88608C31.0165 5.15112 29.1355 0.365631 29.1355 0.365631L30.4182 85.2337C30.4182 85.3199 27.7685 111.216 34.5211 114.38" fill="white"/>
<path fill-rule="evenodd" clip-rule="evenodd" d="M27.3415 115.49C27.3415 115.49 -1.46217 95.8318 0.247524 61.2183C1.87109 26.6038 22.2124 9.59578 26.144 6.51906C28.7085 3.7841 28.7937 2.75791 28.9651 0.0229492C30.76 3.86931 30.4182 57.5433 30.6739 63.8671C31.4426 88.2252 29.3068 110.875 27.3415 115.49Z" fill="white"/>
<path fill-rule="evenodd" clip-rule="evenodd" d="M27.3415 115.49C27.3415 115.49 -1.46217 95.8318 0.247524 61.2183C1.87109 26.6038 22.2124 9.59578 26.144 6.51906C28.7085 3.7841 28.7937 2.75791 28.9651 0.0229492C30.76 3.86931 30.4182 57.5433 30.6739 63.8671C31.4426 88.2252 29.3068 110.875 27.3415 115.49Z" fill="white"/>
</svg>
