<svg width="60" height="132" viewBox="0 0 60 132" fill="none" xmlns="http://www.w3.org/2000/svg">
<path fill-rule="evenodd" clip-rule="evenodd" d="M32.6392 131.644L29.1355 130.446C29.1355 130.446 29.5634 112.584 23.1525 111.302C18.8801 106.345 23.8379 -98.9488 39.2215 110.618C39.2215 110.618 33.922 113.267 32.9819 117.798C31.9557 122.242 32.6392 131.644 32.6392 131.644V131.644Z" fill="white"/>
<path fill-rule="evenodd" clip-rule="evenodd" d="M32.6392 131.644L29.1355 130.446C29.1355 130.446 29.5634 112.584 23.1525 111.302C18.8801 106.345 23.8379 -98.9488 39.2215 110.618C39.2215 110.618 33.922 113.267 32.9819 117.798C31.9557 122.242 32.6392 131.644 32.6392 131.644V131.644Z" fill="white"/>
<path fill-rule="evenodd" clip-rule="evenodd" d="M34.5202 114.379C34.5202 114.379 65.204 94.2082 58.0235 52.2428C51.1013 21.7322 34.7768 11.7324 32.9819 7.88608C31.0165 5.15112 29.1355 0.365631 29.1355 0.365631L30.4182 85.2337C30.4182 85.3199 27.7685 111.216 34.5211 114.38" fill="white"/>
<path fill-rule="evenodd" clip-rule="evenodd" d="M34.5202 114.379C34.5202 114.379 65.204 94.2082 58.0235 52.2428C51.1013 21.7322 34.7768 11.7324 32.9819 7.88608C31.0165 5.15112 29.1355 0.365631 29.1355 0.365631L30.4182 85.2337C30.4182 85.3199 27.7685 111.216 34.5211 114.38" fill="white"/>
<path fill-rule="evenodd" clip-rule="evenodd" d="M27.3415 115.49C27.3415 115.49 -1.46217 95.8318 0.247524 61.2183C1.87109 26.6038 22.2124 9.59578 26.144 6.51906C28.7085 3.7841 28.7937 2.75791 28.9651 0.0229492C30.76 3.86931 30.4182 57.5433 30.6739 63.8671C31.4426 88.2252 29.3068 110.875 27.3415 115.49Z" fill="white"/>
<path fill-rule="evenodd" clip-rule="evenodd" d="M27.3415 115.49C27.3415 115.49 -1.46217 95.8318 0.247524 61.2183C1.87109 26.6038 22.2124 9.59578 26.144 6.51906C28.7085 3.7841 28.7937 2.75791 28.9651 0.0229492C30.76 3.86931 30.4182 57.5433 30.6739 63.8671C31.4426 88.2252 29.3068 110.875 27.3415 115.49Z" fill="white"/>
</svg>
