<svg width="36" height="25" viewBox="0 0 36 25" fill="none" xmlns="http://www.w3.org/2000/svg">
<path d="M9.9664 6.99647H17.1335V7.56778H10.6234V11.8676H16.7453V12.4389H10.6234V17.1597H17.2082V17.731H9.9664V6.99647ZM17.7756 6.99647H18.5371L21.9116 11.7172L25.3608 6.99647L30.0523 1L22.3447 12.2134L26.3165 17.731H25.5251L21.9116 12.7095L18.2833 17.731H17.5068L21.5085 12.2134L17.7756 6.99647ZM26.6002 7.56778V6.99647H34.7677V7.56778H31.005V17.731H30.348V7.56778H26.6002ZM1 6.99647H1.82124L13.1456 23.9914L8.46578 17.731L1.68685 7.80833L1.65699 17.731H1V6.99647Z" fill="white"/>
<path d="M9.9664 6.99647V6.49647H9.4664V6.99647H9.9664ZM17.1335 6.99647H17.6335V6.49647H17.1335V6.99647ZM17.1335 7.56778V8.06778H17.6335V7.56778H17.1335ZM10.6234 7.56778V7.06778H10.1234V7.56778H10.6234ZM10.6234 11.8676H10.1234V12.3676H10.6234V11.8676ZM16.7453 11.8676H17.2453V11.3676H16.7453V11.8676ZM16.7453 12.4389V12.9389H17.2453V12.4389H16.7453ZM10.6234 12.4389V11.9389H10.1234V12.4389H10.6234ZM10.6234 17.1597H10.1234V17.6597H10.6234V17.1597ZM17.2082 17.1597H17.7082V16.6597H17.2082V17.1597ZM17.2082 17.731V18.231H17.7082V17.731H17.2082ZM9.9664 17.731H9.4664V18.231H9.9664V17.731ZM17.7756 6.99647V6.49647H16.803L17.369 7.28743L17.7756 6.99647ZM18.5371 6.99647L18.9439 6.70571L18.7943 6.49647H18.5371V6.99647ZM21.9116 11.7172L21.5049 12.008L21.9072 12.5708L22.3154 12.0122L21.9116 11.7172ZM25.3608 6.99647L24.967 6.68838L24.962 6.69486L24.9571 6.7015L25.3608 6.99647ZM30.0523 1L30.4643 1.28323L29.6585 0.691904L30.0523 1ZM22.3447 12.2134L21.9326 11.9302L21.7334 12.22L21.9389 12.5055L22.3447 12.2134ZM26.3165 17.731V18.231H27.2924L26.7223 17.4389L26.3165 17.731ZM25.5251 17.731L25.1192 18.023L25.2689 18.231H25.5251V17.731ZM21.9116 12.7095L22.3175 12.4175L21.9125 11.8546L21.5064 12.4167L21.9116 12.7095ZM18.2833 17.731V18.231H18.5389L18.6885 18.0238L18.2833 17.731ZM17.5068 17.731L17.1021 17.4374L16.5266 18.231H17.5068V17.731ZM21.5085 12.2134L21.9133 12.5069L22.1247 12.2154L21.9151 11.9224L21.5085 12.2134ZM26.6002 7.56778H26.1002V8.06778H26.6002V7.56778ZM26.6002 6.99647V6.49647H26.1002V6.99647H26.6002ZM34.7677 6.99647H35.2677V6.49647H34.7677V6.99647ZM34.7677 7.56778V8.06778H35.2677V7.56778H34.7677ZM31.005 7.56778V7.06778H30.505V7.56778H31.005ZM31.005 17.731V18.231H31.505V17.731H31.005ZM30.348 17.731H29.848V18.231H30.348V17.731ZM30.348 7.56778H30.848V7.06778H30.348V7.56778ZM1 6.99647V6.49647H0.5V6.99647H1ZM1.82124 6.99647L2.23732 6.71922L2.0889 6.49647H1.82124V6.99647ZM13.1456 23.9914L12.7451 24.2907L13.5617 23.7141L13.1456 23.9914ZM8.46578 17.731L8.05293 18.013L8.05893 18.0218L8.06531 18.0303L8.46578 17.731ZM1.68685 7.80833L2.0997 7.52627L1.1917 6.19718L1.18685 7.80682L1.68685 7.80833ZM1.65699 17.731V18.231H2.15549L2.15699 17.7325L1.65699 17.731ZM1 17.731H0.5V18.231H1V17.731ZM9.9664 7.49647H17.1335V6.49647H9.9664V7.49647ZM16.6335 6.99647V7.56778H17.6335V6.99647H16.6335ZM17.1335 7.06778H10.6234V8.06778H17.1335V7.06778ZM10.1234 7.56778V11.8676H11.1234V7.56778H10.1234ZM10.6234 12.3676H16.7453V11.3676H10.6234V12.3676ZM16.2453 11.8676V12.4389H17.2453V11.8676H16.2453ZM16.7453 11.9389H10.6234V12.9389H16.7453V11.9389ZM10.1234 12.4389V17.1597H11.1234V12.4389H10.1234ZM10.6234 17.6597H17.2082V16.6597H10.6234V17.6597ZM16.7082 17.1597V17.731H17.7082V17.1597H16.7082ZM17.2082 17.231H9.9664V18.231H17.2082V17.231ZM10.4664 17.731V6.99647H9.4664V17.731H10.4664ZM17.7756 7.49647H18.5371V6.49647H17.7756V7.49647ZM18.1304 7.28724L21.5049 12.008L22.3184 11.4265L18.9439 6.70571L18.1304 7.28724ZM22.3154 12.0122L25.7646 7.29145L24.9571 6.7015L21.5079 11.4223L22.3154 12.0122ZM25.7546 7.30457L30.4461 1.3081L29.6585 0.691904L24.967 6.68838L25.7546 7.30457ZM29.6403 0.716775L21.9326 11.9302L22.7567 12.4966L30.4643 1.28323L29.6403 0.716775ZM21.9389 12.5055L25.9107 18.0231L26.7223 17.4389L22.7505 11.9213L21.9389 12.5055ZM26.3165 17.231H25.5251V18.231H26.3165V17.231ZM25.9309 17.4389L22.3175 12.4175L21.5058 13.0016L25.1192 18.023L25.9309 17.4389ZM21.5064 12.4167L17.878 17.4381L18.6885 18.0238L22.3169 13.0024L21.5064 12.4167ZM18.2833 17.231H17.5068V18.231H18.2833V17.231ZM17.9116 18.0245L21.9133 12.5069L21.1037 11.9198L17.1021 17.4374L17.9116 18.0245ZM21.9151 11.9224L18.1822 6.70552L17.369 7.28743L21.1019 12.5043L21.9151 11.9224ZM27.1002 7.56778V6.99647H26.1002V7.56778H27.1002ZM26.6002 7.49647H34.7677V6.49647H26.6002V7.49647ZM34.2677 6.99647V7.56778H35.2677V6.99647H34.2677ZM34.7677 7.06778H31.005V8.06778H34.7677V7.06778ZM30.505 7.56778V17.731H31.505V7.56778H30.505ZM31.005 17.231H30.348V18.231H31.005V17.231ZM30.848 17.731V7.56778H29.848V17.731H30.848ZM30.348 7.06778H26.6002V8.06778H30.348V7.06778ZM1 7.49647H1.82124V6.49647H1V7.49647ZM1.40515 7.27373L12.7295 24.2686L13.5617 23.7141L2.23732 6.71922L1.40515 7.27373ZM13.5461 23.692L8.86625 17.4316L8.06531 18.0303L12.7451 24.2907L13.5461 23.692ZM8.87863 17.4489L2.0997 7.52627L1.274 8.09038L8.05293 18.013L8.87863 17.4489ZM1.18685 7.80682L1.15699 17.7295L2.15699 17.7325L2.18685 7.80983L1.18685 7.80682ZM1.65699 17.231H1V18.231H1.65699V17.231ZM1.5 17.731V6.99647H0.5V17.731H1.5Z" fill="white"/>
</svg>
