<?xml version="1.0"?>
<svg xmlns="http://www.w3.org/2000/svg" xmlns:xlink="http://www.w3.org/1999/xlink" version="1.1" viewBox="0 0 192 192" width="100px" height="100px"><g fill="none" fill-rule="nonzero" stroke="none" stroke-width="1" stroke-linecap="butt" stroke-linejoin="miter" stroke-miterlimit="10" stroke-dasharray="" stroke-dashoffset="0" font-family="none" font-weight="none" font-size="none" text-anchor="none" style="mix-blend-mode: normal"><path d="M0,192v-192h192v192z" fill="none"/><g fill="#ffffff"><g id="surface1"><path d="M96,46.08c-51.675,0 -92.16,21.93 -92.16,49.92c0,27.99 40.485,49.92 92.16,49.92c51.675,0 92.16,-21.93 92.16,-49.92c0,-27.99 -40.485,-49.92 -92.16,-49.92zM86.43,61.44h10.065l-3.195,15.36h8.985c5.7,0 9.525,0.795 11.7,2.79c2.13,1.965 2.775,5.19 1.92,9.585l-3.99,18.345h-10.23l3.675,-16.965c0.45,-2.325 0.27,-3.945 -0.51,-4.8c-0.78,-0.855 -2.49,-1.275 -5.055,-1.275h-8.055l-4.86,23.04h-10.08zM42.24,76.8h20.475c9.765,0 15.675,6.54 13.365,16.305c-2.685,11.34 -9.885,14.415 -23.115,14.415h-6.33l-2.01,11.52h-10.17zM122.88,76.8h20.475c9.765,0 15.675,6.54 13.365,16.305c-2.685,11.34 -9.885,14.415 -23.115,14.415h-6.33l-2.01,11.52h-10.17zM50.955,84.48l-2.895,15.36h6.57c5.685,0 10.965,-0.645 11.85,-9.12c0.33,-3.285 -1.035,-6.24 -7.605,-6.24zM131.595,84.48l-2.895,15.36h6.57c5.685,0 10.965,-0.645 11.85,-9.12c0.33,-3.285 -1.035,-6.24 -7.605,-6.24z"/></g></g></g></svg>
