<svg width="30" height="27" viewBox="0 0 30 27" fill="none" xmlns="http://www.w3.org/2000/svg">
<path d="M13.0205 10.5776V15.3004L9.05396 13.8375" stroke="white" stroke-width="0.214" stroke-linejoin="bevel"/>
<path d="M5.02905 15.322V10.5991L9.05385 9.11464" stroke="white" stroke-width="0.214" stroke-linejoin="bevel"/>
<path d="M5.02905 15.322L8.99514 16.7845L13.0199 15.3004" stroke="white" stroke-width="0.214" stroke-linejoin="bevel"/>
<path d="M5.02905 10.5991L8.99514 12.0616L13.0199 10.5776L9.05385 9.11464L5.02905 10.5991Z" stroke="white" stroke-width="0.214" stroke-linejoin="bevel"/>
<path d="M8.99512 12.0616V16.7845L13.0199 15.3004V10.5776L8.99512 12.0616Z" fill="white" stroke="#CCCCCC" stroke-width="0.214" stroke-linejoin="bevel"/>
<path d="M5.02905 10.5991L8.99514 12.0616V16.7845L5.02905 15.322V10.5991Z" stroke="white" stroke-width="0.214" stroke-linejoin="bevel"/>
<path d="M13.0374 5.81291L17.0039 7.27541V11.9983L13.0374 10.5358V5.81291Z" fill="#E9E9FF" stroke="#CCCCCC" stroke-width="0.214" stroke-linejoin="bevel"/>
<path d="M13.0375 10.5358V5.81291L9.0127 7.29696L9 8.99998" stroke="white" stroke-width="0.214" stroke-linejoin="bevel"/>
<path d="M9.0127 12.0198L12.9788 13.4823L17.004 11.9983L13.0375 10.5358L9.0127 12.0198Z" fill="#AFAFDE" stroke="#CCCCCC" stroke-width="0.214" stroke-linejoin="bevel"/>
<path d="M9.0127 7.29696L12.9788 8.75946L17.004 7.27541L13.0375 5.81291L9.0127 7.29696Z" stroke="white" stroke-width="0.214" stroke-linejoin="bevel"/>
<path d="M12.9788 8.75946V13.4827L17.004 11.9987V7.27541L12.9788 8.75946Z" fill="white" stroke="#CCCCCC" stroke-width="0.214" stroke-linejoin="bevel"/>
<path d="M12.9788 8.75946V13.4827L9.0127 12.0202" stroke="white" stroke-width="0.214" stroke-linejoin="bevel"/>
<path d="M5.07031 15.3521L9.0364 16.8146" stroke="white" stroke-width="0.214" stroke-linejoin="bevel"/>
<path d="M1.04517 21.559V16.8362L5.06996 15.3521" stroke="white" stroke-width="0.214" stroke-linejoin="bevel"/>
<path d="M1.04517 21.559L5.0121 23.0215" stroke="white" stroke-width="0.214" stroke-linejoin="bevel"/>
<path d="M1.04517 16.8362L5.01168 18.2987L9.03647 16.8146L5.07039 15.3521L1.04517 16.8362Z" stroke="white" stroke-width="0.214" stroke-linejoin="bevel"/>
<path d="M5.01172 23.0215V18.2987L9.03652 16.8146" stroke="white" stroke-width="0.214" stroke-linejoin="bevel"/>
<path d="M1.04517 16.8362L5.01168 18.2987V23.0215L1.04517 21.559V16.8362Z" stroke="white" stroke-width="0.214" stroke-linejoin="bevel"/>
<path d="M9.05396 16.8198L13.0205 18.2823V23.0052" stroke="white" stroke-width="0.214" stroke-linejoin="bevel"/>
<path d="M5.02905 23.0267V18.3039L9.05385 16.8198" stroke="white" stroke-width="0.214" stroke-linejoin="bevel"/>
<path d="M5.02905 23.0267L8.99514 24.4892" stroke="white" stroke-width="0.214" stroke-linejoin="bevel"/>
<path d="M5.02905 18.3039L8.99514 19.7664L13.0199 18.2823L9.05385 16.8198L5.02905 18.3039Z" stroke="white" stroke-width="0.214" stroke-linejoin="bevel"/>
<path d="M8.99512 24.4892V19.7664L13.0199 18.2823" stroke="white" stroke-width="0.214" stroke-linejoin="bevel"/>
<path d="M5.02905 18.3039L8.99514 19.7664V24.4892L5.02905 23.0267V18.3039Z" stroke="white" stroke-width="0.214" stroke-linejoin="bevel"/>
<path d="M9.05396 12.05L13.0205 13.5125V18.2353L9.05396 16.7728V12.05Z" stroke="white" stroke-width="0.214" stroke-linejoin="bevel"/>
<path d="M9.05396 16.7728V12.05" stroke="white" stroke-width="0.214" stroke-linejoin="bevel"/>
<path d="M5.02905 18.2569L8.99514 19.7198L13.0199 18.2353L9.05385 16.7728L5.02905 18.2569Z" stroke="white" stroke-width="0.214" stroke-linejoin="bevel"/>
<path d="M13.02 13.5125L9.05396 12.05" stroke="white" stroke-width="0.214" stroke-linejoin="bevel"/>
<path d="M8.99512 14.997V19.7198L13.0199 18.2353V13.5129L8.99512 14.997Z" stroke="white" stroke-width="0.214" stroke-linejoin="bevel"/>
<path d="M8.99512 14.997V19.7198" stroke="white" stroke-width="0.214" stroke-linejoin="bevel"/>
<path d="M24.9885 13.8845L28.955 15.347V20.0698" stroke="white" stroke-width="0.214" stroke-linejoin="bevel"/>
<path d="M20.9636 15.3685V20.0914L24.9884 18.6073V13.8845L20.9636 15.3685Z" fill="#353564" stroke="#CCCCCC" stroke-width="0.214" stroke-linejoin="bevel"/>
<path d="M20.9636 20.0914L24.9297 21.5543L28.9545 20.0698" stroke="white" stroke-width="0.214" stroke-linejoin="bevel"/>
<path d="M20.9636 15.3685L24.9297 16.8314L28.9545 15.347L24.9884 13.8845L20.9636 15.3685Z" fill="#F7F7F4" stroke="#CCCCCC" stroke-width="0.214" stroke-linejoin="bevel"/>
<path d="M24.9297 16.8314V21.5543L28.9545 20.0698V15.347L24.9297 16.8314Z" stroke="white" stroke-width="0.214" stroke-linejoin="bevel"/>
<path d="M20.9636 15.3685L24.9297 16.8314V21.5543L20.9636 20.0914V15.3685Z" fill="#EFEEEA" stroke="#CCCCCC" stroke-width="0.214" stroke-linejoin="bevel"/>
<path d="M21.0034 15.3514L24.9696 16.814V21.5368L21.0034 20.0742V15.3514Z" fill="#E9E9FF" stroke="#CCCCCC" stroke-width="0.328" stroke-linejoin="bevel"/>
<path d="M16.9785 16.836V21.5588L21.0035 20.0746V15.3521L16.9785 16.836Z" fill="#353564" stroke="#CCCCCC" stroke-width="0.328" stroke-linejoin="bevel"/>
<path d="M16.9785 21.5584L20.9447 23.021L24.9697 21.5368L21.0035 20.0742L16.9785 21.5584Z" fill="#AFAFDE" stroke="#CCCCCC" stroke-width="0.328" stroke-linejoin="bevel"/>
<path d="M16.9785 16.8356L20.9447 18.2982L24.9697 16.814L21.0035 15.3514L16.9785 16.8356Z" fill="white" stroke="white" stroke-width="0.328" stroke-linejoin="bevel"/>
<path d="M20.9446 18.2982V23.021L24.9696 21.5368V16.8143L20.9446 18.2982Z" fill="#E5E5E5" stroke="white" stroke-width="0.328" stroke-linejoin="bevel"/>
<path d="M16.9785 16.8356L20.9447 18.2982V23.021L16.9785 21.5584V16.8356Z" fill="#EFEEEA" stroke="#CCCCCC" stroke-width="0.328" stroke-linejoin="bevel"/>
<path d="M17.0212 16.8198L20.9873 18.2823V23.0052L17.0212 21.5427V16.8198Z" fill="#E9E9FF" stroke="#CCCCCC" stroke-width="0.214" stroke-linejoin="bevel"/>
<path d="M12.9961 18.3039L16.9626 19.7664L20.9874 18.2823L17.0213 16.8198L12.9961 18.3039Z" fill="#F7F7F4" stroke="#CCCCCC" stroke-width="0.214" stroke-linejoin="bevel"/>
<path d="M16.9626 19.7664V24.4892L20.9874 23.0051V18.2823L16.9626 19.7664Z" fill="#E5E5E5" stroke="white" stroke-width="0.214" stroke-linejoin="bevel"/>
<path d="M12.9961 18.3039L16.9626 19.7664V24.4892" stroke="white" stroke-width="0.214" stroke-linejoin="bevel"/>
<path d="M13.0376 18.2875L17.0041 19.75V24.4728" stroke="white" stroke-width="0.214" stroke-linejoin="bevel"/>
<path d="M9.0127 24.4944L12.9788 25.9569L17.0036 24.4728" stroke="white" stroke-width="0.214" stroke-linejoin="bevel"/>
<path d="M9.0127 19.7715L12.9788 21.234L17.0036 19.75L13.0375 18.2875L9.0127 19.7715Z" fill="#F7F7F4" stroke="#CCCCCC" stroke-width="0.214" stroke-linejoin="bevel"/>
<path d="M12.9788 21.234V25.9569L17.0036 24.4728V19.75L12.9788 21.234Z" stroke="white" stroke-width="0.214" stroke-linejoin="bevel"/>
<path d="M24.9885 9.11464L28.955 10.5776V15.3004L24.9885 13.8375V9.11464Z" fill="#E9E9FF" stroke="#CCCCCC" stroke-width="0.214" stroke-linejoin="bevel"/>
<path d="M20.9636 10.5991V15.322L24.9884 13.8375V9.11464L20.9636 10.5991Z" fill="#353564" stroke="#CCCCCC" stroke-width="0.214" stroke-linejoin="bevel"/>
<path d="M20.9636 15.322L24.9297 16.7845L28.9545 15.3004L24.9884 13.8375L20.9636 15.322Z" fill="#AFAFDE" stroke="#CCCCCC" stroke-width="0.214" stroke-linejoin="bevel"/>
<path d="M20.9636 10.5991L24.9297 12.0616L28.9545 10.5776L24.9884 9.11464L20.9636 10.5991Z" fill="#F7F7F4" stroke="#CCCCCC" stroke-width="0.214" stroke-linejoin="bevel"/>
<path d="M24.9297 12.0616V16.7845L28.9545 15.3004V10.5776L24.9297 12.0616Z" fill="#E5E5E5" stroke="#E5E5E5" stroke-width="0.214" stroke-linejoin="bevel"/>
<path d="M20.9636 10.5991L24.9297 12.0616V16.7845L20.9636 15.322V10.5991Z" fill="white" stroke="white" stroke-width="0.214" stroke-linejoin="bevel"/>
<path d="M24.9885 4.34482L28.955 5.80775V10.5302L24.9885 9.06766V4.34482Z" fill="#E9E9FF" stroke="#CCCCCC" stroke-width="0.214" stroke-linejoin="bevel"/>
<path d="M20.9636 5.8293V10.5521L24.9884 9.06809V4.34482L20.9636 5.8293Z" fill="#353564" stroke="#CCCCCC" stroke-width="0.214" stroke-linejoin="bevel"/>
<path d="M20.9636 10.5522L24.9297 12.0147L28.9545 10.5306L24.9884 9.0681L20.9636 10.5522Z" fill="#AFAFDE" stroke="#CCCCCC" stroke-width="0.214" stroke-linejoin="bevel"/>
<path d="M20.9636 5.82988L24.9297 7.29238L28.9545 5.80833L24.9884 4.34583L20.9636 5.82988Z" fill="#C4C4C4" stroke="white" stroke-width="0.214" stroke-linejoin="bevel"/>
<path d="M24.9297 7.29181V12.0147L28.9545 10.5306V5.80775L24.9297 7.29181Z" fill="#E5E5E5" stroke="white" stroke-width="0.214" stroke-linejoin="bevel"/>
<path d="M20.9636 5.8293L24.9297 7.2918V12.0146L20.9636 10.5521V5.8293Z" fill="#EFEEEA" stroke="#CCCCCC" stroke-width="0.214" stroke-linejoin="bevel"/>
<path d="M21.0046 10.5823L24.9707 12.0448V16.7676L21.0046 15.3051V10.5823Z" stroke="white" stroke-width="0.214" stroke-linejoin="bevel"/>
<path d="M16.9805 12.0668V16.7896L21.0053 15.3051V10.5823L16.9805 12.0668Z" stroke="white" stroke-width="0.214" stroke-linejoin="bevel"/>
<path d="M16.98 16.7896L20.9461 18.2521L24.9709 16.7676L21.0048 15.3051L16.98 16.7896Z" stroke="white" stroke-width="0.214" stroke-linejoin="bevel"/>
<path d="M16.9805 12.0668L20.9466 13.5293L24.9714 12.0448L21.0053 10.5823L16.9805 12.0668Z" stroke="white" stroke-width="0.214" stroke-linejoin="bevel"/>
<path d="M20.946 13.5293V18.2521L24.9708 16.7676V12.0448L20.946 13.5293Z" fill="#E5E5E5" stroke="white" stroke-width="0.214" stroke-linejoin="bevel"/>
<path d="M16.9799 12.0668L20.946 13.5293V18.2521L16.9795 16.7896L16.9799 12.0668Z" stroke="white" stroke-width="0.214" stroke-linejoin="bevel"/>
<path d="M21.0046 5.81291L24.9707 7.27541V11.9983L21.0046 10.5358V5.81291Z" fill="white" stroke="white" stroke-width="0.214" stroke-linejoin="bevel"/>
<path d="M16.9805 7.29696V12.0198L21.0053 10.5358V5.81291L16.9805 7.29696Z" fill="white" stroke="white" stroke-width="0.214" stroke-linejoin="bevel"/>
<path d="M16.98 12.0198L20.9461 13.4823L24.9709 11.9983L21.0048 10.5358L16.98 12.0198Z" fill="white" stroke="white" stroke-width="0.214" stroke-linejoin="bevel"/>
<path d="M16.9805 7.29696L20.9466 8.75946L24.9714 7.27541L21.0053 5.81291L16.9805 7.29696Z" fill="white" stroke="white" stroke-width="0.214" stroke-linejoin="bevel"/>
<path d="M20.946 8.75946V13.4827L24.9708 11.9987V7.27541L20.946 8.75946Z" fill="white"/>
<path d="M16.9799 7.29697L20.946 8.75947V13.4827L16.9795 12.0202L16.9799 7.29697Z" fill="white" stroke="white" stroke-width="0.214" stroke-linejoin="bevel"/>
<path d="M21.0046 1.04309L24.9707 2.50559V7.22844L21.0046 5.76594V1.04309Z" fill="white" stroke="white" stroke-width="0.214" stroke-linejoin="bevel"/>
<path d="M16.9805 2.52714V7.24999L21.0053 5.76594V1.04309L16.9805 2.52714Z" fill="white" stroke="white" stroke-width="0.214" stroke-linejoin="bevel"/>
<path d="M16.98 7.24998L20.9461 8.71248L24.9709 7.22843L21.0048 5.76593L16.98 7.24998Z" fill="white" stroke="white" stroke-width="0.214" stroke-linejoin="bevel"/>
<path d="M16.9805 2.52714L20.9466 3.98964L24.9714 2.50559L21.0053 1.04309L16.9805 2.52714Z" fill="#C4C4C4" stroke="white" stroke-width="0.214" stroke-linejoin="bevel"/>
<path d="M20.946 3.98964V8.71248L24.9708 7.22843V2.50558L20.946 3.98964Z" fill="white" stroke="white" stroke-width="0.214" stroke-linejoin="bevel"/>
<path d="M16.9799 2.52715L20.946 3.98965V8.71249L16.9795 7.24999L16.9799 2.52715Z" fill="white" stroke="white" stroke-width="0.214" stroke-linejoin="bevel"/>
<path d="M17.0212 12.05L20.9873 13.5125V18.2353L17.0212 16.7728V12.05Z" fill="#E9E9FF" stroke="white" stroke-width="0.214" stroke-linejoin="bevel"/>
<path d="M12.9961 13.5345V18.2569L17.0209 16.7728V12.05L12.9961 13.5345Z" fill="#353564" stroke="white" stroke-width="0.214" stroke-linejoin="bevel"/>
<path d="M12.9961 18.2569L16.9626 19.7198L20.9874 18.2353L17.0213 16.7728L12.9961 18.2569Z" fill="#AFAFDE" stroke="white" stroke-width="0.214" stroke-linejoin="bevel"/>
<path d="M12.9961 13.5345L16.9626 14.997L20.9874 13.5125L17.0213 12.05L12.9961 13.5345Z" fill="#F7F7F4" stroke="white" stroke-width="0.214" stroke-linejoin="bevel"/>
<path d="M16.9626 14.997V19.7198L20.9874 18.2353V13.5129L16.9626 14.997Z" fill="#E6E6E6" stroke="white" stroke-width="0.214" stroke-linejoin="bevel"/>
<path d="M12.9961 13.5345L16.9626 14.997V19.7198L12.9961 18.2569V13.5345Z" fill="#EFEEEA" stroke="white" stroke-width="0.214" stroke-linejoin="bevel"/>
<path d="M17.0212 7.28015L20.9873 8.74308V13.4655L17.0212 12.0026V7.28015Z" fill="white" stroke="white" stroke-width="0.214" stroke-linejoin="bevel"/>
<path d="M12.9961 8.76463V13.487L17.0209 12.0026V7.28015L12.9961 8.76463Z" fill="white" stroke="white" stroke-width="0.214" stroke-linejoin="bevel"/>
<path d="M12.9961 13.487L16.9626 14.95L20.9874 13.4659L17.0213 12.003L12.9961 13.487Z" fill="white" stroke="white" stroke-width="0.214" stroke-linejoin="bevel"/>
<path d="M12.9961 8.76463L16.9626 10.2271L20.9874 8.74308L17.0213 7.28015L12.9961 8.76463Z" fill="white" stroke="white" stroke-width="0.214" stroke-linejoin="bevel"/>
<path d="M16.9626 10.2271V14.95L20.9874 13.4659V8.74309L16.9626 10.2271Z" fill="white"/>
<path d="M12.9961 8.76463L16.9626 10.2271V14.95L12.9961 13.4875V8.76463Z" fill="white" stroke="white" stroke-width="0.214" stroke-linejoin="bevel"/>
<path d="M13.0376 13.5172L17.0041 14.9802V19.703L13.0376 18.2405V13.5172Z" fill="white" stroke="white" stroke-width="0.214" stroke-linejoin="bevel"/>
<path d="M9.0127 15.0017V19.7246L13.0375 18.2405V13.5172L9.0127 15.0017Z" fill="white" stroke="white" stroke-width="0.214" stroke-linejoin="bevel"/>
<path d="M9.0127 19.7245L12.9788 21.187L17.0036 19.703L13.0375 18.2405L9.0127 19.7245Z" fill="white" stroke="white" stroke-width="0.214" stroke-linejoin="bevel"/>
<path d="M9.0127 15.0023L12.9788 16.4648L17.0036 14.9807L13.0375 13.5182L9.0127 15.0023Z" fill="white" stroke="white" stroke-width="0.214" stroke-linejoin="bevel"/>
<path d="M12.9788 16.4642V21.1871L17.0036 19.703V14.9802L12.9788 16.4642Z" fill="white"/>
<path d="M9.0127 15.0017L12.9788 16.4642V21.1871L9.0127 19.7246V15.0017Z" fill="#C4C4C4" stroke="white" stroke-width="0.214" stroke-linejoin="bevel"/>
<path d="M13.0376 8.74783L17.0041 10.2103V14.9332L13.0376 13.4707V8.74783Z" fill="white" stroke="white" stroke-width="0.214" stroke-linejoin="bevel"/>
<path d="M9.0127 10.2323V14.9552L13.0375 13.4707V8.74783L9.0127 10.2323Z" fill="white" stroke="white" stroke-width="0.214" stroke-linejoin="bevel"/>
<path d="M9.0127 14.9552L12.9788 16.4177L17.0036 14.9332L13.0375 13.4707L9.0127 14.9552Z" fill="white" stroke="white" stroke-width="0.214" stroke-linejoin="bevel"/>
<path d="M9.0127 10.2323L12.9788 11.6948L17.0036 10.2103L13.0375 8.74783L9.0127 10.2323Z" fill="#C4C4C4" stroke="white" stroke-width="0.214" stroke-linejoin="bevel"/>
<path d="M12.9788 11.6948V16.4177L17.0036 14.9332V10.2103L12.9788 11.6948Z" fill="white"/>
<path d="M9.0127 10.2323L12.9788 11.6948V16.4177L9.0127 14.9552V10.2323Z" fill="#C4C4C4" stroke="white" stroke-width="0.214" stroke-linejoin="bevel"/>
<path d="M17.0198 2.51018L20.9863 3.97273V8.69552L17.0198 7.23297V2.51018Z" fill="white" stroke="white" stroke-width="0.328" stroke-linejoin="bevel"/>
<path d="M12.9949 3.99436V8.71716L17.0198 7.23297V2.51018L12.9949 3.99436Z" fill="white" stroke="white" stroke-width="0.328" stroke-linejoin="bevel"/>
<path d="M12.9949 8.71716L16.9613 10.1797L20.9864 8.69552L17.0198 7.23297L12.9949 8.71716Z" fill="white" stroke="white" stroke-width="0.328" stroke-linejoin="bevel"/>
<path d="M12.9949 3.99436L16.9613 5.45691L20.9864 3.97273L17.0198 2.51018L12.9949 3.99436Z" fill="#C4C4C4" stroke="white" stroke-width="0.328" stroke-linejoin="bevel"/>
<path d="M16.9612 5.4569V10.1797L20.9862 8.69551V3.97272L16.9612 5.4569Z" fill="white" stroke="white" stroke-width="0.328" stroke-linejoin="bevel"/>
<path d="M12.9949 3.99437L16.9613 5.45692V10.1797L12.9949 8.71717V3.99437Z" fill="#C4C4C4" stroke="white" stroke-width="0.328" stroke-linejoin="bevel"/>
</svg>
