<svg width="102" height="106" viewBox="0 0 102 106" fill="none" xmlns="http://www.w3.org/2000/svg">
<path fill-rule="evenodd" clip-rule="evenodd" d="M85.6738 28.2676C85.6464 29.8975 85.4209 31.3773 85.1819 32.9219C84.9245 34.5831 84.6585 36.3006 84.5916 38.3855C84.5256 40.4133 84.78 42.5215 85.026 44.5606L85.0264 44.5643C85.5242 48.6849 86.0349 52.9271 84.0579 57.113C83.7295 56.5341 83.437 55.9357 83.182 55.3213C82.9362 54.7287 82.4026 53.7767 81.6636 52.4592L81.6635 52.4591C78.7889 47.3301 72.0575 35.3196 75.5035 30.4186C76.5299 28.9599 79.1349 27.46 85.6738 28.2676ZM77.7477 0.653408C87.3314 0.86391 94.9124 4.43082 100.28 11.2545C104.396 16.4884 99.8633 40.3037 86.7402 60.8493C86.6082 60.6824 86.4756 60.516 86.3422 60.3501L86.176 60.1436C89.5672 54.5718 88.9041 49.059 88.3138 44.1714C88.0712 42.1656 87.8422 40.2711 87.9005 38.4914C87.9607 36.6054 88.2114 34.9875 88.454 33.4233C88.7518 31.4957 89.055 29.5011 88.9715 27.1498C89.0339 26.9031 89.0591 26.6117 89.0263 26.2658C88.8129 24.0111 86.2254 17.2629 80.9516 11.1553C78.0667 7.81449 73.8598 4.07596 68.1156 1.55441C70.5863 1.04491 73.9649 0.569833 77.7477 0.653408ZM24.1209 72.6173C21.4717 75.7864 19.642 75.1805 19.0392 74.9809L19.0384 74.9807C15.1167 73.6792 10.5661 65.4325 6.55417 52.3555C3.0826 41.0403 1.05393 29.662 0.89311 26.4714C0.386391 16.3807 2.84497 9.34834 8.20101 5.56914C16.9177 -0.580553 31.2486 3.10032 37.0072 4.96713C36.9704 5.00329 36.933 5.03838 36.8955 5.07348C36.8487 5.11734 36.8019 5.1612 36.7565 5.20713C27.3067 14.7016 27.5309 30.9232 27.5543 31.9149C27.5534 32.2921 27.5848 32.824 27.6279 33.553L27.6297 33.5842L27.6298 33.5851C27.7924 36.3138 28.095 41.3913 27.2865 47.1412C26.5354 52.4851 28.1913 57.7155 31.8286 61.4916C32.2019 61.8783 32.5942 62.2465 33.0042 62.5946C31.3852 64.3197 27.8665 68.1347 24.1209 72.6173ZM34.2189 59.2127C31.2873 56.1691 29.9558 51.9358 30.5654 47.5971C31.4189 41.5225 31.104 36.2318 30.9346 33.3893L30.9309 33.3276C30.9087 32.9555 30.8891 32.6287 30.8776 32.3681C32.258 31.1502 38.6554 27.7402 43.2176 28.7802C45.2993 29.2544 46.5679 30.6649 47.0953 33.0908C49.8246 45.6501 47.4567 50.885 45.5539 55.0918L45.5536 55.0925C45.1614 55.9591 44.7908 56.7783 44.4745 57.6257L44.2293 58.2808L44.2251 58.2919L44.225 58.2922C43.6058 59.9442 43.0299 61.4806 42.6727 62.9396C39.556 62.9307 36.5243 61.606 34.2189 59.2122V59.2127ZM34.6973 76.1511C33.7872 75.925 32.9687 75.5322 32.4885 75.2063C32.8896 75.0186 33.6034 74.763 34.8415 74.5091C40.8327 73.2823 41.7581 72.4162 43.7787 69.8638C44.2418 69.2783 44.767 68.6151 45.4943 67.8071L45.4952 67.8062C46.5782 66.5995 47.0737 66.8041 47.972 67.175L47.9722 67.1751C48.7003 67.4745 49.4097 68.3827 49.6972 69.382C49.8333 69.854 49.986 70.7496 49.486 71.4468C45.2652 77.3266 39.1145 77.251 34.6973 76.1511ZM66.0523 105.18C58.7229 106.742 56.1277 103.022 54.4176 98.7683C53.3138 96.0223 52.7712 83.6398 53.1562 69.9653C53.1611 69.7834 53.135 69.6077 53.0847 69.4424C53.0397 69.1158 52.9713 68.7929 52.8799 68.4761C52.3076 66.4864 50.9128 64.822 49.2394 64.132L49.2394 64.132C48.5745 63.858 47.3545 63.3552 45.8882 63.7284C46.2009 62.4466 46.7431 60.999 47.3311 59.4317L47.5778 58.7725C47.8524 58.0372 48.1965 57.2757 48.5605 56.4702L48.5723 56.444C50.5637 52.0427 53.2909 46.0141 50.331 32.3949C49.2223 27.2937 45.5199 24.8026 39.9073 25.3813C36.5427 25.7277 33.4642 27.0783 31.9288 27.8528C31.5986 28.0191 31.2967 28.18 31.0146 28.3364C31.4431 23.1968 33.0621 13.5914 39.1185 7.51416C42.9319 3.68848 48.0104 1.79888 54.1979 1.90078C66.3897 2.09921 74.2079 8.32399 78.6201 13.5114C82.4223 17.9811 84.4811 22.4839 85.3027 24.9125C79.1237 24.2873 74.9213 25.5007 72.7911 28.5308C68.1565 35.1221 75.3265 47.9149 78.7724 54.0632C79.4045 55.1899 79.9498 56.1638 80.1214 56.5776C81.2436 59.2833 82.6963 61.0898 83.757 62.4082C84.0822 62.8122 84.3975 63.2042 84.6374 63.5465C82.766 64.0833 79.4045 65.3235 79.7108 71.5228C79.4638 74.6334 77.7069 89.1969 76.8143 94.3423C75.636 101.14 73.1217 103.672 66.0523 105.18V105.18ZM96.6459 70.3483C94.7323 71.2318 91.5298 71.8946 88.4877 72.0372C85.1275 72.1936 83.4169 71.6627 83.0144 71.336C82.8257 67.4729 84.2708 67.0692 85.8003 66.6419L85.8005 66.6419C86.0408 66.5749 86.2753 66.5092 86.5017 66.4305C86.6423 66.5445 86.7964 66.6576 86.9653 66.7684C89.666 68.5418 94.483 68.7331 101.284 67.3364L101.358 67.3217C100.441 68.1749 98.8714 69.3199 96.6459 70.3483ZM39.704 32.9367C40.2557 32.521 41.3459 32.3668 42.5498 32.5335V32.534C44.0273 32.7382 45.5506 33.4341 45.4046 34.4781C45.2878 35.3116 43.9622 36.441 42.5045 36.441C42.3791 36.441 42.2529 36.4329 42.1262 36.4151C41.2521 36.2944 40.3689 35.7465 39.7642 34.9492C39.5504 34.6676 39.2027 34.1215 39.2719 33.6276C39.2979 33.4412 39.3941 33.1704 39.704 32.9367ZM79.4657 31.7072C80.8547 31.515 82.3183 31.7483 82.4333 32.5666C82.485 32.9344 82.2037 33.5002 81.7186 34.0079C81.3996 34.3409 80.7285 34.9188 79.8139 35.0448C79.6962 35.0613 79.5794 35.0689 79.4635 35.0689C78.0934 35.0689 76.9357 33.9802 76.8459 33.3425C76.7336 32.5224 78.0786 31.8993 79.4657 31.7072Z" fill="white"/>
</svg>
