<?xml version="1.0"?>
<svg xmlns="http://www.w3.org/2000/svg" xmlns:xlink="http://www.w3.org/1999/xlink" version="1.1" viewBox="0 0 192 192" width="96px" height="96px"><g fill="none" fill-rule="nonzero" stroke="none" stroke-width="1" stroke-linecap="butt" stroke-linejoin="miter" stroke-miterlimit="10" stroke-dasharray="" stroke-dashoffset="0" font-family="none" font-weight="none" font-size="none" text-anchor="none" style="mix-blend-mode: normal"><path d="M0,192v-192h192v192z" fill="none"/><g fill="#ffffff"><g id="surface1"><path d="M96.1875,20c-6.21875,0.01562 -10.53125,0.5625 -15.75,1.46875c-15.39062,2.67187 -18.1875,8.3125 -18.1875,18.67187v15.85938h36v8h-54.76562c-10.54688,0 -19.78125,4.96875 -22.70312,16.875c-3.29688,13.67188 -3.45313,22.23438 0,36.5c2.625,10.64062 8.39062,18.625 18.9375,18.625h14.53125v-20.42188c0,-11.85937 10.75,-23.57812 23.0625,-23.57812h28.9375c10.09375,0 20,-7.45312 20,-17.51562v-34.34375c0,-9.75 -7.03125,-17.04687 -16.875,-18.6875c0.25,-0.01562 -7.01562,-1.48437 -13.1875,-1.45312zM76.25,36c3.28125,0 6,2.70312 6,6.01562c0,3.32813 -2.71875,5.98438 -6,5.98438c-3.34375,0 -6,-2.65625 -6,-5.98438c0,-3.29687 2.65625,-6.01562 6,-6.01562z"/><path d="M92.3125,172c6.21875,-0.01562 10.53125,-0.5625 15.75,-1.46875c15.39062,-2.67188 18.1875,-8.3125 18.1875,-18.67188v-15.85938h-36v-8h54.78125c10.53125,0 19.76562,-4.96875 22.6875,-16.875c3.3125,-13.67188 3.45312,-22.23438 0,-36.5c-2.625,-10.64062 -8.39063,-18.625 -18.9375,-18.625h-14.53125v20.42188c0,11.85938 -10.75,23.57812 -23.0625,23.57812h-28.9375c-10.09375,0 -20,7.45312 -20,17.51562v34.34375c0,9.75 7.03125,17.04688 16.875,18.6875c-0.25,0.01562 7.01562,1.48438 13.1875,1.45312zM112.25,156c-3.28125,0 -6,-2.70312 -6,-6.01562c0,-3.32812 2.71875,-5.98438 6,-5.98438c3.34375,0 6,2.65625 6,5.98438c0,3.29688 -2.65625,6.01562 -6,6.01562z"/></g></g></g></svg>
