<svg width="25" height="28" viewBox="0 0 25 28" fill="none" xmlns="http://www.w3.org/2000/svg">
<path fill-rule="evenodd" clip-rule="evenodd" d="M12.5 0.0045166L25 6.9953V20.9815L12.5 27.9723L0 20.9815V6.9953L12.5 0.0045166ZM22.7688 20.4967L12.915 26.0138V21.7232L19.0565 18.3794L22.7688 20.4967ZM23.4433 19.8951V8.36658L19.8396 10.4232V17.8384L23.4433 19.8951ZM2.19333 20.4967L12.0471 26.0091V21.7186L5.90559 18.3794L2.19333 20.4967ZM1.5188 19.8951V8.36658L5.12257 10.4232V17.8384L1.5188 19.8951ZM1.93861 7.6204L12.0471 1.96808V6.11871L5.57069 9.63975L5.5188 9.66773L1.93861 7.6204ZM23.0188 7.6204L12.915 1.96808V6.11871L19.3867 9.64441L19.4386 9.6724L23.0188 7.6204ZM5.99048 17.4467L12.0471 20.7438V14.378L5.99048 10.9222V17.4467ZM18.9716 17.4513L12.915 20.7438V14.378L18.9716 10.9222V17.4513ZM12.481 6.86021L6.39614 10.1667L12.481 13.6365L18.5612 10.1667L12.481 6.86021Z" fill="white"/>
</svg>
