<?xml version="1.0" encoding="utf-8"?>
<!-- Generator: Adobe Illustrator 22.0.1, SVG Export Plug-In . SVG Version: 6.00 Build 0)  -->
<svg version="1.1" id="Слой_1" xmlns="http://www.w3.org/2000/svg" xmlns:xlink="http://www.w3.org/1999/xlink" x="0px" y="0px"
	 viewBox="0 0 141.7 141.7" style="enable-background:new 0 0 141.7 141.7;" xml:space="preserve">
<style type="text/css">
	.st0{fill:none;stroke:#FFFFFF;stroke-width:4;stroke-miterlimit:10;}
	.st1{fill:#FDFEFE;}
</style>
<g>
	<path class="st0" d="M128.4,136.7H14.2c-6.6,0-12-5.4-12-12V17.2c0-6.6,5.4-12,12-12h114.2c6.6,0,12,5.4,12,12v107.6
		C140.4,131.3,135,136.7,128.4,136.7z"/>
	<g>
		<path class="st1" d="M45.6,54.9V28h3.8L58,41.6c2,3.1,3.5,6,4.8,8.7l0.1,0c-0.3-3.6-0.4-6.8-0.4-11V28h3.3v26.8h-3.5l-8.5-13.6
			c-1.9-3-3.7-6.1-5-9l-0.1,0c0.2,3.4,0.3,6.6,0.3,11.1v11.5H45.6z"/>
		<path class="st1" d="M94.7,41.2c0,9.2-5.6,14.1-12.5,14.1c-7.1,0-12.1-5.5-12.1-13.6c0-8.5,5.3-14.1,12.5-14.1
			C90,27.6,94.7,33.2,94.7,41.2z M73.9,41.6c0,5.7,3.1,10.9,8.6,10.9c5.5,0,8.6-5.1,8.6-11.1c0-5.3-2.8-10.9-8.6-10.9
			C76.7,30.4,73.9,35.7,73.9,41.6z"/>
		<path class="st1" d="M25,75.8v26.8h-3.5V75.8H25z"/>
		<path class="st1" d="M53.6,90.9c-0.2-3.7-0.4-8.2-0.4-11.6h-0.1c-0.9,3.1-2,6.5-3.4,10.2l-4.7,13h-2.6L38,89.7
			c-1.3-3.8-2.3-7.2-3.1-10.4h-0.1c-0.1,3.3-0.3,7.8-0.5,11.9l-0.7,11.5h-3.3l1.9-26.8h4.4l4.6,13c1.1,3.3,2,6.2,2.7,9H44
			c0.7-2.7,1.6-5.7,2.8-9l4.8-13H56l1.7,26.8h-3.4L53.6,90.9z"/>
		<path class="st1" d="M67,94.2l-2.8,8.4h-3.6l9.1-26.8h4.2l9.2,26.8h-3.7l-2.9-8.4H67z M75.8,91.5l-2.6-7.7c-0.6-1.8-1-3.3-1.4-4.9
			h-0.1c-0.4,1.6-0.8,3.2-1.4,4.9l-2.6,7.8H75.8z"/>
		<path class="st1" d="M106.8,101.5c-1.6,0.6-4.6,1.5-8.2,1.5c-4.1,0-7.4-1-10-3.5c-2.3-2.2-3.7-5.8-3.7-10c0-8,5.5-13.9,14.5-13.9
			c3.1,0,5.5,0.7,6.7,1.2l-0.8,2.8c-1.4-0.6-3.2-1.2-5.9-1.2c-6.5,0-10.8,4.1-10.8,10.8c0,6.8,4.1,10.8,10.3,10.8
			c2.3,0,3.8-0.3,4.6-0.7v-8H98v-2.8h8.8V101.5z"/>
		<path class="st1" d="M126,90.1h-10.4v9.7h11.6v2.9h-15.1V75.8h14.5v2.9h-11v8.5H126V90.1z"/>
	</g>
</g>
</svg>
