<?xml version="1.0" encoding="UTF-8"?>
<!DOCTYPE svg PUBLIC "-//W3C//DTD SVG 1.1//EN" "http://www.w3.org/Graphics/SVG/1.1/DTD/svg11.dtd">
<!-- Creator: CorelDRAW X8 -->
<svg xmlns="http://www.w3.org/2000/svg" xml:space="preserve" width="15px" height="17px" version="1.1" style="shape-rendering:geometricPrecision; text-rendering:geometricPrecision; image-rendering:optimizeQuality; fill-rule:evenodd; clip-rule:evenodd"
viewBox="0 0 15 17"
 xmlns:xlink="http://www.w3.org/1999/xlink">
 <defs>
  <style type="text/css">
   <![CDATA[
    .fil0 {fill:white}
   ]]>
  </style>
 </defs>
 <g id="Слой_x0020_1">
  <metadata id="CorelCorpID_0Corel-Layer"/>
  <g id="_2080880866032">
   <path class="fil0" d="M12 12c-1,1 -2,1 -4,1 -2,0 -4,-2 -4,-5 0,-2 2,-4 4,-4 2,0 3,0 4,1l0 0 3 -2 -1 -1c-1,-1 -3,-2 -6,-2 -4,0 -8,4 -8,8 0,5 4,9 8,9 3,0 5,-1 6,-2l1 -1 -3 -3 0 1z"/>
   <path class="fil0" d="M8 6c2,0 3,1 3,2 0,2 -1,3 -3,3 -1,0 -2,-1 -2,-3 0,-1 1,-2 2,-2z"/>
  </g>
 </g>
</svg>
