<?xml version="1.0" encoding="UTF-8"?>
<!DOCTYPE svg PUBLIC "-//W3C//DTD SVG 1.1//EN" "http://www.w3.org/Graphics/SVG/1.1/DTD/svg11.dtd">
<!-- Creator: CorelDRAW X8 -->
<svg xmlns="http://www.w3.org/2000/svg" xml:space="preserve" width="17px" height="17px" version="1.1" style="shape-rendering:geometricPrecision; text-rendering:geometricPrecision; image-rendering:optimizeQuality; fill-rule:evenodd; clip-rule:evenodd"
viewBox="0 0 17 17"
 xmlns:xlink="http://www.w3.org/1999/xlink">
 <defs>
  <style type="text/css">
   <![CDATA[
    .fil0 {fill:white;fill-rule:nonzero}
   ]]>
  </style>
 </defs>
 <g id="Слой_x0020_1">
  <metadata id="CorelCorpID_0Corel-Layer"/>
  <g id="_2080880835120">
   <path class="fil0" d="M4 2c0,1 -1,2 -2,2 -1,0 -2,-1 -2,-2 0,-1 1,-2 2,-2 1,0 2,1 2,2zm-4 15l0 0 0 -12 4 0 0 12 -4 0z"/>
   <path class="fil0" d="M6 9c0,-2 0,-3 0,-4l3 0 0 2 0 0c1,-1 2,-2 4,-2 2,0 4,1 4,5l0 7 -4 0 0 -7c0,-1 0,-2 -1,-2 -1,0 -2,0 -2,1 0,0 0,1 0,1l0 7 -4 0 0 -8z"/>
  </g>
 </g>
</svg>
