<?xml version="1.0" encoding="UTF-8"?>
<!DOCTYPE svg PUBLIC "-//W3C//DTD SVG 1.1//EN" "http://www.w3.org/Graphics/SVG/1.1/DTD/svg11.dtd">
<!-- Creator: CorelDRAW X8 -->
<svg xmlns="http://www.w3.org/2000/svg" xml:space="preserve" width="25px" height="18px" version="1.1" style="shape-rendering:geometricPrecision; text-rendering:geometricPrecision; image-rendering:optimizeQuality; fill-rule:evenodd; clip-rule:evenodd"
viewBox="0 0 25 18"
 xmlns:xlink="http://www.w3.org/1999/xlink">
 <defs>
  <style type="text/css">
   <![CDATA[
    .fil0 {fill:white}
   ]]>
  </style>
 </defs>
 <g id="Слой_x0020_1">
  <metadata id="CorelCorpID_0Corel-Layer"/>
  <path class="fil0" d="M19 10c-1,0 -2,0 -3,-1l0 -1 0 0c1,-2 1,-4 3,-4 2,0 3,2 3,3 0,2 -1,3 -3,3l0 0zm0 -8c-2,0 -4,1 -5,4 -1,-2 -2,-4 -3,-6l-3 0 0 7c0,2 -1,3 -2,3 -2,0 -3,-1 -3,-3l0 -7 -3 0 0 7c0,3 2,6 5,6 4,0 6,-3 6,-6l0 -1c1,1 1,2 2,4l-2 8 3 0 1 -6c2,0 3,1 4,1 3,0 6,-3 6,-6 0,-3 -3,-5 -6,-5l0 0z"/>
 </g>
</svg>
