<svg width="21" height="23" viewBox="0 0 21 23" fill="none" xmlns="http://www.w3.org/2000/svg">
<path d="M10.5 19.5151C5.425 19.5151 0 18.3825 0 16.0302C0 15.5946 0.262489 15.3333 0.699989 15.3333C1.83749 15.3333 2.80001 14.375 2.80001 13.2424V10.4545C2.80001 6.27268 6.3 2.78784 10.5 2.78784C14.7 2.78784 18.2 6.27268 18.2 10.4545V13.2424C18.2 14.375 19.1625 15.3333 20.3 15.3333C20.7375 15.3333 21 15.5946 21 16.0302C21 18.3825 15.575 19.5151 10.5 19.5151ZM1.83753 16.553C2.97503 17.25 5.775 18.1212 10.5 18.1212C15.225 18.1212 18.025 17.25 19.1625 16.553C17.7625 16.1174 16.8 14.7235 16.8 13.2424V10.4545C16.8 6.96966 14 4.18176 10.5 4.18176C7 4.18176 4.19999 6.96966 4.19999 10.4545V13.2424C4.19999 14.7235 3.23753 16.0303 1.83753 16.553Z" fill="#A79DB1"/>
<path d="M10.5 23C8.13754 23 6.30005 21.1705 6.30005 18.8182C6.30005 18.3826 6.56254 18.1212 7.00004 18.1212C7.43754 18.1212 7.70003 18.3826 7.70003 18.8182C7.70003 20.3864 8.92504 21.6061 10.5 21.6061C12.075 21.6061 13.3 20.3864 13.3 18.8182C13.3 18.3826 13.5625 18.1212 14 18.1212C14.4375 18.1212 14.7 18.3826 14.7 18.8182C14.7 21.1705 12.95 23 10.5 23Z" fill="#A79DB1"/>
<path d="M9.80005 3.48485V0.69696C9.80005 0.261353 10.0625 0 10.5 0C10.9375 0 11.2 0.261353 11.2 0.69696V3.48485H9.80005Z" fill="#A79DB1"/>
</svg>
