<svg width="7" height="14" viewBox="0 0 7 14" fill="none" xmlns="http://www.w3.org/2000/svg">
<path d="M6.41221 14C6.5547 14 6.76845 14 6.83969 13.8655C7.05344 13.6639 7.05344 13.3277 6.83969 13.1261L1.56743 8.15126C0.854959 7.47899 0.854959 6.53782 1.56743 5.86555L6.83969 0.890755C7.05344 0.689075 7.05344 0.352941 6.83969 0.151261C6.62595 -0.0504202 6.26972 -0.0504202 6.05598 0.151261L0.783719 5.12605C0.213745 5.66387 0 6.33614 0 7.07563C0 7.81513 0.356238 8.4874 0.783719 9.02521L6.05598 14C6.05598 14 6.26972 14 6.41221 14Z" fill="#A79DB1"/>
</svg>
