<?xml version="1.0" standalone="no"?>
<!DOCTYPE svg PUBLIC "-//W3C//DTD SVG 20010904//EN"
 "http://www.w3.org/TR/2001/REC-SVG-20010904/DTD/svg10.dtd">
<svg version="1.0"
  xmlns="http://www.w3.org/2000/svg"
 width="100%" viewBox="0 0 2160.000000 2160.000000"
 preserveAspectRatio="xMidYMid meet">
  <style type="text/css">
stop {
  animation: colors 12s infinite;
}

.stop-2 {
  animation-delay: -8s;
}

.stop-3 {
  animation-delay: -10s;
}

@keyframes colors {
  15% {
    stop-color: #726114;
  }
  30% {
    stop-color: #146775;
  }
  45% {
    stop-color: #193386;
  }
  60% {
    stop-color: #49157a;
  }
  75% {
    stop-color: #831971;
  }
  90% {
    stop-color: #811515;
  }
}
</style>
  <linearGradient id="grad--linear-1">
    <stop 
    offset="0%"
    stop-color="crimson" 
    class="stop-1"/>
    <stop
    offset="50%"
    stop-color="gold"
    class="stop-2"/>
    <stop
    offset="100%"
    stop-color="teal" 
    class="stop-3"/>
  </linearGradient>
  <g transform="translate(0.000000,2160.000000) scale(0.100000,-0.100000)"
fill="#000000" stroke="none">
    <path fill="url(#grad--linear-1)" d="M10415 19649 c-77 -4 -192 -13 -255 -19 -63 -6 -171 -15 -239 -20
-147 -10 -412 -49 -636 -92 -88 -17 -173 -33 -190 -34 -16 -2 -73 -14 -125
-28 -52 -13 -110 -27 -129 -29 -72 -12 -415 -106 -569 -157 -51 -18 -104 -34
-119 -36 -14 -3 -51 -16 -83 -29 -32 -13 -68 -26 -81 -29 -13 -2 -59 -18 -102
-35 -43 -17 -83 -31 -90 -31 -6 0 -23 -6 -37 -13 -14 -8 -59 -26 -100 -42 -41
-15 -92 -37 -114 -47 -21 -11 -46 -21 -56 -23 -10 -2 -47 -17 -82 -33 -34 -16
-92 -43 -128 -58 -161 -71 -691 -343 -726 -373 -6 -5 -29 -18 -50 -29 -52 -26
-255 -150 -274 -166 -8 -8 -28 -21 -45 -29 -65 -35 -10 -14 92 34 59 28 145
68 191 89 45 22 82 37 82 35 0 -3 17 4 38 14 65 34 263 113 417 166 39 14 79
29 90 35 24 11 259 90 285 95 10 2 60 17 111 33 167 52 528 148 589 156 14 2
90 17 170 34 169 36 344 68 450 82 453 59 523 66 795 77 385 15 980 7 1233
-18 68 -6 136 -6 205 0 246 25 832 33 1232 18 236 -9 316 -17 795 -78 47 -6
126 -19 175 -30 50 -10 110 -21 135 -23 25 -3 97 -17 160 -32 63 -14 129 -28
145 -30 17 -1 64 -12 105 -24 41 -11 107 -27 145 -36 72 -15 121 -29 385 -109
180 -55 415 -134 515 -175 39 -16 81 -32 95 -35 14 -4 39 -13 55 -21 64 -28
202 -87 248 -104 27 -11 54 -23 60 -28 7 -5 28 -15 47 -22 19 -7 85 -37 147
-67 102 -49 168 -73 98 -36 -16 8 -37 21 -45 29 -18 15 -230 143 -280 169 -19
10 -37 21 -40 25 -3 4 -34 22 -70 40 -36 18 -67 36 -70 39 -7 9 -507 259 -590
295 -36 16 -92 41 -126 57 -33 15 -78 34 -100 42 -61 23 -216 86 -251 102 -17
8 -36 15 -43 15 -6 0 -44 14 -85 30 -40 17 -85 33 -100 36 -15 3 -53 16 -85
29 -32 13 -69 26 -83 29 -15 2 -68 18 -119 36 -159 52 -495 145 -568 156 -19
3 -84 18 -145 34 -60 15 -117 28 -125 27 -8 0 -87 14 -175 31 -226 43 -491 82
-636 92 -68 5 -173 14 -234 19 -308 30 -766 38 -1090 20z"/>
    <path fill="url(#grad--linear-1)" d="M9355 18789 c-55 -5 -179 -18 -276 -29 -96 -11 -200 -22 -230 -25
-68 -6 -107 -12 -239 -35 -58 -11 -125 -22 -150 -25 -63 -7 -322 -61 -465 -97
-66 -17 -129 -31 -140 -33 -27 -3 -199 -50 -315 -86 -52 -16 -104 -31 -115
-33 -32 -7 -245 -80 -540 -186 -27 -10 -76 -30 -107 -44 -32 -14 -58 -24 -58
-22 0 2 -26 -8 -57 -23 -32 -16 -69 -32 -83 -36 -14 -4 -55 -23 -92 -41 -38
-19 -68 -32 -68 -29 0 4 -21 -5 -47 -19 -27 -13 -95 -48 -153 -76 -58 -29
-107 -55 -110 -59 -3 -5 -43 -32 -90 -61 -47 -29 -87 -56 -90 -60 -3 -3 -56
-41 -118 -84 -62 -43 -118 -83 -125 -90 -6 -6 -64 -51 -127 -98 -63 -48 -126
-97 -140 -110 -14 -13 -61 -52 -105 -88 -277 -222 -780 -717 -1003 -985 -73
-88 -153 -183 -177 -210 -49 -56 -192 -245 -303 -399 -84 -118 -282 -413 -282
-422 0 -3 -13 -24 -29 -47 -41 -60 -151 -243 -151 -251 0 -4 -13 -26 -29 -49
-15 -23 -38 -62 -50 -87 -12 -25 -38 -74 -57 -110 -78 -143 -187 -366 -266
-545 -110 -247 -155 -361 -219 -545 -16 -47 -34 -94 -39 -105 -19 -40 -148
-448 -156 -493 -3 -15 -16 -61 -29 -102 -12 -41 -26 -92 -29 -113 -3 -21 -17
-78 -30 -125 -27 -97 -39 -147 -42 -177 -1 -11 -13 -69 -27 -130 -14 -60 -28
-130 -31 -155 -4 -25 -20 -126 -36 -225 -31 -190 -63 -458 -82 -688 -13 -150
-5 -293 32 -590 10 -84 21 -183 25 -222 4 -38 16 -117 26 -175 11 -58 24 -134
29 -170 33 -233 199 -899 287 -1145 14 -38 31 -90 38 -115 8 -25 30 -90 50
-145 21 -55 46 -124 56 -152 11 -29 31 -79 45 -110 14 -32 27 -65 29 -73 6
-25 122 -286 186 -418 32 -68 59 -126 59 -128 0 -9 209 -396 250 -464 22 -36
51 -87 65 -113 46 -85 220 -354 351 -542 31 -44 69 -109 86 -145 41 -91 212
-431 256 -512 20 -37 51 -93 68 -125 17 -32 50 -88 73 -126 22 -37 41 -70 41
-73 0 -3 13 -24 29 -47 15 -23 50 -78 77 -122 58 -96 267 -408 301 -450 14
-16 59 -77 101 -135 41 -58 81 -109 87 -115 6 -5 59 -71 117 -145 58 -74 118
-148 134 -165 15 -16 80 -89 144 -160 224 -251 355 -381 704 -700 122 -111
447 -373 581 -468 55 -39 102 -74 105 -77 5 -7 147 -105 259 -179 87 -58 275
-152 451 -224 47 -20 99 -43 115 -51 17 -9 36 -16 42 -16 7 0 36 -11 65 -25
75 -35 235 -96 266 -101 14 -3 31 -9 37 -13 5 -5 42 -18 80 -31 39 -13 107
-36 152 -52 44 -16 91 -31 103 -33 13 -2 57 -15 99 -29 106 -34 298 -87 325
-90 12 -2 75 -17 141 -34 143 -37 340 -80 421 -92 33 -5 120 -20 194 -34 74
-13 163 -27 198 -30 35 -3 113 -12 175 -21 324 -44 453 -50 1017 -50 481 0
689 9 925 40 110 15 225 28 255 30 123 9 580 95 825 156 66 16 134 32 150 35
17 3 75 19 130 35 55 17 147 44 205 61 148 45 348 110 465 153 195 72 221 82
267 103 26 12 50 22 54 22 7 0 103 41 179 76 17 7 102 46 190 87 144 66 335
176 343 198 2 5 10 9 17 9 7 0 15 4 17 8 2 5 46 37 98 72 52 35 102 70 111 79
9 9 61 48 115 86 54 39 108 79 119 90 12 11 88 74 170 140 137 110 193 158
294 255 20 19 101 95 179 169 175 164 492 500 630 670 201 246 228 279 292
365 120 163 275 385 325 467 6 9 22 34 36 55 122 182 378 636 481 854 20 41
54 113 76 160 22 47 69 126 103 175 164 238 323 484 364 565 10 19 21 37 25
40 4 3 21 30 37 60 17 30 54 98 83 150 200 362 462 947 555 1240 10 30 21 60
25 65 7 10 58 171 120 375 49 161 132 487 160 620 65 324 108 569 120 701 6
59 17 156 25 216 32 242 40 404 27 555 -23 271 -71 647 -102 798 -5 25 -11 63
-13 85 -12 124 -147 687 -218 911 -16 50 -29 98 -29 105 0 8 -13 49 -30 92
-16 43 -32 88 -34 100 -2 12 -16 54 -31 92 -14 39 -30 84 -35 100 -4 17 -20
59 -34 94 -14 36 -26 68 -26 73 0 4 -13 37 -30 73 -16 36 -30 70 -30 75 0 5
-14 38 -31 72 -17 35 -32 71 -34 80 -2 9 -18 48 -36 85 -17 37 -44 95 -59 128
-77 167 -267 537 -342 665 -18 32 -137 228 -182 303 -124 204 -547 796 -601
842 -7 6 -56 64 -111 130 -282 344 -665 727 -1024 1025 -69 57 -130 109 -137
116 -7 6 -65 52 -130 100 -65 49 -121 92 -124 97 -3 4 -57 43 -120 87 -63 43
-121 85 -129 93 -8 8 -53 38 -100 67 -46 29 -89 58 -95 64 -11 10 -137 74
-260 131 -27 13 -80 37 -117 54 -36 17 -73 31 -82 31 -8 0 -17 4 -20 8 -3 5
-49 26 -103 47 -54 21 -102 41 -108 45 -5 4 -28 13 -50 19 -22 7 -49 16 -60
21 -54 24 -102 42 -124 46 -13 3 -43 13 -65 23 -39 18 -110 43 -131 47 -5 1
-49 15 -97 33 -49 17 -88 29 -88 26 0 -2 -39 10 -87 26 -49 16 -97 31 -108 33
-32 6 -107 26 -155 43 -25 8 -59 16 -77 19 -17 2 -81 17 -142 34 -61 16 -119
30 -129 30 -10 0 -76 13 -148 30 -71 16 -151 31 -179 34 -27 3 -97 14 -155 25
-128 24 -169 30 -240 36 -30 3 -131 14 -225 24 -334 39 -440 43 -995 38 -365
-4 -572 -10 -652 -20 -101 -12 -135 -12 -235 0 -141 17 -1199 26 -1358 12z
m1825 -73 c96 -15 243 -40 325 -56 83 -17 166 -32 185 -34 20 -3 83 -16 140
-31 58 -15 118 -28 135 -30 36 -5 221 -54 359 -97 54 -16 108 -31 120 -33 30
-4 467 -152 502 -170 16 -8 34 -15 41 -15 13 0 218 -81 279 -110 22 -11 46
-20 53 -20 6 0 29 -9 49 -20 20 -11 89 -43 152 -71 115 -51 437 -211 540 -268
30 -17 84 -47 120 -66 162 -90 309 -181 535 -331 217 -144 419 -288 476 -338
19 -17 89 -71 154 -121 64 -49 132 -104 149 -121 17 -17 99 -89 181 -160 83
-71 240 -219 351 -329 182 -181 255 -261 521 -566 84 -95 188 -227 315 -399
38 -52 78 -106 89 -120 17 -22 48 -67 186 -270 54 -80 139 -214 167 -263 14
-26 34 -60 45 -75 28 -42 83 -137 151 -262 34 -63 66 -122 71 -130 5 -8 47
-94 95 -190 47 -96 90 -184 96 -194 5 -10 25 -53 43 -95 18 -42 41 -96 52
-121 11 -25 34 -77 52 -116 17 -39 31 -75 31 -81 0 -5 7 -24 15 -40 31 -63
146 -382 203 -563 86 -275 201 -713 217 -825 4 -22 14 -76 24 -120 10 -44 24
-109 30 -145 36 -218 63 -409 72 -505 5 -60 13 -144 19 -185 48 -385 56 -1079
16 -1490 -8 -85 -20 -207 -26 -270 -16 -163 -66 -500 -100 -670 -16 -80 -32
-161 -34 -180 -3 -19 -17 -80 -31 -135 -14 -55 -28 -115 -31 -134 -3 -19 -19
-78 -35 -132 -16 -54 -29 -104 -29 -111 0 -29 -191 -624 -220 -683 -8 -17 -29
-72 -87 -229 -8 -22 -25 -63 -37 -90 -13 -28 -38 -85 -55 -127 -33 -77 -110
-187 -292 -421 -292 -372 -729 -830 -1079 -1128 -47 -40 -96 -84 -110 -98
-105 -105 -781 -601 -897 -658 -17 -8 -39 -24 -49 -35 -9 -10 -20 -19 -25 -19
-4 0 -56 -30 -117 -67 -246 -152 -612 -346 -872 -462 -63 -29 -133 -60 -155
-71 -22 -11 -58 -26 -80 -34 -55 -20 -236 -94 -260 -107 -12 -5 -27 -11 -35
-12 -8 -2 -51 -16 -95 -33 -133 -51 -446 -156 -475 -160 -8 -1 -53 -14 -99
-29 -46 -15 -109 -33 -140 -40 -31 -7 -90 -22 -131 -33 -115 -31 -289 -72
-350 -82 -30 -5 -109 -20 -175 -34 -66 -15 -140 -28 -165 -31 -25 -2 -116 -16
-203 -30 -86 -14 -210 -30 -275 -35 -64 -5 -189 -17 -277 -25 -410 -38 -933
-38 -1341 0 -87 9 -208 20 -269 25 -100 8 -359 44 -395 55 -8 3 -40 7 -70 10
-60 5 -290 50 -465 90 -60 14 -121 28 -135 30 -42 8 -259 66 -363 97 -54 16
-107 31 -117 33 -32 6 -473 157 -501 171 -15 7 -38 15 -51 18 -14 2 -39 11
-54 19 -16 8 -47 20 -69 27 -22 7 -69 26 -104 42 -35 16 -72 31 -81 33 -10 2
-39 14 -66 28 -27 14 -78 37 -114 52 -96 40 -412 196 -531 261 -57 31 -127 69
-155 84 -29 15 -69 39 -90 54 -21 14 -42 26 -47 26 -4 0 -34 17 -67 37 -32 21
-94 60 -137 87 -111 70 -408 269 -473 317 -30 22 -68 49 -84 59 -16 10 -54 39
-85 64 -31 25 -109 87 -173 138 -372 295 -814 716 -1083 1033 -60 71 -130 151
-154 177 -43 47 -168 206 -300 383 -51 68 -83 126 -130 237 -35 81 -62 148
-61 150 2 2 -6 21 -17 43 -37 74 -204 544 -238 670 -8 28 -25 85 -39 128 -14
43 -26 84 -26 91 0 7 -13 58 -29 112 -45 155 -146 615 -157 715 -3 24 -16 108
-29 187 -14 78 -27 173 -31 210 -3 37 -14 146 -24 242 -35 326 -43 512 -37
942 5 366 18 605 42 758 3 19 9 85 15 146 5 61 21 183 36 270 14 87 27 173 28
189 3 35 54 285 97 470 91 395 229 842 361 1170 11 28 31 77 43 110 67 177
171 402 369 793 39 78 210 379 233 409 12 17 23 35 23 38 0 7 113 186 173 275
61 91 148 216 182 264 101 140 139 191 145 196 3 3 48 60 99 128 51 67 118
151 150 185 31 35 112 128 181 208 173 200 531 555 745 739 99 85 189 163 200
173 11 10 62 51 114 90 52 40 110 86 130 103 85 75 560 401 749 515 294 178
653 368 922 488 63 29 138 63 165 76 28 14 56 25 64 25 7 0 25 7 39 15 37 21
252 106 282 111 13 3 29 9 35 13 13 11 463 162 492 166 12 2 64 17 115 34 51
17 106 32 121 35 15 3 68 16 117 30 49 14 104 28 122 30 18 3 79 16 134 30 55
14 116 27 135 30 19 2 102 18 185 34 82 17 190 35 239 42 50 7 142 21 205 31
162 25 363 20 590 -15z"/>
    <path fill="url(#grad--linear-1)" d="M19658 10875 c-5 -44 -10 -125 -13 -180 -18 -317 -131 -983 -234
-1380 -88 -340 -181 -627 -326 -1010 -13 -33 -42 -105 -65 -160 -23 -55 -53
-125 -66 -156 -12 -31 -33 -73 -45 -93 -11 -20 -18 -36 -14 -36 3 0 -10 -30
-29 -67 -20 -38 -57 -111 -82 -163 -25 -52 -63 -129 -86 -170 -22 -41 -51 -97
-65 -124 -13 -27 -31 -55 -39 -63 -8 -8 -14 -19 -14 -24 0 -9 -139 -251 -158
-274 -4 -5 -20 -32 -36 -60 -16 -27 -46 -75 -66 -105 -20 -30 -57 -86 -83
-125 -26 -38 -76 -113 -113 -165 -36 -52 -83 -132 -104 -177 -49 -104 -204
-411 -244 -484 -17 -30 -48 -87 -69 -125 -56 -103 -129 -226 -158 -270 -14
-21 -38 -59 -53 -84 -84 -141 -436 -646 -466 -670 -4 -3 -40 -48 -80 -100
-240 -307 -610 -706 -896 -965 -254 -232 -287 -260 -401 -351 -65 -52 -129
-104 -143 -116 -39 -34 -99 -79 -175 -133 -38 -26 -74 -53 -80 -59 -10 -11
-101 -74 -274 -190 -98 -65 -105 -71 -71 -58 39 16 194 95 200 102 3 4 30 19
60 33 30 15 73 37 95 50 22 13 60 34 85 48 25 14 64 37 87 52 24 15 45 27 48
27 9 0 378 235 425 271 14 10 63 44 110 75 47 32 92 64 101 73 10 9 61 48 115
86 54 39 108 79 120 90 12 11 28 25 37 30 55 36 331 269 468 396 225 208 301
282 447 439 236 251 310 335 407 455 53 66 113 140 133 164 21 24 68 87 106
140 38 53 75 102 83 109 14 14 138 194 235 340 90 136 226 358 283 462 20 36
58 106 86 155 112 203 296 585 379 790 18 44 39 95 47 113 101 235 333 955
358 1112 3 19 10 49 15 65 17 55 48 180 48 195 0 8 14 80 30 160 57 272 102
602 143 1030 11 117 18 972 9 1090 l-5 65 -7 -80z"/>
    <path fill="url(#grad--linear-1)" d="M1946 10655 c-10 -304 -2 -688 19 -900 8 -82 18 -193 21 -245 3 -52
17 -167 31 -255 13 -88 28 -191 33 -230 4 -38 19 -126 33 -195 14 -69 28 -142
31 -163 18 -122 153 -636 218 -832 17 -49 32 -99 34 -110 2 -11 17 -55 34 -98
16 -43 30 -86 30 -96 0 -9 4 -21 9 -26 4 -6 20 -44 34 -85 29 -82 61 -166 110
-280 18 -41 32 -78 32 -81 0 -4 15 -40 34 -80 18 -41 39 -87 46 -104 44 -100
203 -420 265 -535 40 -74 80 -148 88 -165 8 -16 28 -49 44 -72 15 -23 28 -44
28 -47 0 -7 137 -230 213 -346 412 -634 913 -1217 1467 -1710 52 -47 127 -113
166 -148 39 -34 117 -99 175 -143 57 -44 124 -97 149 -117 24 -20 90 -69 145
-109 55 -39 107 -78 115 -86 17 -16 149 -105 274 -184 44 -28 93 -61 108 -72
14 -12 29 -21 32 -21 3 0 47 -26 98 -59 51 -32 111 -68 133 -80 22 -12 74 -42
115 -65 84 -48 438 -232 430 -223 -3 3 -66 47 -141 99 -225 154 -362 251 -396
281 -18 16 -86 70 -152 120 -443 342 -1001 900 -1386 1388 -165 209 -353 471
-482 673 -87 136 -283 463 -283 473 0 4 -11 24 -24 44 -30 44 -211 399 -272
534 -25 55 -49 102 -53 105 -4 3 -36 48 -71 100 -35 52 -67 97 -72 98 -4 2 -8
7 -8 12 0 5 -18 35 -39 67 -75 113 -151 232 -151 238 0 4 -13 25 -29 48 -53
77 -202 346 -320 580 -110 220 -281 591 -281 612 0 6 -6 22 -14 37 -8 15 -29
67 -47 115 -17 48 -38 100 -45 114 -7 15 -16 42 -19 60 -3 18 -10 38 -14 44
-5 5 -19 42 -31 80 -13 39 -36 106 -52 151 -15 44 -28 86 -28 92 0 6 -13 52
-30 102 -16 50 -30 96 -30 102 0 7 -13 55 -28 108 -50 167 -148 594 -162 705
-4 33 -19 130 -33 215 -32 194 -80 608 -90 780 -1 25 -6 -72 -11 -215z"/>
  </g>
</svg>