<?xml version="1.0" encoding="UTF-8" standalone="no"?>
<svg
   xmlns:dc="http://purl.org/dc/elements/1.1/"
   xmlns:cc="http://creativecommons.org/ns#"
   xmlns:rdf="http://www.w3.org/1999/02/22-rdf-syntax-ns#"
   xmlns:svg="http://www.w3.org/2000/svg"
   xmlns="http://www.w3.org/2000/svg"
   xmlns:sodipodi="http://sodipodi.sourceforge.net/DTD/sodipodi-0.dtd"
   xmlns:inkscape="http://www.inkscape.org/namespaces/inkscape"
   version="1.1"
   width="80.754005"
   height="80.842003"
   id="svg60"
   viewBox="0 0 80.754004 80.842002"
   sodipodi:docname="Logo_xsmall.svg"
   inkscape:version="0.92.4 (5da689c313, 2019-01-14)">
  <metadata
     id="metadata66">
    <rdf:RDF>
      <cc:Work
         rdf:about="">
        <dc:format>image/svg+xml</dc:format>
        <dc:type
           rdf:resource="http://purl.org/dc/dcmitype/StillImage" />
        <dc:title></dc:title>
      </cc:Work>
    </rdf:RDF>
  </metadata>
  <defs
     id="defs64" />
  <sodipodi:namedview
     pagecolor="#ffffff"
     bordercolor="#666666"
     borderopacity="1"
     objecttolerance="10"
     gridtolerance="10"
     guidetolerance="10"
     inkscape:pageopacity="0"
     inkscape:pageshadow="2"
     inkscape:window-width="1920"
     inkscape:window-height="1018"
     id="namedview62"
     showgrid="false"
     fit-margin-top="0"
     fit-margin-left="0"
     fit-margin-right="0"
     fit-margin-bottom="0"
     inkscape:zoom="1.5857392"
     inkscape:cx="186.06656"
     inkscape:cy="-30.615781"
     inkscape:window-x="-8"
     inkscape:window-y="-8"
     inkscape:window-maximized="1"
     inkscape:current-layer="svg60" />
  <g
     id="Layer1000"
     transform="translate(-4154.8361,-1899.2904)">
    <path
       d="m 3408.2587,1874.2306 c -38.8202,-25.075 -69.5559,-60.8465 -88.4998,-102.9999 44.9866,62.56 117.344,99.6321 194.3995,99.6 77.0613,0.055 149.4283,-37.0221 194.3996,-99.6 -18.9552,42.2067 -49.7723,77.9924 -88.6999,102.9999 -32.9103,16.2136 -69.1123,24.6311 -105.7997,24.6002 -36.6931,0.079 -72.9056,-8.3407 -105.7997,-24.6002 z"
       style="fill:#000000;fill-rule:evenodd"
       id="path2"
       inkscape:connector-curvature="0" />
    <path
       d="m 3267.2587,1653.5312 c 2.5679,45.297 18.0439,88.9137 44.6003,125.6995 18.9436,42.1534 49.6797,77.9252 88.4998,103.0001 -81.7726,-40.2848 -133.542,-123.5428 -133.4998,-214.6999 z"
       style="fill:#000000;fill-rule:evenodd"
       id="path4"
       inkscape:connector-curvature="0" />
    <path
       d="m 3715.5582,1778.3307 c 26.5714,-36.7778 42.0488,-80.3993 44.6003,-125.6995 0.1998,4.6001 0.3997,9.2999 0.3997,13.9997 0,94.1998 -54.3997,175.5997 -133.4999,214.6999 38.7765,-25.1251 69.5004,-60.8824 88.4999,-103.0001 z"
       style="fill:#000000;fill-rule:evenodd"
       id="path6"
       inkscape:connector-curvature="0" />
    <path
       d="m 3729.5582,1673.2308 c 0,-124.0995 -94.3999,-226.0996 -215.2994,-238.1996 8.0076,-0.8036 16.0514,-1.2042 24.0996,-1.1999 36.6933,-0.08 72.9062,8.3401 105.7999,24.5999 64.099,41.4226 104.6196,110.9131 109.1001,187.1001 -2.5679,45.297 -18.0437,88.9137 -44.6,125.6994 13.8089,-30.8242 20.9316,-64.2239 20.8998,-97.9999 z"
       style="fill:#000000;fill-rule:evenodd"
       id="path8"
       inkscape:connector-curvature="0" />
    <path
       d="m 3275.2589,1645.5313 c 4.3954,-76.2125 44.9371,-145.7387 109.1001,-187.1001 32.9102,-16.2139 69.1123,-24.6314 105.7999,-24.5999 8.0484,-0.01 16.092,0.3937 24.0999,1.1999 -120.8998,12.1 -215.2997,114.1001 -215.2997,238.1996 -0.081,33.7811 7.0444,67.191 20.8998,97.9999 -26.5719,-36.7778 -42.0497,-80.399 -44.6,-125.6997 z"
       style="fill:#000000;fill-rule:evenodd"
       id="path10"
       inkscape:connector-curvature="0" />
    <path
       d="m 3538.3584,1423.8312 c -8.0482,0 -16.092,0.3963 -24.0996,1.2002 -8.0002,-0.8002 -16.0002,-1.2002 -24.1002,-1.2002 -36.693,-0.08 -72.9061,8.3401 -105.7999,24.6002 38.6858,-25.0585 83.8074,-38.3624 129.9001,-38.3 46.0921,-0.062 91.2137,13.2415 129.8995,38.2997 -32.9102,-16.2136 -69.1123,-24.631 -105.7999,-24.5999 z"
       style="fill:#000000;fill-rule:evenodd"
       id="path12"
       inkscape:connector-curvature="0" />
    <g
       id="Layer1001">
      <path
         d="m 3812.8582,1357.1312 v 598.9994 h -598.9994 v -598.9994 z m 1,-0.9998 v 0 h -600.9991 v 600.9992 h 600.9991 z"
         style="fill:#ffffff;fill-rule:evenodd"
         id="path14"
         inkscape:connector-curvature="0" />
    </g>
  </g>
  <text
     x="-704.38464"
     y="-247.6176"
     id="text20">
    <tspan
       font-size="66.0000"
       id="tspan18"
       style="font-size:66px;font-family:'Montserrat SemiBold';fill:#1b1918">FUSION</tspan>
  </text>
  <text
     x="-576.23303"
     y="-677.15161"
     id="text24">
    <tspan
       font-size="42.5000"
       id="tspan22"
       style="font-size:42.5px;font-family:Arial;fill:#1b1918">LG</tspan>
  </text>
  <text
     x="-0.14781472"
     y="-677.66309"
     id="text28">
    <tspan
       font-size="42.5000"
       id="tspan26"
       style="font-size:42.5px;font-family:Arial;fill:#1b1918">MD</tspan>
  </text>
  <text
     x="880.61664"
     y="-677.15161"
     id="text32">
    <tspan
       font-size="42.5000"
       id="tspan30"
       style="font-size:42.5px;font-family:Arial;fill:#1b1918">SL</tspan>
  </text>
  <text
     x="1389.5121"
     y="-668.71606"
     id="text36">
    <tspan
       font-size="42.5000"
       id="tspan34"
       style="font-size:42.5px;font-family:Arial;fill:#1b1918">xSL (f-icons)</tspan>
  </text>
  <path
     d="m 980.59547,-496.0706 c -24.0998,-18 -48.98725,-16.7247 -68.13755,-11.0248 -19.1503,-5.6999 -42.87501,-6.825 -66.97491,11.175"
     style="fill:none;stroke:#ffffff;stroke-width:5.28009987;stroke-linecap:butt;stroke-linejoin:miter;stroke-dasharray:none"
     id="path38"
     inkscape:connector-curvature="0" />
  <path
     d="m 824.13021,-462.3532 c -5.9477,29.4861 5.8608,51.4307 19.2115,66.2962 3.0486,19.7466 12.1902,41.6684 38.77561,55.7403"
     style="fill:#d9dadb;fill-rule:evenodd;stroke:#ffffff;stroke-width:5.28009987;stroke-linecap:butt;stroke-linejoin:miter;stroke-dasharray:none"
     id="path40"
     inkscape:connector-curvature="0" />
  <path
     d="m 1002.3365,-462.953 c 5.9476,29.4861 -5.86093,51.4307 -19.21153,66.2962 -3.0489,19.7465 -12.1153,41.9684 -38.70105,56.0402"
     style="fill:#d9dadb;fill-rule:evenodd;stroke:#ffffff;stroke-width:5.28009987;stroke-linecap:butt;stroke-linejoin:miter;stroke-dasharray:none"
     id="path42"
     inkscape:connector-curvature="0" />
  <path
     d="m 40.3946,5e-4 c 6.389,0 12.4308,1.4836 17.801604,4.1235 -0.1772,-0.026 -0.3544,-0.051 -0.5315,-0.075 C 51.2054,3.1912 44.9788,4.131 40.0627,5.5321 35.1899,4.1544 29.094,3.3897 22.7707,4.3446 22.4666,4.3906 22.1621,4.4406 21.8571,4.4943 27.4096,1.6231 33.7122,0 40.3946,0 Z m 29.214104,12.4903 c 4.3348,4.5334 7.6261,10.0729 9.4859,16.234 0.3345,4.8019 -0.5638,9.2032 -2.1368,13.1023 -2.2793,5.6483 -5.9768,10.269603 -9.424,13.550503 l -0.3972,0.3778 c 2.5952,-4.5161 4.0794,-9.751703 4.0794,-15.334003 C 71.216004,23.3991 57.416604,9.6 40.3946,9.6 23.3725,9.6 9.5735,23.3991 9.5735,40.4214 c 0,5.4556 1.419,10.5786 3.9058,15.023903 l -0.2622,-0.2616 C 9.8224,51.795103 6.0857,46.966 3.8384,41.1411 2.3165,37.1964 1.4792,32.7832 1.908,28.0411 3.7131,22.4251 6.7136,17.3448 10.609,13.0997 14.7099,10.2968 19.0806,8.7834 23.3405,8.1402 29.2819,7.2427 35.0122,8.0259 39.5158,9.3664 l 0.5474,0.163 0.548,-0.163 c 4.5881,-1.3654 10.487,-2.3281 16.558504,-1.5219 4.1718,0.5542 8.4419,1.9522 12.439,4.6463 z M 13.6622,55.771903 c 5.3206,9.2454 15.2994,15.4706 26.7324,15.4706 11.4222,0 21.392804,-6.2135 26.717104,-15.4446 l -0.1253,0.5321 c -1.0922,4.6318 -3.2485,10.1954 -7.0036,15.0494 -2.4959,3.2261 -5.7018,6.1427 -9.774704,8.2605 -3.1419,0.784 -6.4287,1.2021 -9.8135,1.2021 -3.1065,0 -6.1308,-0.3512 -9.036,-1.0148 -4.489,-2.3054 -8.0393,-5.4975 -10.7668,-9.0102 v 0 c -3.7072,-4.7767 -5.8901,-10.1328 -6.846,-14.6688 z m 4.9691,18.7163 C 7.7741,67.537903 0.4618,55.538803 0,41.8033 c 0.087,0.2409 0.1766,0.4799 0.2685,0.7177 2.3822,6.175 6.2575,11.303203 9.8467,14.971803 1.1174,4.9045 3.5022,10.5916 7.4463,15.6719 v 0.01 c 0.3444,0.4437 0.701,0.8825 1.0698,1.3162 z M 80.754004,42.6381 c -0.7118,13.167203 -7.7256,24.656603 -18.0774,31.509903 0.1134,-0.1423 0.2256,-0.2849 0.3365,-0.4283 3.9937,-5.163 6.3399,-11.0143 7.5736,-15.965 3.6502,-3.5612 7.5002,-8.490303 9.9263,-14.502303 0.082,-0.2036 0.1625,-0.4082 0.241,-0.6143 z"
     style="fill:#1b1918;fill-rule:evenodd"
     id="path44"
     inkscape:connector-curvature="0" />
  <g
     id="g879"
     transform="translate(839.12209,-657.30171)">
    <path
       inkscape:connector-curvature="0"
       id="path46"
       style="fill:#1b1918;fill-rule:evenodd"
       d="m 78.078839,1065.9024 c -1.6112,-0.9141 -4.8772,-2.411 -6.3267,-3.5223 -20.9491,-16.0613 -32.9015,-43.4038 -43.319,-67.08759 28.7435,39.97209 67.6921,64.49199 117.308301,65.06289 49.2331,0.5667 88.5114,-27.1001 117.2452,-67.08339 -10.9861,26.96739 -25.5127,57.10229 -50.3845,73.08029 -21.0277,10.3595 -43.4835,15.2878 -66.924,15.2682 -23.4446,0.051 -46.582101,-5.3291 -67.599301,-15.7181 z" />
    <path
       inkscape:connector-curvature="0"
       id="path48"
       style="fill:#1b1918;fill-rule:evenodd"
       d="m -13.585861,925.05881 c 2.0156,29.9169 22.3280997,57.7659 36.2207,74.595 6.8542,19.28319 21.2423,53.76419 46.0459,69.78549 -25.7636,-12.7035 -48.6838,-35.1868 -63.7449003,-62.4858 -13.6403,-24.72379 -20.7948997,-53.42549 -18.5216997,-81.89469 z" />
    <path
       inkscape:connector-curvature="0"
       id="path50"
       style="fill:#1b1918;fill-rule:evenodd"
       d="m 275.87454,935.42781 c 0,-79.2919 -53.2525,-131.221 -130.4998,-138.9524 23.2545,-3.4575 64.2225,-4.7637 82.9785,4.5076 40.9553,26.4666 66.8452,70.8665 69.7079,119.5453 -1.6407,28.9417 -19.7044,51.8447 -36.6721,75.3485 8.8233,-19.6947 14.5056,-38.8685 14.4855,-60.449 z" />
    <path
       inkscape:connector-curvature="0"
       id="path52"
       style="fill:#1b1918;fill-rule:evenodd"
       d="m -6.8998613,919.77861 c 2.8086,-48.6953 28.7117003,-93.1179 69.7078003,-119.5454 18.7085,-9.2164 60.542901,-6.9369 82.997701,-3.7762 -77.246901,7.7314 -130.812401,63.6027 -130.812401,142.8944 -0.051,21.5842 5.9257,38.3559 14.7785,58.0408 -16.978,-23.4987 -35.7921003,-49.4197 -36.6716003,-77.6136 z" />
    <path
       inkscape:connector-curvature="0"
       id="path54"
       style="fill:#1b1918;fill-rule:evenodd"
       d="m 145.31784,789.43021 c -21.9148,-3.8799 -55.768001,-8.1662 -82.734901,5.1636 24.7178,-16.0106 53.547901,-24.5106 82.997901,-24.4709 29.4499,-0.04 58.2797,8.4603 82.9975,24.4709 -26.8638,-13.2352 -62.8988,-8.6729 -83.2605,-5.1636 z" />
    <path
       inkscape:connector-curvature="0"
       id="path56"
       style="fill:#1b1918;fill-rule:evenodd"
       d="m 268.54474,997.84021 c 14.1715,-17.1603 34.5775,-44.5101 36.2609,-74.5444 1.7576,29.3976 -5.0468,58.6744 -19.5881,84.28389 -14.4723,25.6487 -36.0708,46.5511 -62.18,60.1753 24.751,-16.859 38.5311,-50.4661 45.5072,-69.91479 z" />
  </g>
  <path
     d="m 748.16701,375.00849 c -14.0615,0 -27.38,3.1725 -39.28641,8.8333 2.48321,-0.5216 4.94791,-0.9025 7.38691,-1.1582 11.7174,-1.228 22.7983,0.445 32.4801,3.2471 9.6766,-2.8032 20.4786,-4.44 31.9209,-3.172 2.251,0.2494 4.5247,0.6111 6.8173,1.0976 -11.9145,-5.6705 -25.2447,-8.8478 -39.3188,-8.8478 z m -61.41531,23.6401 c -14.0372,12.6893 -24.1274,29.66479 -28.2033,48.86419 -0.5377,11.7941 1.7359,22.03 5.6069,30.84031 4.4691,10.1722 11.0809,18.4899 17.9635,25.1334 -6.0985,-10.9054 -9.5792,-23.4731 -9.5792,-36.85581 0,-41.4926 33.4165,-75.17529 74.80451,-75.61719 -9.1372,-2.6516 -19.5689,-4.2407 -30.5403,-3.0909 -9.72511,1.019 -19.91231,4.2023 -30.05211,10.726 z m 63.35201,-7.6213 c 40.8733,1.0273 73.6911,34.48289 73.6911,75.60339 0,13.31131 -3.4429,25.81601 -9.481,36.68061 6.8479,-6.6906 13.4183,-15.0613 17.8333,-25.2853 3.9118,-9.05871 6.1381,-19.59221 5.3736,-31.72991 -4.1799,-18.4453 -13.924,-34.77849 -27.3756,-47.14009 -10.2704,-6.7754 -20.4032,-10.0891 -30.0543,-11.1583 -10.6988,-1.1855 -20.8599,0.3742 -29.9871,3.0296 z m 63.0986,114.2164 c -13.1868,22.1621 -37.3745,37.0148 -65.0353,37.0148 -27.5418,0 -51.64231,-14.7245 -64.86621,-36.7293 2.2136,9.3192 5.8904,19.074 12.2508,27.9099 5.4388,7.5555 12.867,14.4785 23.06291,19.9412 9.2721,3.1578 19.2118,4.8727 29.5525,4.8727 10.2107,0 20.0308,-1.6719 29.2026,-4.7545 10.5576,-5.5758 18.1856,-12.6377 23.7191,-20.3494 6.3372,-8.8316 9.9647,-18.5604 12.1136,-27.9054 z m -11.7278,35.9099 c 21.5093,-15.4145 36.0692,-39.9087 38.0736,-67.88011 -0.7487,2.35981 -1.6047,4.63801 -2.5538,6.83541 -4.6698,10.8136 -11.5633,19.6577 -18.7585,26.7313 -2.2978,9.8082 -6.1642,20.0265 -12.8775,29.3822 -1.2019,1.6753 -2.4942,3.3214 -3.8838,4.9312 z M 656.8371,473.96338 c 2.1989,27.76251 16.7701,52.04211 38.2031,67.32171 -1.3405,-1.5588 -2.5914,-3.1521 -3.7582,-4.7727 -6.762,-9.3934 -10.6786,-19.6571 -13.0351,-29.4446 -7.2334,-7.0242 -14.178,-15.823 -18.9178,-26.6108 -0.9187,-2.0908 -1.7538,-4.2551 -2.492,-6.49361 z"
     style="fill:#1b1918;fill-rule:evenodd"
     id="path58"
     inkscape:connector-curvature="0" />
</svg>
