<svg width="28" height="28" viewBox="0 0 28 28" fill="none" xmlns="http://www.w3.org/2000/svg">
<path d="M13.6 27.2C6.09998 27.2 0 21.1 0 13.6C0 6.09999 6.09998 0 13.6 0C21.1 0 27.2 6.09999 27.2 13.6C27.2 21.1 21.2 27.2 13.6 27.2ZM13.6 1.59999C6.99998 1.59999 1.59998 6.99999 1.59998 13.6C1.59998 20.2 6.99998 25.6 13.6 25.6C20.2 25.6 25.6 20.2 25.6 13.6C25.6 6.99999 20.2 1.59999 13.6 1.59999Z" fill="#A79DB1"/>
<path d="M17.6 14.4H9.60004C9.10004 14.4 8.80005 14.1 8.80005 13.6C8.80005 13.1 9.10004 12.8 9.60004 12.8H17.6C18.1 12.8 18.4 13.1 18.4 13.6C18.4 14.1 18.1 14.4 17.6 14.4Z" fill="#A79DB1"/>
<path d="M13.6 18.4C13.1 18.4 12.8 18.1 12.8 17.6V9.60004C12.8 9.10004 13.1 8.80005 13.6 8.80005C14.1 8.80005 14.4 9.10004 14.4 9.60004V17.6C14.4 18.1 14.1 18.4 13.6 18.4Z" fill="#A79DB1"/>
</svg>
