<?xml version="1.0" encoding="UTF-8"?>
<svg width="16px" height="16px" viewBox="0 0 16 16" version="1.1" xmlns="http://www.w3.org/2000/svg" xmlns:xlink="http://www.w3.org/1999/xlink">
    <!-- Generator: Sketch 50.2 (55047) - http://www.bohemiancoding.com/sketch -->
    <title>ic/account</title>
    <desc>Created with Sketch.</desc>
    <defs>
        <path d="M3.2,11.1875 C4.37500588,12.9125086 5.97498988,13.775 8,13.775 C10.0250101,13.775 11.6249941,12.9125086 12.8,11.1875 C12.7749999,10.4874965 12.2125055,9.90000237 11.1125,9.425 C10.0124945,8.94999763 8.97500488,8.7125 8,8.7125 C7.02499512,8.7125 5.9875055,8.94374769 4.8875,9.40625 C3.7874945,9.86875231 3.22500012,10.4624964 3.2,11.1875 Z M9.6875,3.125 C9.21249763,2.64999763 8.65000325,2.4125 8,2.4125 C7.34999675,2.4125 6.78750237,2.64999763 6.3125,3.125 C5.83749763,3.60000237 5.6,4.16249675 5.6,4.8125 C5.6,5.46250325 5.83749763,6.02499763 6.3125,6.5 C6.78750237,6.97500237 7.34999675,7.2125 8,7.2125 C8.65000325,7.2125 9.21249763,6.97500237 9.6875,6.5 C10.1625024,6.02499763 10.4,5.46250325 10.4,4.8125 C10.4,4.16249675 10.1625024,3.60000237 9.6875,3.125 Z M2.3375,2.375 C3.91250788,0.799992125 5.799989,0.0125 8,0.0125 C10.200011,0.0125 12.0812422,0.793742187 13.64375,2.35625 C15.2062578,3.91875781 15.9875,5.799989 15.9875,8 C15.9875,10.200011 15.2062578,12.0812422 13.64375,13.64375 C12.0812422,15.2062578 10.200011,15.9875 8,15.9875 C5.799989,15.9875 3.91875781,15.2062578 2.35625,13.64375 C0.793742187,12.0812422 0.0125,10.200011 0.0125,8 C0.0125,5.799989 0.78749225,3.92500775 2.3375,2.375 Z" id="path-1"></path>
    </defs>
    <g id="ic/account" stroke="none" stroke-width="1" fill="none" fill-rule="evenodd">
        <g>
            <mask id="mask-2" fill="white">
                <use xlink:href="#path-1"></use>
            </mask>
            <use id="Mask" fill="#262626" xlink:href="#path-1"></use>
            <g id="Color/Dark_grey" mask="url(#mask-2)">
                <g transform="translate(-24.000000, -28.000000)">
                    <rect id="Fill/Secondary" stroke="none" fill="#666666" fill-rule="evenodd" x="0" y="0" width="69" height="69"></rect>
                    <rect id="Border/Secondary" stroke="#666666" stroke-width="1" fill="none" x="0" y="0" width="69" height="69"></rect>
                </g>
            </g>
        </g>
    </g>
</svg>