<?xml version="1.0" encoding="UTF-8"?>
<svg width="16px" height="16px" viewBox="0 0 16 16" version="1.1" xmlns="http://www.w3.org/2000/svg" xmlns:xlink="http://www.w3.org/1999/xlink">
    <!-- Generator: Sketch 50.2 (55047) - http://www.bohemiancoding.com/sketch -->
    <title>ic/camera_alt</title>
    <desc>Created with Sketch.</desc>
    <defs></defs>
    <g id="ic/camera_alt" stroke="none" stroke-width="1" fill="none" fill-rule="evenodd">
        <path d="M13.6,2.73333333 L11.381,2.73333333 L10.1,1.33333333 L5.9,1.33333333 L4.619,2.73333333 L2.4,2.73333333 C1.63,2.73333333 1,3.36333333 1,4.13333333 L1,12.5333333 C1,13.3033333 1.63,13.9333333 2.4,13.9333333 L13.6,13.9333333 C14.37,13.9333333 15,13.3033333 15,12.5333333 L15,4.13333333 C15,3.36333333 14.37,2.73333333 13.6,2.73333333 Z M13.6,12.5333333 L2.4,12.5333333 L2.4,4.13333333 L5.235,4.13333333 L6.516,2.73333333 L9.484,2.73333333 L10.765,4.13333333 L13.6,4.13333333 L13.6,12.5333333 Z M8,5.53333333 C6.4544,5.53333333 5.2,6.78773333 5.2,8.33333333 C5.2,9.87893333 6.4544,11.1333333 8,11.1333333 C9.5456,11.1333333 10.8,9.87893333 10.8,8.33333333 C10.8,6.78773333 9.5456,5.53333333 8,5.53333333 Z M8,10.0133333 C7.076,10.0133333 6.32,9.25733333 6.32,8.33333333 C6.32,7.40933333 7.076,6.65333333 8,6.65333333 C8.924,6.65333333 9.68,7.40933333 9.68,8.33333333 C9.68,9.25733333 8.924,10.0133333 8,10.0133333 Z" id="Shape" fill="#fff" fill-rule="nonzero"></path>
    </g>
</svg>