<?xml version="1.0" encoding="UTF-8"?>
<svg width="16px" height="16px" viewBox="0 0 16 16" version="1.1" xmlns="http://www.w3.org/2000/svg" xmlns:xlink="http://www.w3.org/1999/xlink">
    <!-- Generator: Sketch 50.2 (55047) - http://www.bohemiancoding.com/sketch -->
    <title>ic/delete</title>
    <desc>Created with Sketch.</desc>
    <defs>
        <path d="M11.2382812,0.98828125 L11.2382812,2.5 L0.76171875,2.5 L0.76171875,0.98828125 L3.36328125,0.98828125 L4.13671875,0.25 L7.86328125,0.25 L8.63671875,0.98828125 L11.2382812,0.98828125 Z M1.5,12.2382812 L1.5,3.23828125 L10.5,3.23828125 L10.5,12.2382812 C10.5,12.6367207 10.3476578,12.9882797 10.0429688,13.2929688 C9.73827973,13.5976578 9.38672074,13.75 8.98828125,13.75 L3.01171875,13.75 C2.61327926,13.75 2.26172027,13.5976578 1.95703125,13.2929688 C1.65234223,12.9882797 1.5,12.6367207 1.5,12.2382812 Z" id="path-1"></path>
    </defs>
    <g id="ic/delete" stroke="none" stroke-width="1" fill="none" fill-rule="evenodd">
        <g transform="translate(2.000000, 1.000000)">
            <mask id="mask-2" fill="white">
                <use xlink:href="#path-1"></use>
            </mask>
            <use id="Mask" fill="#262626" xlink:href="#path-1"></use>
            <g id="Color/Dark_grey" mask="url(#mask-2)">
                <g transform="translate(-34.000000, -36.000000)">
                    <rect id="Fill/Secondary" stroke="none" fill="#666666" fill-rule="evenodd" x="0" y="0" width="86" height="86"></rect>
                    <rect id="Border/Secondary" stroke="#666666" stroke-width="1" fill="none" x="0" y="0" width="86" height="86"></rect>
                </g>
            </g>
        </g>
    </g>
</svg>