<?xml version="1.0" encoding="UTF-8"?>
<svg width="16px" height="16px" viewBox="0 0 16 16" version="1.1" xmlns="http://www.w3.org/2000/svg" xmlns:xlink="http://www.w3.org/1999/xlink">
    <!-- Generator: Sketch 50.2 (55047) - http://www.bohemiancoding.com/sketch -->
    <title>ic/duration</title>
    <desc>Created with Sketch.</desc>
    <defs>
        <path d="M8.38671875,4.23828125 L8.38671875,8.17578125 L11.7617188,10.1796875 L11.1992188,11.1289062 L7.26171875,8.73828125 L7.26171875,4.23828125 L8.38671875,4.23828125 Z M3.74609375,12.2539062 C4.94141223,13.4257871 6.3593668,14.0117188 8,14.0117188 C9.6406332,14.0117188 11.0527285,13.4199278 12.2363281,12.2363281 C13.4199278,11.0527285 14.0117188,9.6406332 14.0117188,8 C14.0117188,6.3593668 13.4199278,4.94727154 12.2363281,3.76367188 C11.0527285,2.58007221 9.6406332,1.98828125 8,1.98828125 C6.3593668,1.98828125 4.94727154,2.58007221 3.76367188,3.76367188 C2.58007221,4.94727154 1.98828125,6.3593668 1.98828125,8 C1.98828125,9.6406332 2.57421289,11.0585878 3.74609375,12.2539062 Z M2.69140625,2.7265625 C4.16797613,1.24999262 5.93748969,0.51171875 8,0.51171875 C10.0625103,0.51171875 11.8261646,1.2441333 13.2910156,2.70898438 C14.7558667,4.17383545 15.4882812,5.93748969 15.4882812,8 C15.4882812,10.0625103 14.7558667,11.8261646 13.2910156,13.2910156 C11.8261646,14.7558667 10.0625103,15.4882812 8,15.4882812 C5.93748969,15.4882812 4.17383545,14.7558667 2.70898438,13.2910156 C1.2441333,11.8261646 0.51171875,10.0625103 0.51171875,8 C0.51171875,5.93748969 1.23827398,4.17969477 2.69140625,2.7265625 Z" id="path-1"></path>
    </defs>
    <g id="ic/duration" stroke="none" stroke-width="1" fill="none" fill-rule="evenodd">
        <g>
            <mask id="mask-2" fill="white">
                <use xlink:href="#path-1"></use>
            </mask>
            <use id="Mask" fill="#FFFFFF" xlink:href="#path-1"></use>
            <g id="Color/Dark_grey" mask="url(#mask-2)">
                <g transform="translate(-33.000000, -32.000000)">
                    <rect id="Fill/Secondary" stroke="none" fill="#666666" fill-rule="evenodd" x="0" y="0" width="86" height="86"></rect>
                    <rect id="Border/Secondary" stroke="#666666" stroke-width="1" fill="none" x="0" y="0" width="86" height="86"></rect>
                </g>
            </g>
        </g>
    </g>
</svg>