<?xml version="1.0" encoding="UTF-8"?>
<svg width="16px" height="16px" viewBox="0 0 16 16" version="1.1" xmlns="http://www.w3.org/2000/svg" xmlns:xlink="http://www.w3.org/1999/xlink">
    <!-- Generator: Sketch 50.2 (55047) - http://www.bohemiancoding.com/sketch -->
    <title>ic/focus</title>
    <desc>Created with Sketch.</desc>
    <defs>
        <path d="M6.3828125,15.3125 C6.47656297,15.1484367 6.98046418,14.2695392 7.89453125,12.6757812 C8.80859832,11.0820233 9.51171629,9.8750041 10.0039062,9.0546875 L12.7460938,13.8007812 C11.3632743,14.9257869 9.78125891,15.4882812 8,15.4882812 C7.50781004,15.4882812 6.96875293,15.4296881 6.3828125,15.3125 Z M0.828125,10.25 L8.10546875,10.25 L5.328125,14.9960938 C4.24999461,14.5976543 3.3183633,13.982426 2.53320312,13.1503906 C1.74804295,12.3183552 1.17968926,11.351568 0.828125,10.25 Z M2.48046875,2.9375 L6.27734375,9.51171875 L0.65234375,9.51171875 C0.558593281,9.06640402 0.51171875,8.56250281 0.51171875,8 C0.51171875,6.05467777 1.16796219,4.36719465 2.48046875,2.9375 Z M15.3476562,6.48828125 C15.4414067,6.93359598 15.4882812,7.43749719 15.4882812,8 C15.4882812,9.94532223 14.8320378,11.6328054 13.5195312,13.0625 L9.93359375,6.875 L9.72265625,6.48828125 L15.3476562,6.48828125 Z M15.171875,5.75 L7.89453125,5.75 L10.671875,1.00390625 C11.7500054,1.40234574 12.6816367,2.01757396 13.4667969,2.84960938 C14.2519571,3.68164479 14.8203107,4.64843199 15.171875,5.75 Z M6.06640625,6.875 L5.99609375,6.9453125 L3.25390625,2.19921875 C4.63672566,1.07421312 6.21874109,0.51171875 8,0.51171875 C8.49218996,0.51171875 9.03124707,0.570311914 9.6171875,0.6875 L6.06640625,6.875 Z" id="path-1"></path>
    </defs>
    <g id="ic/focus" stroke="none" stroke-width="1" fill="none" fill-rule="evenodd">
        <g>
            <mask id="mask-2" fill="white">
                <use xlink:href="#path-1"></use>
            </mask>
            <use id="Mask" fill="#FFFFFF" xlink:href="#path-1"></use>
            <g id="Color/Dark_grey" mask="url(#mask-2)">
                <g transform="translate(-36.000000, -33.000000)">
                    <rect id="Fill/Secondary" stroke="none" fill="#666666" fill-rule="evenodd" x="0" y="0" width="86" height="86"></rect>
                    <rect id="Border/Secondary" stroke="#666666" stroke-width="1" fill="none" x="0" y="0" width="86" height="86"></rect>
                </g>
            </g>
        </g>
    </g>
</svg>