<?xml version="1.0" encoding="UTF-8"?>
<svg width="16px" height="16px" viewBox="0 0 16 16" version="1.1" xmlns="http://www.w3.org/2000/svg" xmlns:xlink="http://www.w3.org/1999/xlink">
    <!-- Generator: Sketch 50.2 (55047) - http://www.bohemiancoding.com/sketch -->
    <title>ic/mic</title>
    <desc>Created with Sketch.</desc>
    <defs>
        <path d="M9.80147059,7.69852941 L11.125,7.69852941 C11.125,9.02206544 10.6654458,10.1801421 9.74632353,11.1727941 C8.82720129,12.1654461 7.71814375,12.7598029 6.41911765,12.9558824 L6.41911765,15.5294118 L4.875,15.5294118 L4.875,12.9558824 C3.5759739,12.7598029 2.46691636,12.1654461 1.54779412,11.1727941 C0.628671875,10.1801421 0.169117647,9.02206544 0.169117647,7.69852941 L1.49264706,7.69852941 C1.49264706,8.85049596 1.90318217,9.80024136 2.72426471,10.5477941 C3.54534724,11.2953469 4.51960221,11.6691176 5.64705882,11.6691176 C6.77451544,11.6691176 7.7487704,11.2953469 8.56985294,10.5477941 C9.39093548,9.80024136 9.80147059,8.85049596 9.80147059,7.69852941 Z M7.30147059,9.35294118 C6.83578199,9.81862978 6.28431691,10.0514706 5.64705882,10.0514706 C5.00980074,10.0514706 4.45833566,9.81862978 3.99264706,9.35294118 C3.52695846,8.88725257 3.29411765,8.3357875 3.29411765,7.69852941 L3.29411765,2.99264706 C3.29411765,2.35538897 3.52695846,1.8039239 3.99264706,1.33823529 C4.45833566,0.872546691 5.00980074,0.639705882 5.64705882,0.639705882 C6.28431691,0.639705882 6.83578199,0.872546691 7.30147059,1.33823529 C7.76715919,1.8039239 8,2.35538897 8,2.99264706 L8,7.69852941 C8,8.3357875 7.76715919,8.88725257 7.30147059,9.35294118 Z" id="path-1"></path>
    </defs>
    <g id="ic/mic" stroke="none" stroke-width="1" fill="none" fill-rule="evenodd">
        <g transform="translate(2.000000, 0.000000)">
            <mask id="mask-2" fill="white">
                <use xlink:href="#path-1"></use>
            </mask>
            <use id="Mask" fill="#1C69D4" xlink:href="#path-1"></use>
            <g id="Color/Grey" mask="url(#mask-2)">
                <g transform="translate(-32.941176, -31.058824)">
                    <rect id="Fill/Secondary" stroke="none" fill="#A8A8A8" fill-rule="evenodd" x="0" y="0" width="81" height="81"></rect>
                    <rect id="Border/Secondary" stroke="#A8A8A8" stroke-width="1" fill="none" x="0" y="0" width="81" height="81"></rect>
                </g>
            </g>
        </g>
    </g>
</svg>