<?xml version="1.0" encoding="UTF-8"?>
<svg width="16px" height="13px" viewBox="0 0 16 13" version="1.1" xmlns="http://www.w3.org/2000/svg" xmlns:xlink="http://www.w3.org/1999/xlink">
    <!-- Generator: Sketch 52.6 (67491) - http://www.bohemiancoding.com/sketch -->
    <title>ic/no-wifi</title>
    <desc>Created with Sketch.</desc>
    <g id="Beta" stroke="none" stroke-width="1" fill="none" fill-rule="evenodd">
        <g id="4.1.4_Library_Upload" transform="translate(-35.000000, -472.000000)" fill="#FFFFFF">
            <g id="LogIn/white" transform="translate(35.000000, 471.000000)">
                <g id="ic/no_wifi">
                    <g>
                        <path d="M15.3266667,6 C12.7666667,3.44 9.2,2.50666667 5.89333333,3.18666667 L7.57333333,4.86666667 C9.88666667,4.75333333 12.2333333,5.56666667 13.9933333,7.33333333 L15.3266667,6 Z M12.66,8.66666667 C11.8,7.80666667 10.7666667,7.24666667 9.66666667,6.96 L12.02,9.31333333 L12.66,8.66666667 Z M1.33333333,2.03333333 L3.38,4.06666667 C2.4,4.54666667 1.48,5.18666667 0.666666667,6 L1.99333333,7.33333333 C2.82,6.50666667 3.77333333,5.89333333 4.79333333,5.48666667 L6.28666667,6.98 C5.20666667,7.26 4.18,7.82 3.33333333,8.66666667 L3.33333333,8.67333333 L4.66,10 C5.56666667,9.09333333 6.75333333,8.64 7.94,8.62666667 L12.6533333,13.3333333 L13.5,12.4933333 L2.19333333,1.19333333 L1.33333333,2.03333333 Z M6,11.3333333 L8,13.3333333 L10,11.3333333 C8.9,10.2266667 7.10666667,10.2266667 6,11.3333333 Z" id="Shape"></path>
                    </g>
                </g>
            </g>
        </g>
    </g>
</svg>