<?xml version="1.0" encoding="UTF-8"?>
<svg width="16px" height="16px" viewBox="0 0 16 16" version="1.1" xmlns="http://www.w3.org/2000/svg" xmlns:xlink="http://www.w3.org/1999/xlink">
    <!-- Generator: Sketch 50.2 (55047) - http://www.bohemiancoding.com/sketch -->
    <title>ic/photo</title>
    <desc>Created with Sketch.</desc>
    <defs>
        <path d="M5.25961538,10.7403846 C6.02885,11.4855806 6.9423024,11.8581731 8,11.8581731 C9.0576976,11.8581731 9.96514044,11.4795711 10.7223558,10.7223558 C11.4795711,9.96514044 11.8581731,9.0576976 11.8581731,8 C11.8581731,6.9423024 11.4795711,6.03485956 10.7223558,5.27764423 C9.96514044,4.52042891 9.0576976,4.14182692 8,4.14182692 C6.9423024,4.14182692 6.03485956,4.52042891 5.27764423,5.27764423 C4.52042891,6.03485956 4.14182692,6.9423024 4.14182692,8 C4.14182692,9.0576976 4.51441935,9.97115 5.25961538,10.7403846 Z M5.69230769,0.319711538 L10.3076923,0.319711538 L11.7139423,1.83413462 L14.1658654,1.83413462 C14.5745213,1.83413462 14.929085,1.99038305 15.2295673,2.30288462 C15.5300496,2.61538618 15.6802885,2.9759595 15.6802885,3.38461538 L15.6802885,12.6153846 C15.6802885,13.0240405 15.5300496,13.3846138 15.2295673,13.6971154 C14.929085,14.0096169 14.5745213,14.1658654 14.1658654,14.1658654 L1.83413462,14.1658654 C1.42547873,14.1658654 1.07091496,14.0096169 0.770432692,13.6971154 C0.469950421,13.3846138 0.319711538,13.0240405 0.319711538,12.6153846 L0.319711538,3.38461538 C0.319711538,2.9759595 0.469950421,2.61538618 0.770432692,2.30288462 C1.07091496,1.99038305 1.42547873,1.83413462 1.83413462,1.83413462 L4.28605769,1.83413462 L5.69230769,0.319711538 Z M6.26923077,9.73076923 C5.78845913,9.2499976 5.54807692,8.67308029 5.54807692,8 C5.54807692,7.32691971 5.78845913,6.7500024 6.26923077,6.26923077 C6.7500024,5.78845913 7.32691971,5.54807692 8,5.54807692 C8.67308029,5.54807692 9.2499976,5.78845913 9.73076923,6.26923077 C10.2115409,6.7500024 10.4519231,7.32691971 10.4519231,8 C10.4519231,8.67308029 10.2115409,9.2499976 9.73076923,9.73076923 C9.2499976,10.2115409 8.67308029,10.4519231 8,10.4519231 C7.32691971,10.4519231 6.7500024,10.2115409 6.26923077,9.73076923 Z" id="path-1"></path>
    </defs>
    <g id="ic/photo" stroke="none" stroke-width="1" fill="none" fill-rule="evenodd">
        <g transform="translate(0.000000, 1.000000)">
            <mask id="mask-2" fill="white">
                <use xlink:href="#path-1"></use>
            </mask>
            <use id="Mask" fill="#666666" xlink:href="#path-1"></use>
            <g id="Color/Dark_grey" mask="url(#mask-2)">
                <g transform="translate(-45.538462, -45.538462)">
                    <rect id="Fill/Secondary" stroke="none" fill="#666666" fill-rule="evenodd" x="0" y="0" width="106" height="106"></rect>
                    <rect id="Border/Secondary" stroke="#666666" stroke-width="1" fill="none" x="0" y="0" width="106" height="106"></rect>
                </g>
            </g>
        </g>
    </g>
</svg>