<?xml version="1.0" encoding="UTF-8"?>
<svg width="16px" height="16px" viewBox="0 0 16 16" version="1.1" xmlns="http://www.w3.org/2000/svg" xmlns:xlink="http://www.w3.org/1999/xlink">
    <!-- Generator: Sketch 50.2 (55047) - http://www.bohemiancoding.com/sketch -->
    <title>ic/search</title>
    <desc>Created with Sketch.</desc>
    <defs>
        <path d="M3.2734375,8.5859375 C4.00260781,9.31510781 4.88801563,9.6796875 5.9296875,9.6796875 C6.97135937,9.6796875 7.85676719,9.31510781 8.5859375,8.5859375 C9.31510781,7.85676719 9.6796875,6.97135937 9.6796875,5.9296875 C9.6796875,4.88801563 9.31510781,4.00260781 8.5859375,3.2734375 C7.85676719,2.54426719 6.97135937,2.1796875 5.9296875,2.1796875 C4.88801563,2.1796875 4.00260781,2.54426719 3.2734375,3.2734375 C2.54426719,4.00260781 2.1796875,4.88801563 2.1796875,5.9296875 C2.1796875,6.97135937 2.54426719,7.85676719 3.2734375,8.5859375 Z M10.9296875,9.6796875 L15.0703125,13.8203125 L13.8203125,15.0703125 L9.6796875,10.9296875 L9.6796875,10.265625 L9.4453125,10.03125 C8.45572422,10.8906293 7.28386094,11.3203125 5.9296875,11.3203125 C4.41926328,11.3203125 3.13672402,10.7994844 2.08203125,9.7578125 C1.02733848,8.71614063 0.5,7.44011172 0.5,5.9296875 C0.5,4.41926328 1.02733848,3.13672402 2.08203125,2.08203125 C3.13672402,1.02733848 4.41926328,0.5 5.9296875,0.5 C7.44011172,0.5 8.71614063,1.02733848 9.7578125,2.08203125 C10.7994844,3.13672402 11.3203125,4.41926328 11.3203125,5.9296875 C11.3203125,7.28386094 10.8906293,8.45572422 10.03125,9.4453125 L10.265625,9.6796875 L10.9296875,9.6796875 Z" id="path-1"></path>
    </defs>
    <g id="ic/search" stroke="none" stroke-width="1" fill="none" fill-rule="evenodd">
        <g>
            <mask id="mask-2" fill="white">
                <use xlink:href="#path-1"></use>
            </mask>
            <use id="Mask" fill="#8E8E8E" xlink:href="#path-1"></use>
            <g id="Color/Grey" mask="url(#mask-2)">
                <g transform="translate(-34.000000, -35.000000)">
                    <rect id="Fill/Secondary" stroke="none" fill="#A8A8A8" fill-rule="evenodd" x="0" y="0" width="86" height="86"></rect>
                    <rect id="Border/Secondary" stroke="#A8A8A8" stroke-width="1" fill="none" x="0" y="0" width="86" height="86"></rect>
                </g>
            </g>
        </g>
    </g>
</svg>