<?xml version="1.0"?>
<svg xmlns="http://www.w3.org/2000/svg" xmlns:xlink="http://www.w3.org/1999/xlink" version="1.1" id="Capa_1" x="0px" y="0px" viewBox="0 0 327.939 327.939" style="enable-background:new 0 0 327.939 327.939;" xml:space="preserve" width="512px" height="512px" class=""><g><g>
	<path d="M239.618,107.303h-18.926v-20.69h-43.587v20.69H88.444v109.243h151.174V107.303z M164.031,200.883   c-21.516,0-38.959-17.442-38.959-38.959c0-21.516,17.442-38.959,38.959-38.959s38.959,17.443,38.959,38.959   C202.99,183.441,185.548,200.883,164.031,200.883z" data-original="#000000" class="active-path" data-old_color="#ffffff" fill="#ffffff"/>
	<path d="M90.282,59.916c-30.366,0-55.07,24.704-55.07,55.069h21c0-18.786,15.284-34.069,34.07-34.069V59.916z" data-original="#000000" class="active-path" data-old_color="#ffffff" fill="#ffffff"/>
	<path d="M91.258,45.705v-21C40.938,24.705,0,65.643,0,115.963h21C21,77.222,52.518,45.705,91.258,45.705z" data-original="#000000" class="active-path" data-old_color="#ffffff" fill="#ffffff"/>
	<path d="M237.657,268.022c30.366,0,55.07-24.704,55.07-55.069h-21c0,18.786-15.284,34.069-34.07,34.069V268.022z" data-original="#000000" class="active-path" data-old_color="#ffffff" fill="#ffffff"/>
	<path d="M306.939,211.976c0,38.741-31.518,70.259-70.258,70.259v21c50.32,0,91.258-40.939,91.258-91.259H306.939z" data-original="#000000" class="active-path" data-old_color="#ffffff" fill="#ffffff"/>
</g></g> </svg>
