<?xml version="1.0" encoding="UTF-8"?>
<svg width="16px" height="16px" viewBox="0 0 16 16" version="1.1" xmlns="http://www.w3.org/2000/svg" xmlns:xlink="http://www.w3.org/1999/xlink">
    <!-- Generator: Sketch 50.2 (55047) - http://www.bohemiancoding.com/sketch -->
    <title>ic/swap</title>
    <desc>Created with Sketch.</desc>
    <defs></defs>
    <g id="ic/swap" stroke="none" stroke-width="1" fill="none" fill-rule="evenodd">
        <g id="Group" transform="translate(0.000000, 2.000000)" fill="#FFFFFF">
            <path d="M9.70695798,0.588 C9.98854454,0.588 10.2516034,0.730588235 10.4080403,0.966882353 L11.1715227,2.19441176 C11.3281345,2.43123529 11.5908437,2.57311765 11.8731294,2.57311765 L14.3715765,2.57311765 C14.8372168,2.57311765 15.2144134,2.95429412 15.2144134,3.42405882 L15.2144134,10.5142941 C15.2144134,10.9844118 14.8372168,11.3652353 14.3715765,11.3652353 L1.44970756,11.3652353 C0.984416807,11.3652353 0.606870588,10.9844118 0.606870588,10.5142941 L0.606870588,3.42423529 C0.606870588,2.95447059 0.984416807,2.57329412 1.44970756,2.57329412 L3.94815462,2.57329412 C4.22991597,2.57329412 4.49297479,2.43123529 4.64941176,2.19458824 L5.4132437,0.967058824 C5.56968067,0.730588235 5.83221513,0.588176471 6.11432605,0.588176471 L9.70695798,0.588176471 M9.70695798,0.0208235294 L6.11415126,0.0208235294 C5.64361681,0.0208235294 5.20681681,0.257117647 4.94550588,0.652235294 L4.18184874,1.87976471 C4.12958655,1.95864706 4.0421916,2.00611765 3.94797983,2.00611765 L1.44970756,2.00611765 C0.675213445,2.00611765 0.0450957983,2.64229412 0.0450957983,3.42423529 L0.0450957983,10.5144706 C0.0450957983,11.2967647 0.675213445,11.9325882 1.44970756,11.9325882 L14.3715765,11.9325882 C15.1464202,11.9325882 15.7761882,11.2965882 15.7761882,10.5144706 L15.7761882,3.42423529 C15.7761882,2.64229412 15.1462454,2.00611765 14.3715765,2.00611765 L11.8731294,2.00611765 C11.7789176,2.00611765 11.6915227,1.95864706 11.6392605,1.87976471 L10.8756034,0.652235294 C10.6144672,0.257117647 10.1776672,0.0208235294 9.70695798,0.0208235294" id="Shape" stroke="#FFFFFF" stroke-width="0.5" fill-rule="nonzero"></path>
            <path d="M2.28571429,1.15164835 C2.28571429,1.02541184 2.39332799,0.923076923 2.51217782,0.923076923 L3.43067932,0.923076923 C3.55575168,0.923076923 3.65714286,1.02910371 3.65714286,1.15164835 L3.65714286,1.38021978 L2.28571429,1.38021978 L2.28571429,1.15164835 Z" id="Rectangle-3"></path>
            <path d="M11.5551866,6.26047059 C11.4809008,4.36870588 9.94274958,2.85705882 8.05099832,2.85705882 C7.13195294,2.85705882 6.29803025,3.21652941 5.67210756,3.80011765 L6.26901513,4.40258824 C6.74199664,3.97235294 7.36564706,3.70782353 8.05099832,3.70782353 C9.47518655,3.70782353 10.638763,4.84094118 10.7125244,6.26047059 L9.73649748,6.26047059 L11.1411092,8.03294118 L12.5455462,6.26047059 L11.5551866,6.26047059 Z" id="Shape" fill-rule="nonzero"></path>
            <path d="M8.05117311,9.09652941 C6.65093109,9.09652941 5.50518319,8.00082353 5.39663866,6.615 L6.36567395,6.615 L4.96106218,4.84235294 L3.55645042,6.615 L4.55310252,6.615 C4.66252101,8.47288235 6.18319328,9.94747059 8.05117311,9.94747059 C8.97021849,9.94747059 9.80396639,9.58835294 10.4300639,9.00458824 L9.8331563,8.40194118 C9.36017479,8.83235294 8.73634958,9.09652941 8.05117311,9.09652941" id="Shape" fill-rule="nonzero"></path>
        </g>
    </g>
</svg>