<?xml version="1.0"?>
<svg xmlns="http://www.w3.org/2000/svg" xmlns:xlink="http://www.w3.org/1999/xlink" version="1.1" id="Capa_1" x="0px" y="0px" viewBox="0 0 512 512" style="enable-background:new 0 0 512 512;" xml:space="preserve" width="512px" height="512px"><g><g>
	<g>
		<path d="M427.975,206.738L305.455,84.209c-14.528-14.528-38.022-14.529-52.551,0c-0.122,0.122-67.316,67.326-67.437,67.447    c-20.711,20.701-23.383,52.712-8.015,76.346C174.694,230.76,18.48,386.974,14.042,391.411c-18.431,18.431-18.431,48.433,0,66.864    l39.866,39.866c18.405,18.405,48.313,18.552,66.864,0c2.092-2.092,156.039-156.039,163.399-163.399    c23.33,15.25,55.371,12.962,76.366-8.015c0.12-0.12,67.314-67.324,67.437-67.447C442.491,244.764,442.514,221.257,427.975,206.738    z M99.469,476.837c-5.034,5.034-12.408,6.302-18.692,3.726c-5.558-2.316-4.393-3.163-45.43-43.592    c-6.679-6.689-6.679-17.567,0-24.257l24.659-24.648l64.122,64.112L99.469,476.837z M145.431,430.875l-64.122-64.122    L197.822,250.24l64.122,64.122L145.431,430.875z M339.224,305.413c-8.994,8.994-21.961,11.155-32.764,7.041    c-8.675-2.99-13.165-9.968-23.202-19.395c-82.859-82.859-80.365-79.024-83.508-87.355c-4.158-10.998-1.818-23.905,7.021-32.744    l26.366-26.366L365.59,279.046L339.224,305.413z M406.671,237.976l-19.777,19.767L254.441,125.29l19.777-19.777    c2.746-2.746,7.181-2.743,9.924,0l122.529,122.529C409.413,230.784,409.418,235.214,406.671,237.976z" data-original="#000000" class="active-path" data-old_color="#ffffff" fill="#ffffff"/>
	</g>
</g><g>
	<g>
		<path d="M354.219,0c-8.321,0-15.066,6.746-15.066,15.066v60.686c0,8.321,6.746,15.066,15.066,15.066s15.066-6.746,15.066-15.066    V15.066C369.285,6.746,362.54,0,354.219,0z" data-original="#000000" class="active-path" data-old_color="#ffffff" fill="#ffffff"/>
	</g>
</g><g>
	<g>
		<path d="M468.339,43.846c-5.883-5.884-15.423-5.884-21.307,0l-42.912,42.912c-9.519,9.518-2.648,25.719,10.654,25.719    c3.856,0,7.712-1.47,10.653-4.412l42.912-42.912C474.223,59.269,474.223,49.73,468.339,43.846z" data-original="#000000" class="active-path" data-old_color="#ffffff" fill="#ffffff"/>
	</g>
</g><g>
	<g>
		<path d="M496.714,143.305h-60.687c-8.321,0-15.066,6.746-15.066,15.066s6.746,15.066,15.066,15.066h60.687    c8.321,0,15.066-6.746,15.066-15.066S505.035,143.305,496.714,143.305z" data-original="#000000" class="active-path" data-old_color="#ffffff" fill="#ffffff"/>
	</g>
</g><g>
	<g>
		<path d="M192.8,318.366c-6.156-5.597-15.686-5.14-21.282,1.018c-7.511,8.266-16.539,16.311-25.9,25.877    c-5.82,5.947-5.716,15.486,0.23,21.306c5.942,5.816,15.481,5.721,21.306-0.23c9.199-9.399,18.234-17.409,26.665-26.688    C199.416,333.49,198.96,323.961,192.8,318.366z" data-original="#000000" class="active-path" data-old_color="#ffffff" fill="#ffffff"/>
	</g>
</g></g> </svg>
