<svg xmlns="http://www.w3.org/2000/svg" viewBox="1672.7 14734.7 66.6 66.6">
  <path fill="#b6bfc4" stroke="#fff" d="M1732 14759.8h-13.7a1.4 1.4 0 0 0 0 2.7h13.7a4.1 4.1 0 0 1 4 4.1v27.4a4.1 4.1 0 0 1-4 4h-27.4a4.1 4.1 0 0 1-4-4v-11a1.4 1.4 0 0 0-2.8 0v11a6.8 6.8 0 0 0 6.8 6.8h27.4a6.8 6.8 0 0 0 6.8-6.8v-27.4a6.8 6.8 0 0 0-6.8-6.8zM1693.7 14773.5h-1.4a1.4 1.4 0 1 0 0 2.7h1.4a1.4 1.4 0 1 0 0-2.7zM1681.2 14735.2h-1.2a6.9 6.9 0 0 0-1.9.3 1.4 1.4 0 0 0 .4 2.6 1.3 1.3 0 0 0 .4 0 4 4 0 0 1 1.1-.2h1.2a1.4 1.4 0 1 0 0-2.7zM1676 14768.2v-2.8a1.4 1.4 0 1 0-2.8 0v2.8a1.4 1.4 0 1 0 2.7 0zM1674.6 14761.2a1.4 1.4 0 0 0 1.3-1.3v-2.8a1.4 1.4 0 1 0-2.7 0v2.8a1.4 1.4 0 0 0 1.4 1.3zM1674.6 14744.6a1.4 1.4 0 0 0 1.3-1.3v-1.3a4.1 4.1 0 0 1 .2-1 1.4 1.4 0 1 0-2.7-.8 6.9 6.9 0 0 0-.2 1.8v1.3a1.4 1.4 0 0 0 1.4 1.3zM1674.6 14753a1.4 1.4 0 0 0 1.3-1.4v-2.8a1.4 1.4 0 0 0-2.7 0v2.8a1.4 1.4 0 0 0 1.4 1.3zM1678.9 14773.3a4.1 4.1 0 0 1-1.8-1 1.4 1.4 0 1 0-1.9 2 6.8 6.8 0 0 0 3 1.6 1.4 1.4 0 0 0 .7-2.6zM1712.6 14741.8a1.3 1.3 0 0 0 .4 0 1.4 1.4 0 0 0 1-1.7 6.8 6.8 0 0 0-1.8-3 1.4 1.4 0 0 0-2 2 4.1 4.1 0 0 1 1.1 1.8 1.4 1.4 0 0 0 1.3 1zM1706.1 14735.2h-2.8a1.4 1.4 0 0 0 0 2.7h2.8a1.4 1.4 0 0 0 0-2.7zM1686.8 14773.5h-2.8a1.4 1.4 0 1 0 0 2.7h2.8a1.4 1.4 0 1 0 0-2.7zM1712.8 14744.6a1.4 1.4 0 0 0-1.3 1.4v2.8a1.4 1.4 0 0 0 2.7 0v-2.8a1.4 1.4 0 0 0-1.4-1.4zM1697.8 14735.2h-2.7a1.4 1.4 0 1 0 0 2.7h2.7a1.4 1.4 0 1 0 0-2.7zM1689.5 14735.2h-2.7a1.4 1.4 0 0 0 0 2.7h2.7a1.4 1.4 0 1 0 0-2.7zM1712.8 14753a1.4 1.4 0 0 0-1.3 1.3v1.4a1.4 1.4 0 0 0 2.7 0v-1.4a1.4 1.4 0 0 0-1.4-1.3z"/>
  <path fill="#b6bfc4" stroke="#fff" d="M1718 14759l-4.2-4.3a4.3 4.3 0 0 0-7 1.7 4.3 4.3 0 0 0-4.5 1 4.3 4.3 0 0 0-1.2 2.3 4.3 4.3 0 0 0-3.6 1.2 4.3 4.3 0 0 0-1.2 3.3 4.3 4.3 0 0 0-2.5 7.2l1.3 1.3v4.9a6.8 6.8 0 0 0 6.8 6.8h5.6a14.9 14.9 0 0 0 10.5-25.4zm-10.5 22.7h-5.6a4.1 4.1 0 0 1-4.1-4.1v-2.2l3.1 3.1a1.4 1.4 0 0 0 2-1.9l-7.1-7a1.5 1.5 0 0 1 0-2.3 1.6 1.6 0 0 1 2.1 0l3 3a1.4 1.4 0 0 0 2-1.9l-3.5-3.4a1.5 1.5 0 0 1 0-2.2 1.6 1.6 0 0 1 2.2 0l2 2a1.4 1.4 0 0 0 2-1.9l-1.4-1.3a1.5 1.5 0 0 1 0-2.2 1.6 1.6 0 0 1 2.2 0l1.4 1.4a1.4 1.4 0 1 0 1.9-2 1.5 1.5 0 0 1 0-2.1 1.5 1.5 0 0 1 2.2 0l4.2 4.2a12.2 12.2 0 0 1-8.6 20.8z"/>
</svg>
