<svg xmlns="http://www.w3.org/2000/svg" width="138" height="50" viewBox="0 0 138 50">
    <path fill="#FFF" fill-rule="evenodd" d="M8.745,40.363 C6.3249879,40.363 4.51550599,39.6810068 3.3165,38.317 C2.11749401,36.9529932 1.46300055,34.9180135 1.353,32.212 L5.544,31.387 C5.61000033,33.0810085 5.87949763,34.3734955 6.3525,35.2645 C6.82550237,36.1555045 7.56799494,36.601 8.58,36.601 C9.32800374,36.601 9.88349819,36.3755023 10.2465,35.9245 C10.6095018,35.4734977 10.791,34.8630038 10.791,34.093 C10.791,33.0369947 10.5545024,32.1460036 10.0815,31.42 C9.60849763,30.6939964 8.86600506,29.8800045 7.854,28.978 L4.488,26.041 C3.45399483,25.1169954 2.67850259,24.1655049 2.1615,23.1865 C1.64449742,22.2074951 1.386,21.0030072 1.386,19.573 C1.386,17.4609894 2.00199384,15.8330057 3.234,14.689 C4.46600616,13.5449943 6.17098911,12.973 8.349,12.973 C10.6370114,12.973 12.2759951,13.6274935 13.266,14.9365 C14.256005,16.2455065 14.8279992,18.0109889 14.982,20.233 L10.791,20.959 C10.7249997,19.5289929 10.5325016,18.4400037 10.2135,17.692 C9.89449841,16.9439963 9.27300462,16.57 8.349,16.57 C7.60099626,16.57 7.01250215,16.8009977 6.5835,17.263 C6.15449786,17.7250023 5.94,18.3299963 5.94,19.078 C5.94,19.9360043 6.11599824,20.6509971 6.468,21.223 C6.82000176,21.7950029 7.36999626,22.4219966 8.118,23.104 L11.451,26.041 C12.7050063,27.1630056 13.6839965,28.3289939 14.388,29.539 C15.0920035,30.749006 15.444,32.1679919 15.444,33.796 C15.444,35.0720064 15.1635028,36.2049951 14.6025,37.195 C14.0414972,38.1850049 13.2550051,38.9604972 12.243,39.5215 C11.2309949,40.0825028 10.0650066,40.363 8.745,40.363 Z M22.181,13.27 L27.032,13.27 L27.032,24.424 L32.477,24.424 L32.477,13.27 L37.361,13.27 L37.361,40 L32.477,40 L32.477,27.922 L27.032,27.922 L27.032,40 L22.181,40 L22.181,13.27 Z M48.9819999,29.803 L43.5699999,13.27 L48.1239999,13.27 L51.4239999,23.863 L54.5259999,13.27 L58.9809999,13.27 L53.6349999,29.803 L53.6349999,40 L48.9819999,40 L48.9819999,29.803 Z M65.1239999,13.27 L72.9779999,13.27 C77.5320226,13.27 79.8089999,15.7999747 79.8089999,20.86 C79.8089999,25.7000242 77.4220237,28.12 72.6479999,28.12 L69.9749999,28.12 L69.9749999,40 L65.1239999,40 L65.1239999,13.27 Z M71.8559999,24.688 C73.1760065,24.688 74.0669975,24.4075028 74.5289999,23.8465 C74.9910022,23.2854972 75.2219999,22.2790073 75.2219999,20.827 C75.2219999,19.7709947 75.1450006,18.9625028 74.9909999,18.4015 C74.8369991,17.8404972 74.5235022,17.4170014 74.0504999,17.131 C73.5774975,16.8449986 72.8460048,16.702 71.8559999,16.702 L69.9749999,16.702 L69.9749999,24.688 L71.8559999,24.688 Z M86.3149998,13.27 L94.1689998,13.27 C98.7230226,13.27 101,15.7999747 101,20.86 C101,25.7000242 98.6130237,28.12 93.8389998,28.12 L91.1659998,28.12 L91.1659998,40 L86.3149998,40 L86.3149998,13.27 Z M93.0469998,24.688 C94.3670064,24.688 95.2579975,24.4075028 95.7199998,23.8465 C96.1820021,23.2854972 96.4129998,22.2790073 96.4129998,20.827 C96.4129998,19.7709947 96.3360006,18.9625028 96.1819998,18.4015 C96.027999,17.8404972 95.7145022,17.4170014 95.2414998,17.131 C94.7684974,16.8449986 94.0370048,16.702 93.0469998,16.702 L91.1659998,16.702 L91.1659998,24.688 L93.0469998,24.688 Z M107.506,13.27 L112.357,13.27 L112.357,36.667 L118.858,36.667 L118.858,40 L107.506,40 L107.506,13.27 Z M125.199,13.27 L136.419,13.27 L136.419,16.702 L130.05,16.702 L130.05,24.391 L135.066,24.391 L135.066,27.79 L130.05,27.79 L130.05,36.667 L136.485,36.667 L136.485,40 L125.199,40 L125.199,13.27 Z"></path>
</svg>