<?xml version="1.0" encoding="UTF-8"?>
<svg width="44px" height="26px" viewBox="0 0 44 26" version="1.1" xmlns="http://www.w3.org/2000/svg" xmlns:xlink="http://www.w3.org/1999/xlink">
    <!-- Generator: Sketch 51.2 (57519) - http://www.bohemiancoding.com/sketch -->
    <title>Fill 665 Copy 3</title>
    <desc>Created with Sketch.</desc>
    <defs></defs>
    <g id="Request-flow" stroke="none" stroke-width="1" fill="none" fill-rule="evenodd">
        <g id="Desktop-Copy-94" transform="translate(-304.000000, -215.000000)" fill="#98a0a5">
            <g id="Group-5-Copy-6" transform="translate(272.000000, 132.000000)">
                <path d="M44.7529453,108.60013 C39.0797453,108.59943 34.0889453,104.83763 32.5069453,99.3695296 C30.9249453,93.9014296 33.1319453,88.0419296 37.9225453,84.9916296 C42.7131453,81.9414296 48.9353453,82.4339296 53.1902453,86.2001296 L53.2133453,86.2001296 C59.3109453,91.5747296 67.1522453,94.5328296 75.2674453,94.5201296 C75.5010453,94.5201296 75.7409453,94.5201296 75.9999453,94.5113296 L75.9999453,97.0857296 C75.7481453,97.0809296 75.5089453,97.0777296 75.2674453,97.0777296 C67.1519453,97.0636296 59.3102453,100.02193 53.2133453,105.39773 L53.1902453,105.39773 C50.8604453,107.46113 47.8602453,108.59983 44.7529453,108.60013 Z" id="Fill-665-Copy-3"></path>
            </g>
        </g>
    </g>
</svg>