<?xml version="1.0" encoding="UTF-8"?>
<svg width="91px" height="26px" viewBox="0 0 91 26" version="1.1" xmlns="http://www.w3.org/2000/svg" xmlns:xlink="http://www.w3.org/1999/xlink">
    <!-- Generator: Sketch 51.2 (57519) - http://www.bohemiancoding.com/sketch -->
    <title>Fill 669</title>
    <desc>Created with Sketch.</desc>
    <defs></defs>
    <g id="Request-flow" stroke="none" stroke-width="1" fill="none" fill-rule="evenodd">
        <g id="Desktop-Copy-94" transform="translate(-651.000000, -215.000000)" fill="#2CAFFC">
            <g id="Group-5-Copy-6" transform="translate(272.000000, 132.000000)">
                <path d="M401.7966,105.37345 C395.7006,99.99725 387.8478,97.03825 379.7199,97.05465 L379,97.05465 L379,94.49505 L379.7999,94.49505 C387.7987,94.49505 395.6375,91.53545 401.7166,86.17625 C404.126156,84.0629988 407.13109,83.004253 410.137218,83.0000128 C410.303429,82.9997783 438.469642,83.0027676 438.63576,83.0089804 C441.486168,83.1155874 444.308081,84.1713439 446.5941,86.17625 C452.69,91.55245 460.5428,94.51145 468.6707,94.49505 L469.3906,94.49505 L469.3906,97.05465 L468.5907,97.05465 C460.5919,97.05465 452.7531,100.01425 446.674,105.37345 C444.345106,107.415959 441.460051,108.473381 438.555299,108.545716 C438.395419,108.549698 410.235479,108.550695 410.075569,108.548708 C407.116847,108.511939 404.168321,107.45352 401.7966,105.37345 Z" id="Fill-669"></path>
            </g>
        </g>
    </g>
</svg>