<?xml version="1.0" encoding="UTF-8"?>
<svg width="65px" height="26px" viewBox="0 0 65 26" version="1.1" xmlns="http://www.w3.org/2000/svg" xmlns:xlink="http://www.w3.org/1999/xlink">
    <!-- Generator: Sketch 51.2 (57519) - http://www.bohemiancoding.com/sketch -->
    <title>Fill 669 Copy</title>
    <desc>Created with Sketch.</desc>
    <defs></defs>
    <g id="Request-flow" stroke="none" stroke-width="1" fill="none" fill-rule="evenodd">
        <g id="Desktop-Copy-94" transform="translate(-472.000000, -215.000000)" fill="#2CAFFC">
            <g id="Group-5-Copy-6" transform="translate(272.000000, 132.000000)">
                <path d="M222.7966,105.37345 C216.7006,99.99725 208.8478,97.03825 200.7199,97.05465 L200,97.05465 L200,94.49505 L200.7999,94.49505 C208.7987,94.49505 216.6375,91.53545 222.7166,86.17625 C225.126156,84.0629988 228.13109,83.004253 231.137218,83.0000128 C231.303429,82.9997783 233.469642,83.0027676 233.63576,83.0089804 C236.486168,83.1155874 239.308081,84.1713439 241.5941,86.17625 C247.69,91.55245 255.5428,94.51145 263.6707,94.49505 L264.3906,94.49505 L264.3906,97.05465 L263.5907,97.05465 C255.5919,97.05465 247.7531,100.01425 241.674,105.37345 C239.345106,107.415959 236.460051,108.473381 233.555299,108.545716 C233.395419,108.549698 231.235479,108.550695 231.075569,108.548708 C228.116847,108.511939 225.168321,107.45352 222.7966,105.37345 Z" id="Fill-669-Copy"></path>
            </g>
        </g>
    </g>
</svg>