<?xml version="1.0" encoding="UTF-8"?>
<svg width="16px" height="16px" viewBox="0 0 16 16" version="1.1" xmlns="http://www.w3.org/2000/svg" xmlns:xlink="http://www.w3.org/1999/xlink">
    <!-- Generator: Sketch 50.2 (55047) - http://www.bohemiancoding.com/sketch -->
    <title>ic/car</title>
    <desc>Created with Sketch.</desc>
    <defs>
        <path d="M15.3980198,3.78613861 C15.7782178,3.67524752 15.8415842,3.43762376 15.8415842,3.18415842 C15.8415842,2.91485149 15.6673267,2.67722772 15.3188119,2.67722772 L13.639604,2.67722772 C12.4990099,0.902970297 11.8811881,0.0316831683 10.0277228,0.0316831683 L5.81386139,0.0316831683 C3.96039604,0.0316831683 3.34257426,0.902970297 2.2019802,2.66138614 L0.522772277,2.66138614 C0.174257426,2.66138614 0,2.91485149 0,3.16831683 C0,3.43762376 0.0633663366,3.65940594 0.443564356,3.77029703 L1.67920792,4.02376238 L0,5.30693069 L0,11.0257426 C0,11.5168317 0.396039604,11.9128713 0.887128713,11.9128713 L2.2019802,11.9128713 C2.69306931,11.9128713 3.08910891,11.5168317 3.08910891,11.0257426 L3.08910891,10.5821782 L7.92079208,10.5821782 L12.7683168,10.5821782 L12.7683168,11.0257426 C12.7683168,11.5168317 13.1643564,11.9128713 13.6554455,11.9128713 L14.970297,11.9128713 C15.4613861,11.9128713 15.8574257,11.5168317 15.8574257,11.0257426 L15.8574257,5.30693069 L14.1782178,4.03960396 L15.3980198,3.78613861 Z M3.96039604,7.95247525 L1.98019802,7.95247525 C1.25148515,7.95247525 0.443564356,7.36633663 0.443564356,6.63762376 L0.443564356,6.19405941 L2.64554455,6.19405941 C3.37425743,6.19405941 3.96039604,6.78019802 3.96039604,7.50891089 L3.96039604,7.95247525 Z M7.92079208,7.50891089 C7.92079208,7.74653465 7.50891089,7.95247525 7.25544554,7.95247525 L5.94059406,7.95247525 C5.38613861,7.95247525 4.62574257,7.50891089 4.62574257,6.63762376 C4.62574257,6.36831683 4.97425743,6.19405941 5.24356436,6.19405941 L7.27128713,6.19405941 C7.50891089,6.19405941 7.93663366,6.38415842 7.93663366,6.63762376 L7.93663366,7.50891089 L7.92079208,7.50891089 Z M3.07326733,3.54851485 C3.58019802,2.17029703 4.16633663,0.902970297 5.54455446,0.902970297 L10.2970297,0.902970297 C11.6752475,0.902970297 12.2613861,2.17029703 12.7683168,3.54851485 L3.07326733,3.54851485 Z M9.9009901,7.95247525 L8.58613861,7.95247525 C8.34851485,7.95247525 7.92079208,7.76237624 7.92079208,7.50891089 L7.92079208,6.62178218 C7.92079208,6.38415842 8.33267327,6.17821782 8.58613861,6.17821782 L10.6138614,6.17821782 C10.8831683,6.17821782 11.2316832,6.35247525 11.2316832,6.62178218 C11.2158416,7.50891089 10.4554455,7.95247525 9.9009901,7.95247525 Z M14.9544554,6.19405941 L14.9544554,6.63762376 C14.9544554,7.36633663 14.590099,7.95247525 13.8613861,7.95247525 L11.8811881,7.95247525 L11.8811881,7.50891089 C11.8811881,6.78019802 12.4673267,6.19405941 13.1960396,6.19405941 L14.9544554,6.19405941 Z" id="path-1"></path>
    </defs>
    <g id="ic/car" stroke="none" stroke-width="1" fill="none" fill-rule="evenodd">
        <g transform="translate(0.000000, 2.000000)">
            <mask id="mask-2" fill="white">
                <use xlink:href="#path-1"></use>
            </mask>
            <use id="Mask" fill="#262626" fill-rule="nonzero" xlink:href="#path-1"></use>
            <g id="Color/Black" mask="url(#mask-2)">
                <g transform="translate(-0.158416, -0.792079)">
                    <rect id="Fill/Secondary" stroke="none" fill="#2274d7" fill-rule="evenodd" x="0" y="0" width="17" height="17"></rect>
                    <rect id="Border/Secondary" stroke="#2274d7" stroke-width="1" fill="none" x="0" y="0" width="17" height="17"></rect>
                </g>
            </g>
        </g>
    </g>
</svg>