<?xml version="1.0" encoding="UTF-8"?>
<svg width="16px" height="16px" viewBox="0 0 16 16" version="1.1" xmlns="http://www.w3.org/2000/svg" xmlns:xlink="http://www.w3.org/1999/xlink">
    <!-- Generator: Sketch 50.2 (55047) - http://www.bohemiancoding.com/sketch -->
    <title>ic/controls</title>
    <desc>Created with Sketch.</desc>
    <defs>
        <path d="M7.11111111,12.4444444 C7.11111111,12.9333333 7.51111111,13.3333333 8,13.3333333 C8.48888889,13.3333333 8.88888889,12.9333333 8.88888889,12.4444444 C8.88888889,11.9555556 8.48888889,11.5555556 8,11.5555556 C7.51111111,11.5555556 7.11111111,11.9555556 7.11111111,12.4444444 Z M7.11111111,0 L7.11111111,3.55555556 L8.88888889,3.55555556 L8.88888889,1.84888889 C11.9022222,2.28444444 14.2222222,4.86222222 14.2222222,8 C14.2222222,11.44 11.44,14.2222222 8,14.2222222 C4.56,14.2222222 1.77777778,11.44 1.77777778,8 C1.77777778,6.50666667 2.30222222,5.13777778 3.18222222,4.07111111 L8,8.88888889 L9.25333333,7.63555556 L3.20888889,1.59111111 L3.20888889,1.60888889 C1.26222222,3.06666667 0,5.37777778 0,8 C0,12.4177778 3.57333333,16 8,16 C12.4177778,16 16,12.4177778 16,8 C16,3.58222222 12.4177778,0 8,0 L7.11111111,0 Z M13.3333333,8 C13.3333333,7.51111111 12.9333333,7.11111111 12.4444444,7.11111111 C11.9555556,7.11111111 11.5555556,7.51111111 11.5555556,8 C11.5555556,8.48888889 11.9555556,8.88888889 12.4444444,8.88888889 C12.9333333,8.88888889 13.3333333,8.48888889 13.3333333,8 Z M2.66666667,8 C2.66666667,8.48888889 3.06666667,8.88888889 3.55555556,8.88888889 C4.04444444,8.88888889 4.44444444,8.48888889 4.44444444,8 C4.44444444,7.51111111 4.04444444,7.11111111 3.55555556,7.11111111 C3.06666667,7.11111111 2.66666667,7.51111111 2.66666667,8 Z" id="path-1"></path>
    </defs>
    <g id="ic/controls" stroke="none" stroke-width="1" fill="none" fill-rule="evenodd">
        <g id="sharp-av_timer-24px">
            <g id="Color/Dark_grey">
                <mask id="mask-2" fill="white">
                    <use xlink:href="#path-1"></use>
                </mask>
                <use id="Mask" fill="#000000" fill-rule="nonzero" xlink:href="#path-1"></use>
                <g mask="url(#mask-2)">
                    <g transform="translate(-43.428571, -42.285714)">
                        <rect id="Fill/Secondary" stroke="none" fill="#666666" fill-rule="evenodd" x="0" y="0" width="98" height="98"></rect>
                        <rect id="Border/Secondary" stroke="#666666" stroke-width="1" fill="none" x="0" y="0" width="98" height="98"></rect>
                    </g>
                </g>
            </g>
        </g>
    </g>
</svg>