<?xml version="1.0" encoding="UTF-8"?>
<svg width="16px" height="16px" viewBox="0 0 16 16" version="1.1" xmlns="http://www.w3.org/2000/svg" xmlns:xlink="http://www.w3.org/1999/xlink">
    <!-- Generator: Sketch 50.2 (55047) - http://www.bohemiancoding.com/sketch -->
    <title>ic/smell</title>
    <desc>Created with Sketch.</desc>
    <defs>
        <path d="M8,8 C8,5.81818182 9.81818182,4 12,4 C14.1818182,4 16,5.81818182 16,8 L8,8 Z M8,8 C8,10.1818182 6.18181818,12 4,12 C1.81818182,12 0,10.1818182 0,8 L8,8 Z M8,8 C5.81818182,8 4,6.18181818 4,4 C4,1.81818182 5.81818182,0 8,0 L8,8 Z M8,8 C10.1818182,8 12,9.81818182 12,12 C12,14.1818182 10.1818182,16 8,16 L8,8 Z" id="path-1"></path>
    </defs>
    <g id="ic/smell" stroke="none" stroke-width="1" fill="none" fill-rule="evenodd">
        <g id="baseline-toys-24px">
            <g id="Color/Dark_grey">
                <mask id="mask-2" fill="white">
                    <use xlink:href="#path-1"></use>
                </mask>
                <use id="Mask" fill="#2273d7" fill-rule="nonzero" xlink:href="#path-1"></use>
                <g mask="url(#mask-2)">
                    <g transform="translate(-36.000000, -35.000000)">
                        <rect id="Fill/Secondary" stroke="none" fill="#2273d7" fill-rule="evenodd" x="0" y="0" width="86" height="86"></rect>
                        <rect id="Border/Secondary" stroke="#2273d7" stroke-width="1" fill="none" x="0" y="0" width="86" height="86"></rect>
                    </g>
                </g>
            </g>
        </g>
    </g>
</svg>