<?xml version="1.0" encoding="UTF-8"?>
<svg width="16px" height="16px" viewBox="0 0 16 16" version="1.1" xmlns="http://www.w3.org/2000/svg" xmlns:xlink="http://www.w3.org/1999/xlink">
    <!-- Generator: Sketch 50.2 (55047) - http://www.bohemiancoding.com/sketch -->
    <title>ic/software</title>
    <desc>Created with Sketch.</desc>
    <defs>
        <path d="M10.6666667,5.33333333 L5.33333333,5.33333333 L5.33333333,10.6666667 L10.6666667,10.6666667 L10.6666667,5.33333333 Z M9.28999996,9.28999996 L6.80999994,9.28999996 L6.80999994,6.80999994 L9.28999996,6.80999994 L9.28999996,9.28999996 Z M16,7.11111111 L16,5.33333333 L14.2222222,5.33333333 L14.2222222,3.55555556 C14.2222222,2.57777778 13.4222222,1.77777778 12.4444444,1.77777778 L10.6666667,1.77777778 L10.6666667,0 L8.88888889,0 L8.88888889,1.77777778 L7.11111111,1.77777778 L7.11111111,0 L5.33333333,0 L5.33333333,1.77777778 L3.55555556,1.77777778 C2.57777778,1.77777778 1.77777778,2.57777778 1.77777778,3.55555556 L1.77777778,5.33333333 L0,5.33333333 L0,7.11111111 L1.77777778,7.11111111 L1.77777778,8.88888889 L0,8.88888889 L0,10.6666667 L1.77777778,10.6666667 L1.77777778,12.4444444 C1.77777778,13.4222222 2.57777778,14.2222222 3.55555556,14.2222222 L5.33333333,14.2222222 L5.33333333,16 L7.11111111,16 L7.11111111,14.2222222 L8.88888889,14.2222222 L8.88888889,16 L10.6666667,16 L10.6666667,14.2222222 L12.4444444,14.2222222 C13.4222222,14.2222222 14.2222222,13.4222222 14.2222222,12.4444444 L14.2222222,10.6666667 L16,10.6666667 L16,8.88888889 L14.2222222,8.88888889 L14.2222222,7.11111111 L16,7.11111111 Z M12.7399998,12.7399998 L3.25999999,12.7399998 L3.25999999,3.25999999 L12.7399998,3.25999999 L12.7399998,12.7399998 Z" id="path-1"></path>
    </defs>
    <g id="ic/software" stroke="none" stroke-width="1" fill="none" fill-rule="evenodd">
        <g id="Color/Dark_grey">
            <mask id="mask-2" fill="white">
                <use xlink:href="#path-1"></use>
            </mask>
            <use id="Mask" fill="#000000" fill-rule="nonzero" xlink:href="#path-1"></use>
            <g mask="url(#mask-2)">
                <g transform="translate(-43.428571, -44.571429)">
                    <rect id="Fill/Secondary" stroke="none" fill="#666666" fill-rule="evenodd" x="0" y="0" width="98" height="98"></rect>
                    <rect id="Border/Secondary" stroke="#666666" stroke-width="1" fill="none" x="0" y="0" width="98" height="98"></rect>
                </g>
            </g>
        </g>
    </g>
</svg>