<?xml version="1.0" encoding="UTF-8"?>
<svg width="16px" height="16px" viewBox="0 0 16 16" version="1.1" xmlns="http://www.w3.org/2000/svg" xmlns:xlink="http://www.w3.org/1999/xlink">
    <!-- Generator: Sketch 50.2 (55047) - http://www.bohemiancoding.com/sketch -->
    <title>ic/sound</title>
    <desc>Created with Sketch.</desc>
    <defs>
        <path d="M10.7795958,14.4600577 C10.5563041,14.4600577 10.3484119,14.4138595 10.1944177,14.3445621 C9.64773821,14.0596728 9.26275265,13.6669875 8.87776708,12.5120308 C8.48508181,11.3108758 7.74590953,10.7487969 7.03753609,10.2021174 C6.4292589,9.73243503 5.79788258,9.24735322 5.25120308,8.25409047 C4.84311838,7.51491819 4.61982676,6.70644851 4.61982676,5.99037536 C4.61982676,3.83445621 6.31376323,2.14051973 8.46968239,2.14051973 C10.6256015,2.14051973 12.319538,3.83445621 12.319538,5.99037536 L13.8594803,5.99037536 C13.8594803,2.96438884 11.4956689,0.600577478 8.46968239,0.600577478 C5.44369586,0.600577478 3.0798845,2.96438884 3.0798845,5.99037536 C3.0798845,6.96053898 3.37247353,8.03079885 3.90375361,8.99326275 C4.60442733,10.2637151 5.42829644,10.9027911 6.09817132,11.4186718 C6.72184793,11.8960539 7.16843118,12.2425409 7.41482194,12.9971126 C7.87680462,14.3984601 8.46968239,15.1838306 9.51684312,15.7305101 C9.90952839,15.9076035 10.3407122,16 10.7795958,16 C12.481232,16 13.8594803,14.6217517 13.8594803,12.9201155 L12.319538,12.9201155 C12.319538,13.7670837 11.626564,14.4600577 10.7795958,14.4600577 Z M3.57266603,1.093359 L2.47930703,0 C0.947064485,1.53224254 0,3.64966314 0,5.99037536 C0,8.33108758 0.947064485,10.4485082 2.47930703,11.9807507 L3.56496631,10.8950914 C2.31761309,9.6400385 1.53994225,7.90760346 1.53994225,5.99037536 C1.53994225,4.07314726 2.31761309,2.34071222 3.57266603,1.093359 Z M6.54475457,5.99037536 C6.54475457,7.05293551 7.40712223,7.91530318 8.46968239,7.91530318 C9.53224254,7.91530318 10.3946102,7.05293551 10.3946102,5.99037536 C10.3946102,4.92781521 9.53224254,4.06544755 8.46968239,4.06544755 C7.40712223,4.06544755 6.54475457,4.92781521 6.54475457,5.99037536 Z" id="path-1"></path>
    </defs>
    <g id="ic/sound" stroke="none" stroke-width="1" fill="none" fill-rule="evenodd">
        <g id="baseline-hearing-24px" transform="translate(1.000000, 0.000000)">
            <mask id="mask-2" fill="white">
                <use xlink:href="#path-1"></use>
            </mask>
            <use id="Mask" fill="#000000" fill-rule="nonzero" xlink:href="#path-1"></use>
            <g id="Color/Dark_grey" mask="url(#mask-2)">
                <g transform="translate(-33.000000, -36.000000)">
                    <rect id="Fill/Secondary" stroke="none" fill="#2273d7" fill-rule="evenodd" x="0" y="0" width="86" height="86"></rect>
                    <rect id="Border/Secondary" stroke="#2273d7" stroke-width="1" fill="none" x="0" y="0" width="86" height="86"></rect>
                </g>
            </g>
        </g>
    </g>
</svg>