<?xml version="1.0" encoding="UTF-8"?>
<svg width="16px" height="16px" viewBox="0 0 16 16" version="1.1" xmlns="http://www.w3.org/2000/svg" xmlns:xlink="http://www.w3.org/1999/xlink">
    <!-- Generator: Sketch 50.2 (55047) - http://www.bohemiancoding.com/sketch -->
    <title>ic/usability</title>
    <desc>Created with Sketch.</desc>
    <defs>
        <path d="M10.8171875,9.82142857 C11.2723981,10.0357154 11.5,10.38095 11.5,10.8571429 L11.5,11 L10.925,15.0357143 C10.9010415,15.32143 10.7812511,15.5535705 10.565625,15.7321429 C10.3499989,15.9107152 10.0984389,16 9.8109375,16 L4.6,16 C4.28854011,16 4.02500108,15.8928582 3.809375,15.6785714 L0,11.8928571 L0.6109375,11.2857143 C0.778646672,11.1190468 0.982290469,11.0357143 1.221875,11.0357143 C1.24583345,11.0357143 1.27578107,11.0416666 1.31171875,11.0535714 C1.34765643,11.0654762 1.37760405,11.0714286 1.4015625,11.0714286 L4.025,11.6071429 L4.025,3.42857143 C4.025,3.09523643 4.13880095,2.82142964 4.36640625,2.60714286 C4.59401155,2.39285607 4.86354011,2.28571429 5.175,2.28571429 C5.48645989,2.28571429 5.75598845,2.39285607 5.98359375,2.60714286 C6.21119905,2.82142964 6.325,3.09523643 6.325,3.42857143 L6.325,8 L6.9359375,8 C7.00781286,8 7.13958237,8.02380929 7.33125,8.07142857 L10.8171875,9.82142857 Z M3.2703125,6.28571429 C2.24009902,5.61904429 1.725,4.66667286 1.725,3.42857143 C1.725,2.47618571 2.06041331,1.66667 2.73125,1 C3.40208669,0.33333 4.21666187,0 5.175,0 C6.13333812,0 6.94791331,0.33333 7.61875,1 C8.28958669,1.66667 8.625,2.47618571 8.625,3.42857143 C8.625,4.6904825 8.12188003,5.64285393 7.115625,6.28571429 L7.115625,3.42857143 C7.115625,2.90475929 6.92396025,2.45833518 6.540625,2.08928571 C6.15728975,1.72023625 5.70208597,1.53571429 5.175,1.53571429 C4.64791403,1.53571429 4.19869977,1.72023625 3.82734375,2.08928571 C3.45598773,2.45833518 3.2703125,2.90475929 3.2703125,3.42857143 L3.2703125,6.28571429 Z" id="path-1"></path>
    </defs>
    <g id="ic/usability" stroke="none" stroke-width="1" fill="none" fill-rule="evenodd">
        <g id="baseline-toys-24px" transform="translate(2.000000, 0.000000)">
            <g id="Color/Dark_grey">
                <g>
                    <mask id="mask-2" fill="white">
                        <use xlink:href="#path-1"></use>
                    </mask>
                    <use id="Mask" fill="#2273d7" xlink:href="#path-1"></use>
                    <g mask="url(#mask-2)">
                        <g transform="translate(-44.850000, -41.142857)">
                            <rect id="Fill/Secondary" stroke="none" fill="#2273d7" fill-rule="evenodd" x="0" y="0" width="99" height="98"></rect>
                            <rect id="Border/Secondary" stroke="#2273d7" stroke-width="1" fill="none" x="0" y="0" width="99" height="98"></rect>
                        </g>
                    </g>
                </g>
            </g>
        </g>
    </g>
</svg>