<svg width="46" height="46" viewBox="0 0 46 46" fill="none" xmlns="http://www.w3.org/2000/svg">
<circle cx="23.25" cy="23" r="22.5" fill="white"/>
<path fill-rule="evenodd" clip-rule="evenodd" d="M23.2447 4C20.3202 4 17.5502 4.65789 15.074 5.83179C15.5904 5.72362 16.103 5.64461 16.6103 5.59161C19.0472 5.33696 21.3519 5.68389 23.3654 6.26495C25.378 5.68366 27.6245 5.34423 30.0043 5.60718C30.4725 5.6589 30.9453 5.73391 31.4222 5.83478C28.9442 4.65889 26.1718 4 23.2447 4ZM10.4716 8.90232C7.55218 11.5337 5.45361 15.054 4.60591 19.0354C4.49408 21.4812 4.96694 23.6039 5.77203 25.4309C6.70151 27.5403 8.07664 29.2652 9.50805 30.6429C8.2397 28.3814 7.5158 25.7752 7.5158 23C7.5158 14.3955 14.4657 7.41065 23.0736 7.31899C21.1732 6.76914 19.0036 6.4396 16.7218 6.67802C14.6992 6.88935 12.5805 7.54948 10.4716 8.90232ZM23.6475 7.32187C32.1483 7.5349 38.9736 14.4727 38.9736 23C38.9736 25.7604 38.2576 28.3535 37.0018 30.6066C38.426 29.2191 39.7925 27.4833 40.7108 25.3631C41.5243 23.4845 41.9874 21.3002 41.8283 18.7831C40.959 14.9581 38.9324 11.571 36.1348 9.00754C33.9988 7.60251 31.8914 6.91534 29.8842 6.69361C27.659 6.44777 25.5458 6.77119 23.6475 7.32187ZM36.7706 31.0073C34.0281 35.6031 28.9975 38.6832 23.2447 38.6832C17.5166 38.6832 12.5042 35.6297 9.75388 31.0665C10.2143 32.999 10.979 35.0219 12.3018 36.8543C13.4329 38.4211 14.9778 39.8567 17.0984 40.9895C19.0268 41.6444 21.094 42 23.2447 42C25.3683 42 27.4107 41.6533 29.3182 41.014C31.514 39.8578 33.1004 38.3933 34.2513 36.7941C35.5693 34.9627 36.3237 32.9452 36.7706 31.0073V31.0073ZM34.3315 38.454C38.805 35.2575 41.8331 30.178 42.25 24.3775C42.0943 24.8669 41.9163 25.3393 41.7189 25.795C40.7477 28.0375 39.3139 29.8715 37.8175 31.3384C37.3396 33.3723 36.5355 35.4913 35.1393 37.4314C34.8893 37.7789 34.6205 38.1202 34.3315 38.454ZM4.25 24.5206C4.70732 30.2778 7.73782 35.3127 12.1954 38.4813C11.9166 38.1581 11.6565 37.8277 11.4138 37.4916C10.0075 35.5436 9.19288 33.4152 8.70278 31.3856C7.19839 29.9289 5.75406 28.1043 4.76828 25.8672C4.57721 25.4336 4.40353 24.9848 4.25 24.5206Z" fill="black"/>
</svg>
