<svg width="18" height="21" xmlns="http://www.w3.org/2000/svg">
 <g>
  <title>background</title>
  <rect x="-1" y="-1" width="20" height="23" id="canvas_background" fill="none"/>
 </g>

 <g>
  <title>Layer 1</title>
  <g stroke="null" id="svg_4">
   <path stroke="null" d="m14.586701,3.284928c-3.084719,-3.084528 -8.069026,-3.059595 -11.153744,0.025123c-3.084714,3.084524 -3.106601,8.079872 -0.021882,11.16459l5.573158,5.541376l5.585341,-5.585341c3.084528,-3.084719 3.101656,-8.06103 0.017128,-11.145749zm-5.581153,10.303009c-2.624521,0 -4.752119,-2.127783 -4.752119,-4.752119c0,-2.624521 2.127598,-4.752114 4.752119,-4.752114s4.751924,2.127593 4.751924,4.752114c0,2.624336 -2.127403,4.752119 -4.751924,4.752119z" id="svg_1" fill="#259ff2"/>
   <g stroke="null" id="svg_2">
    <path stroke="null" d="m8.409083,8.85257l-2.792575,-0.392632l0.264736,-0.807151l2.988989,-0.222103l0.533845,-1.635424c0.119525,-0.367323 0.301852,-0.550792 0.546414,-0.550792c0.14236,0 0.264736,0.041871 0.367318,0.125993c0.102392,0.083932 0.153967,0.195652 0.153967,0.335156c0,0.105438 -0.027213,0.241897 -0.081267,0.409951l-0.525283,1.622674l2.318676,1.95992l-0.264926,0.806961l-2.519083,-1.340811l-0.550978,1.686623l0.580855,1.212533l-0.196599,0.606555l-1.080068,-1.362127l-1.678061,0.465332l0.196414,-0.606359l1.195591,-0.644808l0.542035,-1.669494l0,0.000005z" id="svg_3" fill="#FFFFFF"/>
   </g>
  </g>
 </g>
</svg>