<svg width="36" height="42" xmlns="http://www.w3.org/2000/svg">

 <g>
  <title>background</title>
  <rect fill="none" id="canvas_background" height="44" width="38" y="-1" x="-1"/>
 </g>
 <g>
  <title>Layer 1</title>
  <g stroke="null" id="svg_4">
   <path stroke="null" fill="#259ff2" id="svg_1" d="m29.738941,5.839479c-6.481697,-6.481298 -16.95487,-6.42891 -23.436567,0.052788c-6.481697,6.481298 -6.527687,16.977664 -0.045989,23.459362l11.710485,11.643701l11.736079,-11.736079c6.481298,-6.481697 6.517289,-16.938074 0.035992,-23.419771zm-11.727281,21.648981c-5.514722,0 -9.985285,-4.470964 -9.985285,-9.985285c0,-5.514722 4.470564,-9.985285 9.985285,-9.985285s9.984885,4.470564 9.984885,9.985285c0,5.514322 -4.470164,9.985285 -9.984885,9.985285z"/>
   <g stroke="null" id="svg_2">
    <path stroke="null" fill="#FFFFFF" id="svg_3" d="m16.75835,17.538367l-5.86784,-0.825009l0.556271,-1.696007l6.280544,-0.466692l1.12174,-3.436403c0.251142,-0.771821 0.634253,-1.157332 1.148134,-1.157332c0.299131,0 0.556271,0.08798 0.771821,0.264739c0.21515,0.176359 0.323525,0.411105 0.323525,0.704237c0,0.221549 -0.057187,0.508282 -0.17076,0.8614l-1.103744,3.40961l4.872071,4.118245l-0.556671,1.695607l-5.293173,-2.817347l-1.157732,3.543978l1.220517,2.547809l-0.413104,1.274505l-2.269474,-2.862137l-3.525983,0.977773l0.412704,-1.274105l2.512218,-1.354886l1.138936,-3.507987z"/>
   </g>
  </g>
 </g>
</svg>