<?xml version="1.0" encoding="UTF-8"?>
<svg width="16px" height="16px" viewBox="0 0 16 16" version="1.1" xmlns="http://www.w3.org/2000/svg" xmlns:xlink="http://www.w3.org/1999/xlink">
    <!-- Generator: Sketch 50.2 (55047) - http://www.bohemiancoding.com/sketch -->
    <title>ic/notifications/default</title>
    <desc>Created with Sketch.</desc>
    <defs>
        <path d="M8.98245614,10.877193 L8.98245614,6.38596491 C8.98245614,5.42689579 8.71345298,4.62573421 8.1754386,3.98245614 C7.63742421,3.33917807 6.91228526,3.01754386 6,3.01754386 C5.08771474,3.01754386 4.36257579,3.33917807 3.8245614,3.98245614 C3.28654702,4.62573421 3.01754386,5.42689579 3.01754386,6.38596491 L3.01754386,10.877193 L8.98245614,10.877193 Z M10.4912281,10.1052632 L12,11.6140351 L12,12.3508772 L0,12.3508772 L0,11.6140351 L1.50877193,10.1052632 L1.50877193,6.38596491 C1.50877193,5.21636842 1.80701456,4.19883474 2.40350877,3.33333333 C3.00000298,2.46783193 3.82455614,1.90643404 4.87719298,1.64912281 L4.87719298,1.12280702 C4.87719298,0.81871193 4.98245509,0.555556667 5.19298246,0.333333333 C5.40350982,0.11111 5.67251298,0 6,0 C6.32748702,0 6.59649018,0.11111 6.80701754,0.333333333 C7.01754491,0.555556667 7.12280702,0.81871193 7.12280702,1.12280702 L7.12280702,1.64912281 C8.17544386,1.90643404 8.99999702,2.46783193 9.59649123,3.33333333 C10.1929854,4.19883474 10.4912281,5.21636842 10.4912281,6.38596491 L10.4912281,10.1052632 Z M7.05263158,14.1754386 C6.74853649,14.4561418 6.39766281,14.5964912 6,14.5964912 C5.60233719,14.5964912 5.25146351,14.4502939 4.94736842,14.1578947 C4.64327333,13.8654956 4.49122807,13.5204698 4.49122807,13.122807 L7.50877193,13.122807 C7.50877193,13.5204698 7.35672667,13.8713435 7.05263158,14.1754386 Z" id="path-1"></path>
    </defs>
    <g id="ic/notifications/default" stroke="none" stroke-width="1" fill="none" fill-rule="evenodd">
        <g transform="translate(2.000000, 0.000000)">
            <mask id="mask-2" fill="white">
                <use xlink:href="#path-1"></use>
            </mask>
            <use id="Mask" fill="#8E8E8E" xlink:href="#path-1"></use>
            <g id="Color/Dark_grey" mask="url(#mask-2)">
                <g transform="translate(-40.000000, -37.000000)">
                    <rect id="Fill/Secondary" stroke="none" fill="#666666" fill-rule="evenodd" x="0" y="0" width="86" height="86"></rect>
                    <rect id="Border/Secondary" stroke="#666666" stroke-width="1" fill="none" x="0" y="0" width="86" height="86"></rect>
                </g>
            </g>
        </g>
    </g>
</svg>