<svg width="15" height="15" viewBox="0 0 15 15" fill="none"
  xmlns="http://www.w3.org/2000/svg">
  <path d="M7.5 1.5C5.19922 1.5 2.80566 2.01855 2.80566 2.01855L2.80371 2.02051C2.33691 2.11426 2.00098 2.52344 2 3V6C2 11.1992 7.01074 13.3721 7.01074 13.3721C7.16016 13.4561 7.3291 13.5 7.5 13.5C7.6709 13.5 7.83887 13.4561 7.9873 13.3721H7.98926C7.99023 13.3721 13 11.1992 13 6V3C13 2.52246 12.6631 2.11133 12.1943 2.01855C12.1943 2.01855 9.80078 1.5 7.5 1.5ZM7.5 3.5C7.96582 3.5 8.125 3.875 8.125 3.875C8.63672 3.875 8.875 4.39258 8.875 5C8.875 5.30273 8.74316 5.55371 8.74316 5.55371C8.7959 5.58398 8.88379 5.68066 8.86133 5.85254C8.82031 6.17383 8.68164 6.25488 8.59277 6.26172C8.55859 6.56152 8.1123 6.99023 8 7.0459V7.5C8.25 8.25 9.9541 7.86328 9.9541 9.5H5.0459C5.0459 7.86328 6.75 8.25 7 7.5V7.0459C6.8877 6.99023 6.44043 6.56152 6.40723 6.26172C6.31836 6.25488 6.17969 6.17383 6.13867 5.85254C6.11621 5.68066 6.2041 5.58398 6.25684 5.55371C6.25684 5.55371 6.125 5.27637 6.125 5C6.125 4.17969 6.68848 3.5 7.5 3.5Z" fill="#F1C40F"/>
</svg>
