<svg width="17" height="19" viewBox="0 0 17 19" fill="none"
  xmlns="http://www.w3.org/2000/svg">
  <path d="M8.5 1C5.36257 1 2.09863 1.73462 2.09863 1.73462L2.09597 1.73739C1.45943 1.8702 1.00133 2.44987 1 3.125V7.375C1 14.7406 7.83283 17.8188 7.83283 17.8188C8.03658 17.9377 8.26696 18 8.5 18C8.73304 18 8.96209 17.9377 9.16451 17.8188H9.16717C9.1685 17.8188 16 14.7406 16 7.375V3.125C16 2.44849 15.5406 1.86605 14.9014 1.73462C14.9014 1.73462 11.6374 1 8.5 1ZM8.5 3.83333C9.13521 3.83333 9.35227 4.36458 9.35227 4.36458C10.0501 4.36458 10.375 5.09782 10.375 5.95833C10.375 6.38721 10.1952 6.74276 10.1952 6.74276C10.2671 6.78564 10.387 6.92261 10.3564 7.1661C10.3004 7.62126 10.1113 7.73608 9.99015 7.74577C9.94354 8.17049 9.33496 8.77783 9.18182 8.85669V9.5C9.52273 10.5625 11.8465 10.0146 11.8465 12.3333H5.1535C5.1535 10.0146 7.47727 10.5625 7.81818 9.5V8.85669C7.66504 8.77783 7.05513 8.17049 7.00985 7.74577C6.88867 7.73608 6.69957 7.62126 6.64364 7.1661C6.61301 6.92261 6.73287 6.78564 6.80478 6.74276C6.80478 6.74276 6.625 6.34985 6.625 5.95833C6.625 4.79622 7.39338 3.83333 8.5 3.83333Z" stroke="white" stroke-opacity="1"/>
</svg>
