<svg width="19" height="14" viewBox="0 0 19 14" fill="none"
  xmlns="http://www.w3.org/2000/svg">
  <path d="M8.94126 7.58316H3.91185C3.56259 7.58316 3.35303 7.36446 3.35303 6.99987C3.35303 6.63529 3.56259 6.4165 3.91185 6.4165H8.94126C9.29053 6.4165 9.50009 6.63529 9.50009 6.99987C9.50009 7.36446 9.29053 7.58316 8.94126 7.58316Z" fill="white" fill-opacity="1"/>
  <path d="M8.94126 4.66665H3.91185C3.56259 4.66665 3.35303 4.44795 3.35303 4.08337C3.35303 3.71879 3.56259 3.5 3.91185 3.5H8.94126C9.29053 3.5 9.50009 3.71879 9.50009 4.08337C9.50009 4.44795 9.29053 4.66665 8.94126 4.66665Z" fill="white" fill-opacity="1"/>
  <path d="M17.3235 14H1.67647C0.768384 14 0 13.1979 0 12.25V1.74993C0 0.802014 0.768384 0 1.67647 0H17.3235C18.2316 0 19 0.802014 19 1.74993V12.25C19 13.1979 18.2316 14 17.3235 14ZM1.67647 1.16665C1.32721 1.16665 1.11765 1.38535 1.11765 1.74993V12.25C1.11765 12.6146 1.32721 12.8333 1.67647 12.8333H17.3235C17.6728 12.8333 17.8824 12.6146 17.8824 12.25V1.74993C17.8824 1.38535 17.6728 1.16665 17.3235 1.16665H1.67647Z" fill="white" fill-opacity="1"/>
  <path d="M15.0883 10.4999H3.91185C3.56259 10.4999 3.35303 10.2812 3.35303 9.91662C3.35303 9.55204 3.56259 9.33325 3.91185 9.33325H15.0883C15.4376 9.33325 15.6471 9.55204 15.6471 9.91662C15.6471 10.2812 15.4376 10.4999 15.0883 10.4999Z" fill="white" fill-opacity="1"/>
  <path d="M15.0882 7.94786H12.1544C11.8051 7.94786 11.5956 7.72916 11.5956 7.36458V3.86453C11.5956 3.49995 11.8051 3.28125 12.1544 3.28125H15.0882C15.4375 3.28125 15.647 3.49995 15.647 3.86453V7.36458C15.647 7.65624 15.4375 7.94786 15.0882 7.94786ZM12.7831 6.78121H14.5993V4.4479H12.7831V6.78121Z" fill="white" fill-opacity="1"/>
</svg>
