<svg width="16" height="15" viewBox="0 0 16 15" fill="none" xmlns="http://www.w3.org/2000/svg">
<path d="M13.5 15H2.5C1.125 15 0 13.875 0 12.5V3.5C0 2.125 1.125 1 2.5 1H13.5C14.875 1 16 2.125 16 3.5V12.5C16 13.875 14.9375 15 13.5 15ZM2.5 1.99998C1.6875 1.99998 0.999985 2.6875 0.999985 3.5V12.5C0.999985 13.3125 1.6875 14 2.5 14H13.5C14.3125 14 15 13.3125 15 12.5V3.5C15 2.6875 14.3125 1.99998 13.5 1.99998H2.5Z" fill="white" fill-opacity="1"/>
<path d="M4.99999 2.99999C4.68749 2.99999 4.5 2.8125 4.5 2.5V0.499992C4.5 0.187492 4.68749 0 4.99999 0C5.31249 0 5.49998 0.187492 5.49998 0.499992V2.5C5.49998 2.8125 5.31249 2.99999 4.99999 2.99999Z" fill="white" fill-opacity="1"/>
<path d="M11 2.99999C10.6875 2.99999 10.5 2.8125 10.5 2.5V0.499992C10.5 0.187492 10.6875 0 11 0C11.3125 0 11.5 0.187492 11.5 0.499992V2.5C11.5 2.8125 11.3125 2.99999 11 2.99999Z" fill="white" fill-opacity="1"/>
<path d="M15 5.99998H0.999992C0.687492 5.99998 0.5 5.81249 0.5 5.49999C0.5 5.18749 0.687492 5 0.999992 5H15C15.3125 5 15.5 5.18749 15.5 5.49999C15.5 5.81249 15.3125 5.99998 15 5.99998Z" fill="white" fill-opacity="1"/>
<path d="M3.49998 12.5C3.18748 12.5 3 12.375 2.8125 12.1875C2.625 12 2.5 11.6875 2.5 11.5C2.5 11.1875 2.625 11 2.8125 10.8125C3.1875 10.4375 3.81251 10.4375 4.18751 10.8125C4.37501 11 4.50001 11.3125 4.50001 11.5C4.50001 11.6875 4.37501 12 4.18751 12.1875C4.00001 12.375 3.81248 12.5 3.49998 12.5Z" fill="white" fill-opacity="1"/>
<path d="M3.49998 9.49997C3.18748 9.49997 3 9.37497 2.8125 9.18747C2.625 8.99997 2.5 8.81248 2.5 8.49998C2.5 8.18748 2.625 8 2.8125 7.8125C3.1875 7.4375 3.81251 7.4375 4.18751 7.8125C4.37501 8 4.50001 8.31248 4.50001 8.49998C4.50001 8.68748 4.37501 8.99997 4.18751 9.18747C4.00001 9.37497 3.81248 9.49997 3.49998 9.49997Z" fill="white" fill-opacity="1"/>
<path d="M6.50002 12.5C6.18752 12.5 6 12.375 5.8125 12.1875C5.625 12 5.5 11.6875 5.5 11.5C5.5 11.3125 5.625 11 5.8125 10.8125C6.1875 10.4375 6.81251 10.4375 7.18751 10.8125C7.37501 11 7.50001 11.3125 7.50001 11.5C7.50001 11.6875 7.37501 12 7.18751 12.1875C7.00001 12.375 6.81252 12.5 6.50002 12.5Z" fill="white" fill-opacity="1"/>
<path d="M6.50002 9.49997C6.18752 9.49997 6 9.37497 5.8125 9.18747C5.625 8.99997 5.5 8.68748 5.5 8.49998C5.5 8.31248 5.625 8 5.8125 7.8125C6.1875 7.4375 6.81251 7.4375 7.18751 7.8125C7.37501 8 7.50001 8.31248 7.50001 8.49998C7.50001 8.68748 7.37501 8.99997 7.18751 9.18747C7.00001 9.37497 6.81252 9.49997 6.50002 9.49997Z" fill="white" fill-opacity="1"/>
<path d="M9.50002 12.5C9.18752 12.5 9 12.375 8.8125 12.1875C8.625 12 8.5 11.6875 8.5 11.5C8.5 11.3125 8.625 11 8.8125 10.8125C9.1875 10.4375 9.81251 10.4375 10.1875 10.8125C10.375 11 10.5 11.1875 10.5 11.5C10.5 11.8125 10.375 12 10.1875 12.1875C10 12.375 9.81252 12.5 9.50002 12.5Z" fill="white" fill-opacity="1"/>
<path d="M9.50002 9.49997C9.18752 9.49997 9 9.37497 8.8125 9.18747C8.625 8.99997 8.5 8.68748 8.5 8.49998C8.5 8.31248 8.625 8 8.8125 7.8125C9.1875 7.4375 9.81251 7.4375 10.1875 7.8125C10.375 8 10.5 8.31248 10.5 8.49998C10.5 8.81248 10.375 8.99997 10.1875 9.18747C10 9.37497 9.81252 9.49997 9.50002 9.49997Z" fill="white" fill-opacity="1"/>
<path d="M12.5 12.5C12.1875 12.5 12 12.375 11.8125 12.1875C11.625 12 11.5 11.6875 11.5 11.5C11.5 11.1875 11.625 11 11.8125 10.8125C12.1875 10.4375 12.8125 10.4375 13.1875 10.8125C13.375 11 13.5 11.3125 13.5 11.5C13.5 11.6875 13.375 12 13.1875 12.1875C13 12.375 12.8125 12.5 12.5 12.5Z" fill="white" fill-opacity="1"/>
<path d="M12.5 9.49997C12.1875 9.49997 12 9.37497 11.8125 9.18747C11.625 8.99997 11.5 8.68748 11.5 8.49998C11.5 8.31248 11.625 8 11.8125 7.8125C12.1875 7.4375 12.8125 7.4375 13.1875 7.8125C13.375 8 13.5 8.31248 13.5 8.49998C13.5 8.81248 13.375 8.99997 13.1875 9.18747C13 9.37497 12.8125 9.49997 12.5 9.49997Z" fill="white" fill-opacity="1"/>
</svg>
