<svg width="16" height="16" viewBox="0 0 16 16" fill="none" xmlns="http://www.w3.org/2000/svg">
<path d="M15.3443 2.01813H6.41215C6.00242 2.01813 5.75659 1.76844 5.75659 1.35231C5.75659 0.936188 6.00242 0.686523 6.41215 0.686523H15.3443C15.7541 0.686523 15.9999 0.936188 15.9999 1.35231C15.9999 1.76844 15.7541 2.01813 15.3443 2.01813Z" fill="white" fill-opacity="1"/>
<path d="M15.3443 8.67609H6.41215C6.00242 8.67609 5.75659 8.4264 5.75659 8.01027C5.75659 7.59415 6.00242 7.34448 6.41215 7.34448H15.3443C15.7541 7.34448 15.9999 7.59415 15.9999 8.01027C15.9999 8.4264 15.7541 8.67609 15.3443 8.67609Z" fill="white" fill-opacity="1"/>
<path d="M15.3443 15.3343H6.41215C6.00242 15.3343 5.75659 15.0846 5.75659 14.6685C5.75659 14.2524 6.00242 14.0027 6.41215 14.0027H15.3443C15.7541 14.0027 15.9999 14.2524 15.9999 14.6685C15.9999 15.0846 15.7541 15.3343 15.3443 15.3343Z" fill="white" fill-opacity="1"/>
<path d="M1.49553 2.68401C1.24969 2.68401 1.00385 2.51757 0.676065 2.43434L0.18438 1.93499C-0.06146 1.68531 -0.06146 1.26918 0.18438 1.01951C0.43022 0.769831 0.839958 0.769831 1.0858 1.01951L1.33165 1.26917L2.23305 0.187256C2.47889 -0.0624187 2.88862 -0.0624187 3.13446 0.187256C3.3803 0.436931 3.3803 0.853061 3.13446 1.10274L1.98722 2.26788C1.98722 2.60078 1.74137 2.68401 1.49553 2.68401Z" fill="white" fill-opacity="1"/>
<path d="M1.49553 9.34196C1.24969 9.34196 1.00385 9.17552 0.676065 9.0923L0.18438 8.59294C-0.06146 8.34327 -0.06146 7.92714 0.18438 7.67746C0.43022 7.42779 0.839958 7.42779 1.0858 7.67746L1.33165 7.92713L2.23305 6.84522C2.47889 6.59554 2.88862 6.59554 3.13446 6.84522C3.3803 7.09489 3.3803 7.51102 3.13446 7.76069L1.98722 8.92584C1.98722 9.25874 1.74137 9.34196 1.49553 9.34196Z" fill="white" fill-opacity="1"/>
<path d="M1.49553 16.0002C1.24969 16.0002 1.00385 15.8337 0.676065 15.7505L0.18438 15.2511C-0.06146 15.0015 -0.06146 14.5853 0.18438 14.3357C0.43022 14.086 0.839958 14.086 1.0858 14.3357L1.33165 14.5853L2.23305 13.5034C2.47889 13.2537 2.88862 13.2537 3.13446 13.5034C3.3803 13.7531 3.3803 14.1692 3.13446 14.4189L1.98722 15.584C1.98722 15.9169 1.74137 16.0002 1.49553 16.0002Z" fill="white" fill-opacity="1"/>
</svg>
