<svg width="12" height="16" viewBox="0 0 12 16" fill="none" xmlns="http://www.w3.org/2000/svg">
<path d="M9.69231 16H2.30769C1.03846 16 0 14.9412 0 13.6471V2.35294C0 1.05882 1.03846 0 2.30769 0H5.65384C6 0 6.40384 0.176474 6.6923 0.352945L11.6538 5.41177C11.9423 5.70589 12 6.05882 12 6.47059V13.6471C12 14.9412 11.0192 16 9.69231 16ZM2.30769 0.94118C1.55769 0.94118 0.923063 1.58823 0.923063 2.35294V13.6471C0.923063 14.4118 1.55769 15.0588 2.30769 15.0588H9.69231C10.4423 15.0588 11.0769 14.4118 11.0769 13.6471V6.47059C11.0769 6.35294 10.9615 6.17648 10.9615 6.11766L5.99998 1.05883C5.8846 0.941187 5.82692 0.94118 5.65384 0.94118H2.30769V0.94118Z" fill="white"/>
<path d="M6.46139 0.470459V4.23516C6.46139 4.99987 7.09602 5.64692 7.84602 5.64692H11.5383V6.5881H7.84602C6.57679 6.5881 5.53833 5.52928 5.53833 4.23516V0.470459H6.46139Z" fill="white"/>
<path d="M7.84599 10.5296H4.15367C3.86521 10.5296 3.69214 10.3531 3.69214 10.059C3.69214 9.76484 3.86521 9.58838 4.15367 9.58838H7.84599C8.13446 9.58838 8.30753 9.76484 8.30753 10.059C8.30753 10.3531 8.13446 10.5296 7.84599 10.5296Z" fill="white"/>
<path d="M5.99986 12.4119C5.7114 12.4119 5.53833 12.2355 5.53833 11.9414V8.17665C5.53833 7.88254 5.7114 7.70605 5.99986 7.70605C6.28832 7.70605 6.46139 7.88254 6.46139 8.17665V11.9414C6.46139 12.2355 6.28832 12.4119 5.99986 12.4119Z" fill="white"/>
</svg>
