<svg width="17" height="17" viewBox="0 0 17 17" fill="none"
  xmlns="http://www.w3.org/2000/svg">
  <path d="M8.53144 11.0001C7.15137 11.0001 6.02222 9.87513 6.02222 8.50013C6.02222 7.12512 7.15137 6.00012 8.53144 6.00012C9.91152 6.00012 11.0407 7.12512 11.0407 8.50013C11.0407 9.87513 9.97425 11.0001 8.53144 11.0001ZM8.53144 7.00011C7.71594 7.00011 7.02591 7.68763 7.02591 8.50013C7.02591 9.31263 7.71594 10.0001 8.53144 10.0001C9.34694 10.0001 10.037 9.31263 10.037 8.50013C10.037 7.68763 9.34694 7.00011 8.53144 7.00011Z" fill="white" fill-opacity="1"/>
  <path d="M9.2214 17H7.90406C7.27675 17 6.71218 16.5 6.71218 15.8125V14.8125C6.33579 14.6875 5.89668 14.5 5.5203 14.3125C5.39484 14.3125 5.3321 14.3125 5.3321 14.3125L4.64206 15C4.26568 15.375 3.45018 15.375 2.94834 15L1.94464 14C1.4428 13.5 1.4428 12.8125 1.94464 12.3125L2.63469 11.625C2.76015 11.5 2.63469 11.4375 2.63469 11.4375C2.44649 11.125 2.32103 10.75 2.2583 10.4375C2.2583 10.3125 2.13284 10.3125 2.07011 10.3125H1.19188C0.564572 10.3125 0 9.8125 0 9.125V7.81251C0 7.18751 0.501841 6.625 1.19188 6.625H2.07011C2.19557 6.625 2.19557 6.50003 2.2583 6.50003C2.38376 6.12503 2.57195 5.81246 2.63469 5.49996C2.63469 5.37496 2.63469 5.37501 2.63469 5.31251L1.94464 4.62502C1.4428 4.12502 1.4428 3.43748 1.94464 2.93747L2.94834 1.93749C3.32472 1.56249 4.14022 1.56249 4.64206 1.93749L5.3321 2.62497C5.45757 2.74997 5.45757 2.74997 5.5203 2.62497C5.83395 2.43747 6.21033 2.31249 6.52398 2.24999C6.64944 2.24999 6.64944 2.12496 6.64944 2.06246V1.18752C6.64944 0.562516 7.15129 0 7.84133 0H9.15867C9.78598 0 10.3506 0.500016 10.3506 1.18752V2.06246C10.3506 2.18746 10.476 2.18749 10.476 2.24999C10.7897 2.37499 11.1661 2.56247 11.4797 2.62497C11.6052 2.62497 11.6679 2.62497 11.6679 2.62497L12.3579 1.93749C12.7343 1.56249 13.5498 1.56249 14.0517 1.93749L15.0554 2.93747C15.5572 3.43748 15.5572 4.12502 15.0554 4.62502L14.3653 5.31251C14.2399 5.43751 14.3653 5.49996 14.3653 5.49996C14.5535 5.81246 14.679 6.18753 14.7417 6.50003C14.7417 6.62503 14.8672 6.625 14.9299 6.625H15.8081C16.4354 6.625 17 7.12501 17 7.81251V9.125C17 9.75 16.4982 10.3125 15.8081 10.3125H14.9299C14.8044 10.3125 14.8044 10.4375 14.7417 10.4375C14.6162 10.8125 14.428 11.125 14.3653 11.4375C14.3653 11.5625 14.3653 11.5625 14.3653 11.625L15.0554 12.3125C15.5572 12.8125 15.5572 13.5 15.0554 14L14.0517 15C13.6753 15.375 12.8598 15.375 12.3579 15L11.6679 14.3125C11.5424 14.1875 11.5424 14.1875 11.4797 14.3125C11.1661 14.5 10.7897 14.625 10.476 14.6875C10.3506 14.6875 10.3506 14.8125 10.3506 14.875V15.75C10.3506 16.5 9.84871 17 9.2214 17ZM5.45756 13.25C5.64576 13.25 5.83395 13.25 6.08487 13.375C6.46125 13.5625 6.9631 13.75 7.40222 13.875C7.59041 14 7.7786 14.1875 7.7786 14.375V15.75C7.7786 15.875 7.90406 15.9375 7.96679 15.9375H9.28414C9.4096 15.9375 9.47232 15.8125 9.47232 15.75V14.875C9.47232 14.375 9.78598 13.875 10.2878 13.75C10.6015 13.625 10.9151 13.5625 11.1661 13.375C11.6679 13.1875 12.1697 13.1875 12.5461 13.5625L13.2362 14.25C13.3616 14.375 13.4244 14.375 13.4244 14.25L14.428 13.25C14.5535 13.125 14.5535 13.0625 14.428 13.0625L13.738 12.375C13.3616 12 13.3616 11.5 13.5498 11C13.6753 10.6875 13.8635 10.375 13.9262 10.125C14.1144 9.62499 14.5535 9.31253 15.0554 9.31253H15.9336C16.059 9.31253 16.1218 9.1875 16.1218 9.125V7.81251C16.1218 7.68751 15.9963 7.62498 15.9336 7.62498H15.0554C14.5535 7.62498 14.0517 7.31253 13.9262 6.81253C13.8007 6.50003 13.738 6.18751 13.5498 5.93751C13.3616 5.43751 13.3616 4.93746 13.738 4.56246L14.428 3.87498C14.5535 3.74998 14.5535 3.68752 14.428 3.68752L13.4244 2.68746C13.2989 2.56246 13.2362 2.56246 13.2362 2.68746L12.5461 3.37502C12.1697 3.68752 11.6679 3.74998 11.1661 3.56248C10.8524 3.43748 10.5387 3.24999 10.2878 3.18749C9.78598 2.99999 9.47232 2.56246 9.47232 2.06246V1.18752C9.47232 1.06252 9.34687 0.999987 9.28414 0.999987H7.96679C7.84133 0.999987 7.7786 1.12502 7.7786 1.18752V2.06246C7.7786 2.56246 7.46494 3.06249 6.9631 3.18749C6.64944 3.31249 6.33579 3.37498 6.08487 3.56248C5.58303 3.74998 5.08118 3.75002 4.7048 3.37502L4.01476 2.68746C3.8893 2.56246 3.82656 2.56246 3.82656 2.68746L2.82288 3.68752C2.69742 3.81252 2.69742 3.87498 2.82288 3.87498L3.51291 4.56246C3.88929 4.93746 3.8893 5.43751 3.7011 5.93751C3.57564 6.25001 3.38746 6.56253 3.32473 6.81253C3.13653 7.31253 2.69742 7.62498 2.19557 7.62498H1.31734C1.19188 7.62498 1.12915 7.75001 1.12915 7.81251V9.125C1.12915 9.25 1.25461 9.31253 1.31734 9.31253H2.19557C2.69742 9.31253 3.19926 9.62499 3.32473 10.125C3.45019 10.4375 3.51291 10.75 3.7011 11C3.8893 11.5 3.88929 12 3.51291 12.375L2.82288 13.0625C2.69742 13.1875 2.69742 13.25 2.82288 13.25L3.82656 14.25C3.95202 14.375 4.01476 14.375 4.01476 14.25L4.7048 13.5625C4.83026 13.375 5.14391 13.25 5.45756 13.25Z" fill="white" fill-opacity="1"/>
</svg>
