<svg width="13" height="16" viewBox="0 0 13 16" fill="none" xmlns="http://www.w3.org/2000/svg">
<path d="M6.4689 8.95696C4.29186 8.95696 2.48804 6.96655 2.48804 4.47852C2.48804 1.99048 4.29186 0 6.4689 0C8.64593 0 10.4498 1.99048 10.4498 4.47852C10.4498 6.96655 8.64593 8.95696 6.4689 8.95696ZM6.4689 0.995276C4.78947 0.995276 3.48326 2.61249 3.48326 4.47852C3.48326 6.34454 4.78947 7.96176 6.4689 7.96176C8.14832 7.96176 9.45455 6.34454 9.45455 4.47852C9.45455 2.61249 8.14832 0.995276 6.4689 0.995276Z" fill="#939195"/>
<path d="M12.4402 15.7369C12.1292 15.7369 11.9426 15.5502 11.9426 15.2392V11.8804C11.9426 10.0144 10.4498 8.52157 8.58377 8.52157H8.27277C7.96176 8.52157 7.77515 8.33493 7.77515 8.02393C7.77515 7.71292 7.96176 7.52637 8.27277 7.52637H8.64596C11.0096 7.52637 13 9.5168 13 11.8804V15.2392C12.9378 15.5502 12.689 15.7369 12.4402 15.7369Z" fill="#939195"/>
<path d="M0.497619 15.7369C0.186614 15.7369 0 15.5502 0 15.2392V11.8804C0 9.5168 1.99043 7.52637 4.35407 7.52637H4.72728C5.03828 7.52637 5.22488 7.71292 5.22488 8.02393C5.22488 8.33493 5.03828 8.52157 4.72728 8.52157H4.35407C2.48804 8.52157 0.995219 10.0144 0.995219 11.8804V15.2392C0.995219 15.5502 0.746423 15.7369 0.497619 15.7369Z" fill="#939195"/>
</svg>
