<svg width="15" height="15" viewBox="0 0 15 15" fill="none" xmlns="http://www.w3.org/2000/svg">
<path d="M7.50001 11C7.19009 11 7.00415 10.8125 7.00415 10.5V7.50003C7.00415 7.18753 7.19009 7 7.50001 7C7.80993 7 7.99589 7.18753 7.99589 7.50003V10.5C7.99589 10.8125 7.74795 11 7.50001 11Z" fill="white"/>
<path d="M7.50001 5.00002C7.37604 5.00002 7.19011 4.87501 7.12812 4.87501C7.00416 4.75001 7.00415 4.68748 7.00415 4.49998C7.00415 4.37498 7.00416 4.1875 7.12812 4.125C7.31408 3.9375 7.62398 3.9375 7.80993 4.125C7.9339 4.25 7.99589 4.31248 7.99589 4.49998C7.99589 4.62498 7.87192 4.81248 7.87192 4.81248C7.74795 4.87498 7.56199 5.00002 7.50001 5.00002Z" fill="white"/>
<path d="M12.7066 15H2.29338C1.11569 15 0 14 0 12.6875V2.31247C0 1.12497 0.991725 0 2.29338 0H12.7066C13.8843 0 15 0.99997 15 2.31247V12.8125C14.938 14 13.9463 15 12.7066 15ZM2.29338 0.999985C1.61156 0.999985 0.991721 1.62497 0.991721 2.31247V12.8125C0.991721 13.5 1.61156 14.125 2.29338 14.125H12.7066C13.3884 14.125 14.0083 13.5 14.0083 12.8125V2.31247C14.0083 1.62497 13.3884 0.999985 12.7066 0.999985H2.29338Z" fill="white"/>
</svg>
