<svg width="15" height="16" viewBox="0 0 15 16" fill="none" xmlns="http://www.w3.org/2000/svg">
<path d="M11.125 2.09239C10.8125 1.96931 10.5 2.09238 10.4375 2.277C10.3125 2.58469 10.4375 2.89241 10.625 2.95394C12.75 4.12317 14 6.21547 14 8.55393C14 12.1232 11.125 14.9539 7.5 14.9539C3.875 14.9539 1.00002 12.1232 1.00002 8.55393C1.00002 6.21547 2.3125 4.0001 4.375 2.95394C4.5625 2.76933 4.68749 2.46161 4.56249 2.277C4.37499 2.09238 4.06251 1.96931 3.87501 2.09239C1.50001 3.44624 0 5.9078 0 8.61549C0 12.677 3.375 16.0001 7.5 16.0001C11.625 16.0001 15 12.677 15 8.61549C15 5.84626 13.5 3.3847 11.125 2.09239Z" fill="white" fill-opacity="1"/>
<path d="M7.49999 5.90768C7.81249 5.90768 7.99998 5.72307 7.99998 5.41538V0.4923C7.99998 0.184608 7.81249 0 7.49999 0C7.18749 0 7 0.184608 7 0.4923V5.41538C7 5.72307 7.24999 5.90768 7.49999 5.90768Z" fill="white" fill-opacity="1"/>
</svg>
