<svg width="19" height="16" viewBox="0 0 19 16" fill="none" xmlns="http://www.w3.org/2000/svg">
<mask id="mask0" mask-type="alpha" maskUnits="userSpaceOnUse" x="0" y="0" width="19" height="16">
<rect width="19" height="16" fill="#C4C4C4"/>
</mask>
<g mask="url(#mask0)">
<path d="M9.56587 5C10.1332 5 10.3271 5.45455 10.3271 5.45455C10.9503 5.45455 11.2406 6.08191 11.2406 6.81818C11.2406 7.18513 11.08 7.48935 11.08 7.48935C11.1442 7.52604 11.2513 7.64323 11.2239 7.85156C11.1739 8.241 11.0051 8.33925 10.8968 8.34754C10.8552 8.71094 10.3116 9.23059 10.1748 9.29806V9.84848C10.4793 10.7576 12.5548 10.2888 12.5548 12.2727H6.5769C6.5769 10.2888 8.65241 10.7576 8.9569 9.84848V9.29806C8.82012 9.23059 8.27537 8.71094 8.23493 8.34754C8.1267 8.33925 7.9578 8.241 7.90785 7.85156C7.88049 7.64323 7.98754 7.52604 8.05176 7.48935C8.05176 7.48935 7.89119 7.15317 7.89119 6.81818C7.89119 5.82386 8.57748 5 9.56587 5Z" stroke="white"/>
<path d="M7.81573 1.90407C8.60244 0.675098 10.3979 0.675097 11.1846 1.90407L17.6555 12.0126C18.5076 13.3438 17.5516 15.0909 15.971 15.0909H3.0293C1.4487 15.0909 0.492699 13.3438 1.34486 12.0126L7.81573 1.90407Z" stroke="white"/>
</g>
</svg>
