<svg width="18" height="20" viewBox="0 0 18 20" fill="none" xmlns="http://www.w3.org/2000/svg">
<path d="M13.6755 14.6487C13.5268 14.6487 13.3039 14.6487 13.2296 14.5L2.15532 11.3041C0.817489 10.9325 0 9.74331 0 8.47981V6.10144C0 4.76361 0.817489 3.57444 2.15532 3.27715L13.2296 0.08119C14.2701 -0.290429 15.4593 0.675789 15.4593 1.71632V12.7906C15.4593 13.2365 15.2363 13.7568 15.0134 14.1284C14.6417 14.5 14.1958 14.6487 13.6755 14.6487ZM13.6755 1.19605H13.5269L2.45263 4.392C1.70939 4.61497 1.11486 5.35818 1.11486 6.02709V8.40546C1.11486 9.22302 1.56074 9.96627 2.45263 10.0406L13.5269 13.2365C13.7499 13.2365 13.9729 13.2365 14.1215 13.0878C14.2702 12.9392 14.2701 12.8649 14.2701 12.6419V1.56766C14.2701 1.41902 14.0471 1.19605 13.6755 1.19605Z" fill="white" fill-opacity="1"/>
<path d="M14.5674 3.72318C14.716 3.57453 14.9389 3.57453 15.1619 3.72318L17.5403 4.91234C17.7633 5.06099 17.912 5.28399 17.912 5.35831V8.92584C17.912 9.14881 17.7633 9.37177 17.5403 9.37177L15.1619 10.561C15.0133 10.561 15.0133 10.7096 14.939 10.7096C14.8647 10.7096 14.716 10.7096 14.5674 10.561V3.72318ZM15.4592 5.13535V9.1488L16.6484 8.55422V5.72993L15.4592 5.13535Z" fill="white" fill-opacity="1"/>
<path d="M3.93916 10.9325L5.94596 19.2568C6.0946 19.6284 5.79724 19.8514 5.49994 20H5.35133C5.12836 20 4.90535 19.777 4.7567 19.554L2.75 11.2298L3.93916 10.9325Z" fill="white" fill-opacity="1"/>
</svg>
