<svg width="12" height="15" viewBox="0 0 12 15" fill="none" xmlns="http://www.w3.org/2000/svg">
<path d="M9.85714 14.5714H2.14286C0.964286 14.5714 0 13.6072 0 12.4286V2.14286C0 0.964286 0.964286 0 2.14286 0H9.85714C11.0357 0 12 0.964286 12 2.14286V12.4286C12 13.6072 11.0893 14.5714 9.85714 14.5714ZM2.14286 0.857146C1.44643 0.857146 0.857146 1.44643 0.857146 2.14286V12.4286C0.857146 13.125 1.44643 13.7143 2.14286 13.7143H9.85714C10.5536 13.7143 11.1429 13.125 11.1429 12.4286V2.14286C11.1429 1.44643 10.5536 0.857146 9.85714 0.857146H2.14286Z" fill="#959397"/>
<path d="M8.57143 4.2856H3.42857C3.16071 4.2856 3 4.12489 3 3.85703C3 3.58917 3.16071 3.42847 3.42857 3.42847H8.57143C8.83928 3.42847 8.99999 3.58917 8.99999 3.85703C8.99999 4.12489 8.83928 4.2856 8.57143 4.2856Z" fill="#959397"/>
<path d="M8.57143 7.71408H3.42857C3.16071 7.71408 3 7.55336 3 7.2855C3 7.01764 3.16071 6.85693 3.42857 6.85693H8.57143C8.83928 6.85693 8.99999 7.01764 8.99999 7.2855C8.99999 7.55336 8.83928 7.71408 8.57143 7.71408Z" fill="#959397"/>
<path d="M8.57143 11.1428H3.42857C3.16071 11.1428 3 10.9821 3 10.7142C3 10.4464 3.16071 10.2856 3.42857 10.2856H8.57143C8.83928 10.2856 8.99999 10.4464 8.99999 10.7142C8.99999 10.9821 8.83928 11.1428 8.57143 11.1428Z" fill="#959397"/>
</svg>
