<svg width="20" height="13" viewBox="0 0 20 13" fill="none" xmlns="http://www.w3.org/2000/svg">
<path d="M9.8157 7.68792C8.16831 7.68792 6.86414 6.24651 6.86414 4.3932C6.86414 2.53989 8.16831 1.09839 9.8157 1.09839C11.4631 1.09839 12.7673 2.53989 12.7673 4.3932C12.8359 6.24651 11.4631 7.68792 9.8157 7.68792ZM9.8157 2.19663C8.85472 2.19663 7.96238 3.15766 7.96238 4.3932C7.96238 5.62874 8.71744 6.58968 9.8157 6.58968C10.914 6.58968 11.669 5.62874 11.669 4.3932C11.7377 3.2263 10.8453 2.19663 9.8157 2.19663Z" fill="white"/>
<path d="M11.0511 6.24634H11.2571C13.0418 6.24634 14.4146 7.68778 14.4146 9.40381V11.7376C14.4146 12.0808 14.2087 12.2868 13.8655 12.2868C13.5223 12.2868 13.3163 12.0808 13.3163 11.7376V9.40381C13.3163 8.30556 12.3554 7.34458 11.2571 7.34458H11.0511V6.24634Z" fill="white"/>
<path d="M8.64879 7.34458H8.44288C7.34462 7.34458 6.38364 8.30556 6.38364 9.40381V11.7376C6.38364 12.0808 6.17773 12.2868 5.83452 12.2868C5.49132 12.2868 5.2854 12.0808 5.2854 11.7376V9.40381C5.2854 7.61914 6.72685 6.24634 8.44288 6.24634H8.64879V7.34458Z" fill="white"/>
<path d="M15.8561 5.49129C14.5519 5.49129 13.3164 4.25575 13.3164 2.74565C13.3164 1.23554 14.4146 0 15.8561 0C17.2976 0 18.3958 1.23554 18.3958 2.74565C18.3958 4.25575 17.2289 5.49129 15.8561 5.49129ZM15.8561 1.09824C15.101 1.09824 14.4146 1.85331 14.4146 2.74565C14.4146 3.63798 15.101 4.39305 15.8561 4.39305C16.6111 4.39305 17.2976 3.63798 17.2976 2.74565C17.2976 1.85331 16.6798 1.09824 15.8561 1.09824Z" fill="white"/>
<path d="M16.8857 4.18726H17.0917C18.5332 4.18726 19.7001 5.42283 19.7001 6.79565V8.64893C19.7001 8.99213 19.4941 9.19809 19.1509 9.19809C18.8077 9.19809 18.6018 8.99213 18.6018 8.64893V6.79565C18.6018 5.90332 17.9154 5.2855 17.0917 5.2855H16.8857V4.18726Z" fill="white"/>
<path d="M14.8951 5.2855H14.6892C13.7969 5.2855 13.1791 5.97196 13.1791 6.79565C13.1791 7.13886 12.9732 7.34473 12.63 7.34473C12.2868 7.34473 12.0808 7.13886 12.0808 6.79565C12.0808 5.35419 13.3164 4.18726 14.6892 4.18726H14.8951V5.2855Z" fill="white"/>
<path d="M3.7752 5.49129C2.47102 5.49129 1.23547 4.25575 1.23547 2.74565C1.23547 1.23554 2.33374 0 3.7752 0C5.21667 0 6.31493 1.23554 6.31493 2.74565C6.31493 4.25575 5.14803 5.49129 3.7752 5.49129ZM3.7752 1.09824C3.02015 1.09824 2.33376 1.85331 2.33376 2.74565C2.33376 3.63798 3.02015 4.39305 3.7752 4.39305C4.53026 4.39305 5.21665 3.63798 5.21665 2.74565C5.21665 1.85331 4.5989 1.09824 3.7752 1.09824Z" fill="white"/>
<path d="M4.80493 4.18726H5.01085C6.45231 4.18726 7.6192 5.42283 7.6192 6.79565C7.6192 7.13886 7.41329 7.34473 7.07008 7.34473C6.72687 7.34473 6.52096 7.13886 6.52096 6.79565C6.52096 5.90332 5.83454 5.2855 5.01085 5.2855H4.80493V4.18726Z" fill="white"/>
<path d="M2.81427 5.2855H2.60835C1.71602 5.2855 1.09824 5.97196 1.09824 6.79565V8.64893C1.09824 8.99213 0.892326 9.19809 0.549121 9.19809C0.205915 9.19809 0 8.99213 0 8.64893V6.79565C0 5.35419 1.23553 4.18726 2.60835 4.18726H2.81427V5.2855Z" fill="white"/>
</svg>
