<svg width="15" height="13" viewBox="0 0 15 13" fill="none" xmlns="http://www.w3.org/2000/svg">
<path d="M13.5938 13H1.40627C0.644546 13 0 12.3616 0 11.6071V1.39287C0 0.638406 0.644546 0 1.40627 0H5.15625C5.91797 0 6.56251 0.638406 6.56251 1.39287V2.32143C6.56251 2.6116 6.73829 2.78574 7.03126 2.78574H13.5938C14.3555 2.78574 15 3.42415 15 4.17861V11.6071C15 12.3616 14.3555 13 13.5938 13ZM1.40627 0.928627C1.1133 0.928627 0.937487 1.10269 0.937487 1.39287V11.6071C0.937487 11.8973 1.1133 12.0714 1.40627 12.0714H13.5938C13.8867 12.0714 14.0625 11.8973 14.0625 11.6071V4.17861C14.0625 3.88843 13.8867 3.7143 13.5938 3.7143H7.03126C6.26954 3.7143 5.62499 3.07589 5.62499 2.32143V1.39287C5.62499 1.10269 5.44922 0.928627 5.15625 0.928627H1.40627Z" fill="white" fill-opacity="1"/>
<path d="M9.37501 8.53134H5.62499C5.33202 8.53134 5.15625 8.3572 5.15625 8.06703C5.15625 7.77685 5.33202 7.60278 5.62499 7.60278H9.37501C9.66798 7.60278 9.84375 7.77685 9.84375 8.06703C9.84375 8.3572 9.66798 8.53134 9.37501 8.53134Z" fill="white" fill-opacity="1"/>
<path d="M7.49999 10.3885C7.20702 10.3885 7.03125 10.2144 7.03125 9.92421V6.20992C7.03125 5.91974 7.20702 5.74561 7.49999 5.74561C7.79296 5.74561 7.96874 5.91974 7.96874 6.20992V9.92421C7.96874 10.2144 7.79296 10.3885 7.49999 10.3885Z" fill="white" fill-opacity="1"/>
</svg>
