<svg width="15" height="14" viewBox="0 0 15 14" fill="none" xmlns="http://www.w3.org/2000/svg">
<path d="M12.6562 14H2.34375C1.05469 14 0 12.95 0 11.6667V3.26668C0 1.98335 1.05469 0.93335 2.34375 0.93335H12.6562C13.9453 0.93335 15 1.98335 15 3.26668V11.6667C15 12.95 14.0039 14 12.6562 14ZM2.34375 1.86667C1.58203 1.86667 0.937487 2.50835 0.937487 3.26668V11.6667C0.937487 12.425 1.58203 13.0667 2.34375 13.0667H12.6562C13.418 13.0667 14.0625 12.425 14.0625 11.6667V3.26668C14.0625 2.50835 13.418 1.86667 12.6562 1.86667H2.34375Z" fill="white" fill-opacity="1"/>
<path d="M4.68749 2.79999C4.39452 2.79999 4.21875 2.625 4.21875 2.33333V0.46666C4.21875 0.174993 4.39452 0 4.68749 0C4.98046 0 5.15624 0.174993 5.15624 0.46666V2.33333C5.15624 2.625 4.98046 2.79999 4.68749 2.79999Z" fill="white" fill-opacity="1"/>
<path d="M10.3125 2.79999C10.0195 2.79999 9.84375 2.625 9.84375 2.33333V0.46666C9.84375 0.174993 10.0195 0 10.3125 0C10.6055 0 10.7813 0.174993 10.7813 0.46666V2.33333C10.7813 2.625 10.6055 2.79999 10.3125 2.79999Z" fill="white" fill-opacity="1"/>
<path d="M14.0625 5.59982H0.937493C0.644524 5.59982 0.46875 5.42483 0.46875 5.13316C0.46875 4.8415 0.644524 4.6665 0.937493 4.6665H14.0625C14.3555 4.6665 14.5313 4.8415 14.5313 5.13316C14.5313 5.42483 14.3555 5.59982 14.0625 5.59982Z" fill="white" fill-opacity="1"/>
<path d="M7.25829 11C6.87002 11 6.54646 10.8715 6.35233 10.6145L5.18759 9.45784C4.99346 9.26506 4.99346 8.94378 5.18759 8.751C5.38172 8.55823 5.70526 8.55823 5.89939 8.751L7.0642 9.90762C7.19362 10.0361 7.25829 10.0361 7.25829 10.0361C7.38771 10.0361 7.45245 10.0361 7.45245 9.90762L10.2349 7.14458C10.4291 6.95181 10.7527 6.95181 10.9468 7.14458C11.1409 7.33735 11.1409 7.65864 10.9468 7.85141L8.16424 10.6145C7.97011 10.743 7.64655 11 7.25829 11Z" fill="white" fill-opacity="1"/>
</svg>
