<svg width="11" height="15" viewBox="0 0 11 15" fill="none" xmlns="http://www.w3.org/2000/svg">
<path d="M6.94386 12.0675H3.75486C3.49768 12.0675 3.34338 11.9094 3.34338 11.646C3.34338 11.3825 3.49768 11.2244 3.75486 11.2244H6.94386C7.20103 11.2244 7.35533 11.3825 7.35533 11.646C7.35533 11.8567 7.20103 12.0675 6.94386 12.0675Z" fill="white" fill-opacity="1"/>
<path d="M9.72129 14.3333H0.977284C0.462931 14.3333 0 13.9118 0 13.3321V12.2255C0 11.6985 0.411495 11.2243 0.977284 11.2243H1.23446C1.49164 9.69607 2.4689 8.37869 3.189 7.32476L3.29187 7.16668L3.189 7.00857C2.4689 6.00734 1.4402 4.63727 1.23446 3.10908H0.977284C0.462931 3.10908 0 2.6875 0 2.10784V1.00124C0 0.474277 0.411495 0 0.977284 0H9.77272C10.2871 0 10.75 0.421581 10.75 1.00124V2.10784C10.75 2.6348 10.3385 3.10908 9.77272 3.10908H9.46412C9.20694 4.63727 8.22967 5.95465 7.50958 7.00857L7.4067 7.16668L7.50958 7.32476C8.22967 8.32599 9.25838 9.69607 9.46412 11.2243H9.72129C10.2356 11.2243 10.6985 11.6458 10.6985 12.2255V13.3321C10.75 13.9118 10.3385 14.3333 9.72129 14.3333ZM1.02871 12.0674C0.925836 12.0674 0.874407 12.1728 0.874407 12.2255V13.3321C0.874407 13.4375 0.977272 13.4902 1.02871 13.4902H9.82417C9.92704 13.4902 9.97847 13.3848 9.97847 13.3321V12.2255C9.97847 12.1201 9.87561 12.0674 9.82417 12.0674H9.25836C9.00119 12.0674 8.84689 11.9093 8.84689 11.6458C8.74401 10.1177 7.71531 8.80025 7.04665 7.74633L6.73805 7.32476C6.63518 7.16668 6.63518 7.00859 6.73805 6.7978L7.04665 6.37624C7.76674 5.37502 8.79545 4.00491 8.84689 2.47672C8.84689 2.21324 9.00119 2.05516 9.25836 2.05516H9.82417C9.92704 2.05516 9.97847 1.94977 9.97847 1.89708V0.790441C9.97847 0.685049 9.87561 0.632359 9.82417 0.632359H1.02871C0.925836 0.632359 0.874407 0.737745 0.874407 0.790441V2.05516C0.874407 2.16055 0.977272 2.21324 1.02871 2.21324H1.59451C1.85169 2.21324 2.00599 2.37132 2.00599 2.6348C2.10886 4.16299 3.13757 5.4804 3.80623 6.53432L4.11483 6.95589C4.2177 7.11397 4.2177 7.27206 4.11483 7.48285L3.80623 7.90441C3.08613 8.90563 2.05743 10.2757 2.00599 11.8039C2.00599 12.0674 1.85169 12.2255 1.59451 12.2255H1.02871V12.0674Z" fill="white" fill-opacity="1"/>
</svg>
