<svg width="15" height="15" viewBox="0 0 15 15" fill="none" xmlns="http://www.w3.org/2000/svg">
<path d="M12.7941 14.1175H2.20588C0.992644 14.1175 0 13.1248 0 11.9116V4.85285C0 3.63962 0.992644 2.64697 2.20588 2.64697H12.7941C14.0074 2.64697 15 3.63962 15 4.85285V11.9116C15 13.1248 14.0625 14.1175 12.7941 14.1175ZM2.20588 3.52931C1.48897 3.52931 0.882404 4.13594 0.882404 4.85285V11.9116C0.882404 12.6285 1.48897 13.2352 2.20588 13.2352H12.7941C13.511 13.2352 14.1177 12.6285 14.1177 11.9116V4.85285C14.1177 4.13594 13.511 3.52931 12.7941 3.52931H2.20588Z" fill="#959397"/>
<path d="M14.5588 7.05884H0.441162V7.94117H14.5588V7.05884Z" fill="#959397"/>
<path d="M4.85295 8.82352C4.57721 8.82352 4.41174 8.65812 4.41174 8.38239V6.61765C4.41174 6.34191 4.57721 6.17651 4.85295 6.17651C5.12868 6.17651 5.29415 6.34191 5.29415 6.61765V8.38239C5.29415 8.65812 5.12868 8.82352 4.85295 8.82352Z" fill="#959397"/>
<path d="M10.1471 8.82352C9.87133 8.82352 9.70593 8.65812 9.70593 8.38239V6.61765C9.70593 6.34191 9.87133 6.17651 10.1471 6.17651C10.4228 6.17651 10.5883 6.34191 10.5883 6.61765V8.38239C10.5883 8.65812 10.4228 8.82352 10.1471 8.82352Z" fill="#959397"/>
<path d="M4.41174 3.08821V1.59927C4.41174 0.716923 5.12867 0 6.01102 0H9.09923C9.98158 0 10.6985 0.716923 10.6985 1.59927V3.08821H9.81617V1.59927C9.81617 1.26839 9.54041 0.882337 9.09923 0.882337H6.01102C5.68014 0.882337 5.29415 1.1581 5.29415 1.59927V3.08821H4.41174Z" fill="#959397"/>
</svg>
